<svg xmlns="http://www.w3.org/2000/svg" xmlns:xlink="http://www.w3.org/1999/xlink" id="レイヤー_1" width="640" height="65" x="0" y="0" enable-background="new 0 0 640 65" version="1.1" viewBox="0 0 640 65" xml:space="preserve"><switch><g><g><g><path fill="#040000" d="M143.925,12.003c0.611,0.689,1.065,0.909,1.849,0.909c0.58,0,1.222-0.078,1.88-0.235 c0.282-1.05,0.455-1.975,0.455-2.522c0-0.298-0.11-0.564-0.329-0.752c-0.188-0.173-0.392-0.267-0.909-0.408 c0.282-0.172,0.392-0.203,0.814-0.203c0.564,0,1.238,0.156,1.802,0.423c0.423,0.188,0.689,0.485,0.689,0.768 c0,0.188-0.016,0.235-0.266,0.549c-0.22,0.298-0.392,0.658-0.815,1.739c0.924-0.345,1.222-0.517,1.787-0.987 c0.172-0.156,0.36-0.235,0.533-0.235c0.282,0,0.736,0.126,0.971,0.282c0.173,0.095,0.251,0.251,0.251,0.455 c0,0.532-1.144,1.065-4.027,1.864c-0.204,0.564-0.204,0.564-0.689,2.021c-0.298,0.909-0.298,0.909-1.144,3.385 c-0.455,1.364-0.689,1.99-0.862,2.304c-0.157,0.267-0.376,0.408-0.627,0.408c-0.188,0-0.392-0.11-0.501-0.267 c-0.235-0.329-0.392-0.94-0.392-1.427c0-0.423,0.047-0.532,0.392-0.939c0.768-0.94,1.646-2.806,2.507-5.312 c-0.36,0.062-0.627,0.078-1.019,0.078c-1.238,0-1.943-0.518-2.507-1.802L143.925,12.003z M150.475,17.629 c-0.031,0.298-0.047,0.455-0.047,0.596c0,1.348,0.893,1.99,2.742,1.99c0.689,0,1.082-0.062,1.708-0.282 c0.11-0.047,0.22-0.062,0.313-0.062c0.313,0,0.862,0.282,1.175,0.627c0.157,0.172,0.235,0.345,0.235,0.579 c0,0.549-0.721,0.8-2.335,0.8c-1.504,0-2.664-0.298-3.322-0.847c-0.596-0.501-0.925-1.237-0.925-2.1 c0-0.47,0.079-0.846,0.267-1.348L150.475,17.629z M150.726,15.027c1.097-0.861,2.491-1.379,3.729-1.379 c1.034,0,1.708,0.424,1.708,1.05c0,0.439-0.25,0.658-0.768,0.658l-0.611-0.016c-0.439,0-0.893,0.11-1.379,0.345 c-0.11,0.048-0.11,0.048-0.658,0.36c-0.188,0.11-0.235,0.142-0.423,0.251l-0.094-0.141l1.583-1.489c-0.172,0-0.298,0-0.392,0 c-0.768,0-1.708,0.188-2.633,0.518L150.726,15.027z"/><path fill="#040000" d="M166.772,8.681c0.501,0,1.065,0.11,1.599,0.313c0.611,0.22,0.893,0.502,0.893,0.862 c0,0.172,0,0.172-0.172,0.533c-0.282,0.563-0.47,1.911-0.47,3.274c0,0.502,0.172,0.737,0.517,0.737 c0.235,0,0.549-0.11,1.426-0.518c0.674-0.329,1.05-0.438,1.363-0.438c0.564,0,1.034,0.454,1.034,0.987 c0,0.313-0.125,0.517-0.423,0.658c-0.172,0.094-0.172,0.094-1.567,0.423c-1.708,0.423-3.04,0.972-3.949,1.661 c-0.768,0.564-1.113,1.128-1.113,1.786c0,0.972,0.815,1.505,2.304,1.505c1.128,0,2.319-0.173,3.714-0.549 c0.235-0.078,0.376-0.094,0.533-0.094c0.408,0,0.784,0.172,1.097,0.517c0.219,0.235,0.297,0.424,0.297,0.705 c0,0.36-0.266,0.58-0.831,0.722c-0.533,0.125-1.958,0.234-3.118,0.234c-1.426,0-2.382-0.141-3.15-0.454 c-1.081-0.438-1.739-1.395-1.739-2.508c0-1.504,1.253-2.914,3.683-4.184c-0.047,0.016-0.079,0.016-0.11,0.016 c-0.298,0-0.658-0.141-0.846-0.329c-0.376-0.36-0.455-0.814-0.517-2.805c-0.063-1.505-0.094-1.818-0.204-2.085 c-0.141-0.36-0.486-0.548-1.207-0.674C166.114,8.729,166.255,8.681,166.772,8.681z"/><path fill="#040000" d="M184.558,13.853c0.407,0,0.831-0.109,2.742-0.689c1.223-0.376,1.301-0.407,1.552-0.564 c0.188-0.141,0.25-0.156,0.376-0.156c0.219,0,0.501,0.141,0.799,0.392c0.564,0.454,0.893,0.925,0.893,1.254 c0,0.203-0.141,0.345-0.455,0.501c-0.752,0.329-1.222,0.736-4.168,3.542c0.784-0.408,1.254-0.564,1.755-0.564 c0.423,0,0.784,0.109,1.081,0.36c0.345,0.282,0.501,0.58,0.721,1.395c0.282,1.019,0.486,1.223,1.316,1.223 c0.783,0,1.128-0.062,1.708-0.313c0.094-0.031,0.157-0.047,0.25-0.047c0.172,0,0.501,0.141,0.752,0.345 c0.423,0.313,0.658,0.643,0.658,0.925c0,0.548-0.596,0.752-2.147,0.752c-1.599,0-2.445-0.188-3.056-0.705 c-0.361-0.313-0.596-0.705-0.737-1.27c-0.031-0.204-0.031-0.204-0.157-1.207c-0.047-0.345-0.204-0.689-0.392-0.814 c-0.094-0.062-0.219-0.094-0.408-0.094c-0.971,0-2.194,1.05-3.714,3.181c-0.533,0.752-0.689,0.894-0.956,0.894 c-0.408,0-0.815-0.768-0.815-1.521c0-0.25,0.078-0.423,0.25-0.579c0.11-0.11,0.11-0.11,0.658-0.518 c1.065-0.768,3.51-3.229,5.109-5.14c0.438-0.518,0.626-0.784,0.626-0.894c0-0.047-0.062-0.094-0.157-0.094 c-0.392,0-1.817,0.658-3.197,1.473c-0.658,0.392-0.752,0.423-0.987,0.423c-0.25,0-0.454-0.109-0.626-0.329 c-0.345-0.438-0.596-1.128-0.596-1.63c0-0.266,0.062-0.438,0.267-0.736C183.806,13.586,184.057,13.853,184.558,13.853z M185.733,8.384c0.517,0.438,0.846,0.61,1.473,0.783c0.486,0.141,1.034,0.22,1.504,0.22c0.141,0,0.141,0,0.533-0.032 c0.031,0,0.062,0,0.11,0c0.658,0,1.457,0.722,1.457,1.316c0,0.36-0.266,0.611-0.642,0.611c-0.079,0-0.188,0-0.298-0.016 c-0.36-0.031-0.533-0.047-0.768-0.047c-0.407,0-1.144,0.047-1.787,0.141c-0.172,0.016-0.172,0.016-1.159,0.173 c-0.329,0.047-0.361,0.047-0.721,0.094l-0.047-0.156c2.053-0.784,2.241-0.862,2.602-0.987c-0.784-0.282-1.144-0.486-1.567-0.894 c-0.376-0.345-0.58-0.643-0.815-1.112L185.733,8.384z"/><path fill="#040000" d="M199.649,18.616c1.16,0.267,2.1,0.58,3.071,1.05c0.925,0.455,1.348,1.019,1.348,1.85 c0,0.752-0.438,1.457-0.893,1.457c-0.11,0-0.219-0.078-0.36-0.251c-0.047-0.062-0.047-0.062-0.799-1.3 c-0.611-1.02-1.442-1.928-2.429-2.648L199.649,18.616z"/><path fill="#040000" d="M230.237,13.272c0.455-0.47,0.596-0.611,1.05-1.097c0.721,0.501,0.924,0.658,1.598,1.19 c0.047,0.048,0.094,0.126,0.094,0.142c0,0.062-0.063,0.094-0.188,0.094h-13.148c-0.455,0-0.846,0.031-1.222,0.109l-0.079-0.579 c0.439,0.094,0.846,0.141,1.332,0.141h5.046v-1.238h-2.648v0.345c0,0.298-0.172,0.361-1.05,0.361 c-0.548,0-0.627-0.032-0.627-0.313c0.032-0.878,0.047-1.285,0.047-2.226c0-0.627,0-0.799-0.047-1.379 c0.831,0.345,1.082,0.47,1.881,0.894h2.444V9.402c0-0.408-0.016-0.643-0.094-1.129c1.974,0.188,2.037,0.204,2.209,0.282 c0.031,0.016,0.11,0.109,0.11,0.141c0,0.017,0,0.017-0.063,0.142c-0.031,0.062-0.109,0.094-0.501,0.235v0.643h2.554 c0.361-0.377,0.47-0.502,0.831-0.862c0.564,0.36,0.737,0.47,1.27,0.846c0.157,0.126,0.219,0.188,0.219,0.267 c0,0.126-0.094,0.188-0.533,0.392c0,0.393,0,0.674,0,0.909c0,0.267,0,0.392,0,1.019c0,0.126-0.016,0.188-0.062,0.235 c-0.094,0.109-0.47,0.172-1.019,0.172c-0.517,0-0.58-0.016-0.58-0.219v-0.439h-2.68v1.238H230.237z M218.359,22.754 c1.332-0.486,2.241-0.925,3.166-1.505c0.643-0.407,0.877-0.596,1.238-1.019c1.003,0.267,1.912,0.533,2.131,0.627 c0.125,0.062,0.188,0.125,0.188,0.203c0,0.157-0.188,0.204-0.814,0.22c-1.05,0.58-1.63,0.815-2.664,1.097 c-0.987,0.282-1.74,0.408-3.197,0.549L218.359,22.754z M222.465,20.105c-0.016,0.234-0.22,0.297-1.066,0.297 c-0.58,0-0.674-0.047-0.674-0.312c0.063-2.022,0.063-2.132,0.063-3.104c0-1.755-0.016-2.382-0.079-3.149 c0.831,0.298,1.082,0.407,1.912,0.783h5.97c0.392-0.36,0.518-0.47,0.909-0.783c0.58,0.345,0.752,0.47,1.285,0.83 c0.141,0.095,0.172,0.157,0.172,0.22c0,0.141-0.11,0.22-0.549,0.438c0,0.518,0,0.909,0,1.145c0,0.908,0.016,2.037,0.047,3.354 c0,0.125-0.016,0.188-0.047,0.234c-0.109,0.142-0.501,0.204-1.222,0.204c-0.376,0-0.439-0.031-0.455-0.188v-0.172h-6.268V20.105 z M224.721,10.044h-2.648v1.661h2.648V10.044z M228.733,14.949h-6.268v1.27h6.268V14.949z M222.465,16.548v1.301h6.268v-1.301 H222.465z M222.465,18.178v1.395h6.268v-1.395H222.465z M226.382,11.705h2.68v-1.661h-2.68V11.705z M226.508,20.402 c2.241,0.063,3.588,0.204,4.482,0.455c0.595,0.188,0.893,0.596,0.893,1.27c0,0.501-0.188,0.83-0.47,0.83 c-0.157,0-0.25-0.047-0.58-0.282c-1.489-1.019-2.257-1.395-4.356-2.115L226.508,20.402z"/><path fill="#040000" d="M248.509,12.692c-0.235,1.254-0.376,1.803-0.689,2.633c-0.408,1.098-0.925,2.021-1.599,2.884 c1.348,0.564,2.507,1.159,3.041,1.567c0.548,0.407,0.736,0.783,0.736,1.457c0,0.658-0.298,1.238-0.627,1.238 c-0.235,0-0.266-0.016-0.94-0.737c-0.862-0.893-1.802-1.692-3.072-2.569c-1.003,0.956-2.053,1.63-3.369,2.178 c-1.316,0.533-2.445,0.815-4.576,1.113l-0.047-0.188c2.006-0.689,3.119-1.191,4.325-1.959c0.94-0.596,1.692-1.238,2.366-1.99 c-0.924-0.548-1.677-0.925-2.711-1.363c-0.157,0.313-0.25,0.471-0.486,0.909c-0.141,0.282-0.282,0.36-0.58,0.36 c-0.204,0-0.877-0.062-1.128-0.109c-0.172-0.031-0.266-0.126-0.266-0.235c0-0.047,0.031-0.157,0.094-0.251 c1.113-1.975,1.536-2.867,2.382-4.937h-2.46c-0.596,0-1.019,0.032-1.552,0.11l-0.109-0.611c0.643,0.125,1.065,0.172,1.708,0.172 h2.523c0.564-1.473,0.893-2.632,1.144-3.964c2.335,0.423,2.492,0.47,2.492,0.674c0,0.172-0.204,0.266-0.784,0.36 c-0.329,1.128-0.47,1.535-1.019,2.93h5.5c0.564-0.61,0.736-0.799,1.301-1.379c0.799,0.596,1.034,0.784,1.771,1.427 c0.063,0.078,0.094,0.125,0.094,0.172c0,0.078-0.063,0.109-0.188,0.109H248.509z M243.181,12.692 c-0.47,1.285-1.081,2.695-1.677,3.949c1.003,0.267,2.304,0.658,3.15,0.956c0.972-1.332,1.646-3.009,1.975-4.905H243.181z"/><path fill="#040000" d="M262.628,21.438c1.677-0.518,2.852-1.207,3.792-2.226c1.05-1.128,1.567-2.508,1.567-4.121 c0-2.68-1.63-4.278-4.325-4.278c-0.204,0-0.329,0-0.627,0.031c0.549,0.643,0.721,1.065,0.721,1.677 c0,1.254-0.799,3.447-1.928,5.344c-1.019,1.692-1.927,2.555-2.711,2.555c-0.345,0-0.674-0.188-0.846-0.455 c-0.125-0.235-0.219-0.454-0.36-1.034c-0.094-0.376-0.219-0.596-0.674-1.159c-0.376-0.471-0.611-1.16-0.611-1.803 c0-0.987,0.501-2.178,1.316-3.134c1.348-1.599,3.573-2.57,5.908-2.57c3.495,0,5.986,2.21,5.986,5.312 c0,2.272-1.253,4.09-3.526,5.14c-0.972,0.455-1.975,0.722-3.62,0.94L262.628,21.438z M259.698,12.521 c-1.082,1.081-1.677,2.413-1.677,3.729c0,1.081,0.533,2.194,1.066,2.194c0.517,0,1.551-1.301,2.57-3.229 c0.784-1.473,1.254-2.773,1.254-3.463c0-0.173-0.016-0.377-0.063-0.518c-0.031-0.125-0.109-0.345-0.125-0.345 C261.453,11.173,260.607,11.627,259.698,12.521z"/><path fill="#040000" d="M285.711,17.253c-0.549,1.176-0.862,1.661-1.583,2.444c1.771,0.376,2.758,0.689,3.134,0.956 c0.36,0.267,0.548,0.721,0.548,1.27c0,0.485-0.157,0.783-0.392,0.783c-0.157,0-0.235-0.047-0.674-0.345 c-0.894-0.579-2.319-1.363-3.479-1.88c-1.755,1.395-4.215,2.068-8.055,2.209l-0.063-0.219c2.398-0.455,3.448-0.769,4.764-1.396 c0.752-0.345,1.363-0.721,1.912-1.159c-0.783-0.267-1.363-0.438-2.288-0.658c-0.157,0.204-0.251,0.329-0.486,0.627 c-0.125,0.156-0.235,0.204-0.439,0.204c-0.188,0-0.705-0.063-0.987-0.126c-0.219-0.031-0.329-0.125-0.329-0.235 c0-0.031,0.031-0.109,0.094-0.203c0.752-0.878,1.128-1.363,1.755-2.272h-2.523c-0.564,0-0.987,0.031-1.457,0.109l-0.11-0.563 c0.501,0.094,0.924,0.125,1.567,0.125h2.743c0.486-0.752,0.626-0.987,0.877-1.583c-1.144,0.439-1.928,0.611-3.448,0.8 l-0.031-0.188c1.411-0.438,2.131-0.752,2.946-1.285c1.395-0.893,2.194-1.911,2.523-3.196c0.062-0.267,0.094-0.439,0.157-0.972 h-1.05c-0.924,0.877-1.426,1.254-2.351,1.786l-0.109-0.125c0.689-0.847,1.05-1.41,1.457-2.257 c0.313-0.674,0.455-1.065,0.596-1.677c2.1,0.486,2.319,0.549,2.319,0.736c0,0.157-0.204,0.235-0.737,0.251 c-0.392,0.485-0.533,0.643-0.83,0.956h4.591c0.392-0.423,0.517-0.549,0.925-0.956c0.736,0.47,0.956,0.627,1.598,1.112 c0.172,0.142,0.235,0.22,0.235,0.329c0,0.204-0.267,0.282-0.972,0.282c-0.956,0.674-1.316,0.894-2.414,1.505l-0.141-0.126 c0.423-0.705,0.58-0.987,0.909-1.817h-2.351c0.266,1.097,0.533,1.614,1.097,2.193c0.564,0.564,1.285,0.956,2.226,1.207 c0.533,0.141,0.956,0.204,1.88,0.267v0.188c-0.501,0.22-0.705,0.345-0.956,0.689c-0.172,0.204-0.329,0.471-0.407,0.674 c-0.047,0.173-0.063,0.188-0.188,0.22c0.58,0.407,0.768,0.549,1.441,1.081c0.063,0.063,0.094,0.11,0.094,0.142 c0,0.047-0.079,0.094-0.172,0.094H285.711z M280.508,12.411c-1.253,0.752-2.899,1.613-4.215,2.225 c-0.062,0.486-0.141,0.674-0.282,0.674c-0.172,0-0.298-0.313-0.894-2.193c1.52-0.047,3.417-0.36,5.359-0.878L280.508,12.411z M275.917,8.822c2.116,0.423,2.993,0.877,2.993,1.52c0,0.627-0.455,1.27-0.893,1.27c-0.172,0-0.267-0.062-0.376-0.219 c-0.031-0.048-0.031-0.048-0.25-0.471c-0.423-0.783-0.846-1.332-1.551-1.943L275.917,8.822z M280.978,17.253 c-0.501,0.752-0.689,1.019-1.238,1.755c1.253,0.126,1.739,0.188,2.727,0.345c0.658-0.658,0.972-1.144,1.426-2.1H280.978z M286.275,16.924c0.267-0.267,0.627-0.627,1.097-1.081c-1.85-0.784-3.041-2.413-3.432-4.639 c-0.219,1.191-0.799,2.226-1.708,3.009c-0.517,0.438-1.019,0.736-1.896,1.097c1.959,0.313,2.038,0.329,2.038,0.518 c0,0.156-0.204,0.251-0.706,0.298c-0.25,0.407-0.297,0.485-0.485,0.799H286.275z"/><path fill="#040000" d="M297.009,19.181c1.222,0.611,1.943,0.893,2.256,0.893c0.329,0,0.549-0.203,0.815-0.752 c0.658-1.332,1.144-3.369,1.144-4.764c0-0.909-0.251-1.27-0.909-1.27c-0.392,0-0.752,0.078-1.379,0.282 c-1.489,3.636-2.351,5.704-2.554,6.206c-0.721,1.661-1.003,2.053-1.442,2.053c-0.438,0-0.736-0.596-0.736-1.474 c0-0.548,0.078-0.768,0.455-1.128c0.736-0.768,1.614-2.366,2.852-5.234c-0.878,0.376-1.301,0.58-1.708,0.831 c-0.235,0.141-0.329,0.172-0.47,0.172c-0.282,0-0.596-0.219-0.878-0.595c-0.313-0.455-0.533-1.035-0.533-1.442 c0-0.125,0.016-0.219,0.094-0.407c0.329,0.689,0.736,0.972,1.379,0.972c0.408,0,1.175-0.157,2.414-0.471 c0.329-0.939,0.548-1.911,0.548-2.507c0-0.643-0.376-1.034-1.27-1.332c0.267-0.141,0.392-0.173,0.611-0.173 c0.345,0,0.924,0.095,1.363,0.235c0.893,0.282,1.363,0.643,1.363,1.065c0,0.142-0.047,0.282-0.204,0.533 c-0.329,0.501-0.501,0.847-0.972,1.943c0.533-0.11,0.784-0.142,1.144-0.142c0.752,0,1.348,0.235,1.692,0.705 c0.376,0.486,0.517,1.082,0.517,2.147c0,1.928-0.721,4.388-1.583,5.453c-0.517,0.643-1.238,1.019-1.959,1.019 c-0.235,0-0.439-0.094-0.533-0.25c-0.079-0.126-0.079-0.126-0.11-0.596c-0.031-0.36-0.47-0.894-1.52-1.803L297.009,19.181z M303.716,12.614c1.301,0.235,2.225,0.705,3.087,1.552c0.784,0.783,1.207,1.708,1.207,2.664c0,0.972-0.408,1.551-1.097,1.551 c-0.251,0-0.423-0.078-0.689-0.313c-0.345-0.312-0.643-0.36-2.414-0.376l-0.031-0.141c1.285-0.345,2.021-0.564,2.304-0.705 c0.078-0.047,0.11-0.109,0.11-0.235c0-0.329-0.188-1.065-0.408-1.552c-0.486-1.112-1.144-1.802-2.147-2.271L303.716,12.614z M304.39,10.248c0.611,0.142,1.191,0.345,1.708,0.611c0.721,0.376,0.956,0.658,0.956,1.128c0,0.439-0.251,0.8-0.548,0.8 c-0.173,0-0.298-0.11-0.486-0.455c-0.423-0.799-1.035-1.504-1.708-1.959L304.39,10.248z M305.659,9.12 c0.784,0.094,1.426,0.282,1.975,0.563c0.533,0.282,0.721,0.533,0.721,0.956c0,0.424-0.22,0.784-0.47,0.784 c-0.141,0-0.251-0.095-0.408-0.377c-0.501-0.783-1.112-1.395-1.865-1.817L305.659,9.12z"/><path fill="#040000" d="M316.973,19.353h0.626c0.392-0.501,0.518-0.643,0.925-1.112c0.58,0.502,0.752,0.658,1.316,1.191 l0.047,0.062c0.548-1.599,0.689-2.993,0.689-6.849c0-2.68-0.016-3.307-0.094-4.246c0.877,0.407,1.128,0.532,1.958,0.987h1.912 c0.36-0.424,0.47-0.549,0.862-0.956c0.533,0.407,0.705,0.532,1.222,0.956c0.157,0.125,0.22,0.203,0.22,0.266 c0,0.126-0.125,0.235-0.486,0.455v6.895c0,0.376,0,0.518,0.016,2.194c0.016,0.407,0.016,0.987,0.016,1.724 c0.016,0.047,0.016,0.109,0.016,0.125c0,0.706-0.329,1.082-1.175,1.363c-0.313,0.095-0.721,0.173-0.972,0.173 c-0.172,0-0.219-0.047-0.235-0.282c-0.016-0.407-0.204-0.705-0.549-0.925c-0.282-0.172-0.595-0.281-1.771-0.595l0.031-0.188 c1.113,0.078,1.489,0.078,2.695,0.109c0.172,0,0.219-0.047,0.219-0.188v-3.651h-2.444c-0.204,1.379-0.596,2.429-1.27,3.432 c-0.626,0.925-1.253,1.552-2.554,2.477l-0.125-0.126c0.894-1.112,1.316-1.833,1.74-2.978l-0.094,0.016h-2.742v0.22 c0,1.019,0,1.661,0.031,2.413c0,0.142-0.016,0.188-0.063,0.251c-0.125,0.125-0.501,0.188-1.112,0.188 c-0.47,0-0.58-0.048-0.58-0.251c0-0.016,0-0.047,0-0.062c0.032-1.316,0.047-2.147,0.047-2.477v-0.282h-1.975 c-0.408,0-0.611,0.031-0.956,0.126l-0.094-0.596c0.345,0.094,0.674,0.141,1.05,0.141h1.975v-2.084h-0.564v0.392 c-0.016,0.235-0.219,0.282-1.081,0.282c-0.517,0-0.596-0.047-0.596-0.36c0.031-1.159,0.047-1.646,0.047-2.773 c0-1.896-0.016-2.304-0.079-3.071c0.752,0.345,0.972,0.47,1.677,0.861h0.596v-1.864h-1.849c-0.361,0-0.674,0.031-0.972,0.094 l-0.094-0.549c0.376,0.078,0.705,0.126,1.05,0.126h1.865V9.935c0-0.705-0.016-1.019-0.079-1.692 c0.47,0.047,0.846,0.078,1.082,0.109c1.003,0.095,1.3,0.173,1.3,0.361c0,0.141-0.157,0.234-0.626,0.407v1.285h0.893 c0.407-0.502,0.533-0.658,0.956-1.145c0.611,0.549,0.799,0.705,1.379,1.27c0.047,0.062,0.078,0.094,0.078,0.125 c0,0.047-0.047,0.079-0.109,0.079h-3.197v1.864h0.58c0.36-0.392,0.47-0.501,0.831-0.877c0.517,0.392,0.674,0.517,1.16,0.908 c0.141,0.126,0.204,0.204,0.204,0.282c0,0.125-0.141,0.235-0.517,0.407c0,2.711,0,2.711,0.047,4.043 c0.016,0.016,0.016,0.031,0.016,0.048c0,0.141-0.063,0.234-0.22,0.281c-0.157,0.063-0.689,0.126-1.034,0.126 c-0.329,0-0.407-0.031-0.423-0.173v-0.376h-0.642V19.353z M317.615,14.667v-1.739h-2.883v1.739H317.615z M314.732,14.996v1.943 h2.883v-1.943H314.732z M322.223,13.21c0,0.156,0,0.156,0,0.423c-0.016,1.003-0.047,1.834-0.157,2.899h2.397V13.21H322.223z M324.463,12.881V9.716h-2.209c0.016,0.376,0.016,0.674,0.016,0.893c0,0.047-0.016,1.003-0.031,2.272H324.463z"/><path fill="#040000" d="M332.268,11.486c0.345,0.83,0.454,1.395,0.454,2.366c0,1.254-0.454,2.131-1.097,2.131 c-0.345,0-0.658-0.517-0.658-1.097c0-0.329,0-0.329,0.501-0.894c0.407-0.454,0.627-1.206,0.627-2.146 c0-0.047,0-0.204-0.016-0.345L332.268,11.486z M330.982,22.44c0.925-1.427,1.332-2.398,1.692-4.012 c0.392-1.74,0.517-3.479,0.517-7.24c0-1.223-0.016-1.818-0.078-2.853c0.47,0.031,0.862,0.079,1.097,0.095 c0.94,0.078,1.207,0.156,1.207,0.329c0,0.141-0.188,0.25-0.626,0.392c0,0.972,0,0.972-0.063,4.059 c0.376-0.627,0.643-1.238,0.862-1.928c0.297,0.204,0.533,0.36,0.674,0.471c0.297,0.25,0.501,0.392,0.517,0.423 c0.141,0.078,0.172,0.125,0.172,0.188c0,0.095-0.11,0.142-0.313,0.142c-0.047,0-0.094,0-0.172,0 c-0.22,0.156-0.376,0.251-0.486,0.329c-0.643,0.454-0.846,0.58-1.27,0.799c-0.047,1.771-0.141,2.774-0.313,3.589 c1.646,0.814,2.131,1.254,2.131,1.928c0,0.596-0.486,1.237-0.956,1.237c-0.25,0-0.345-0.172-0.438-0.783 c-0.157-0.972-0.36-1.536-0.799-2.115c-0.219,0.861-0.517,1.614-0.909,2.351c-0.533,0.987-1.082,1.63-2.304,2.727L330.982,22.44 z M339.539,16.814c-0.062,0.799-0.078,0.908-0.157,1.332c-0.345,1.708-1.144,2.82-2.617,3.651 c-0.752,0.423-1.426,0.674-2.711,0.987l-0.078-0.188c1.943-0.987,2.868-1.865,3.4-3.149c0.313-0.753,0.455-1.536,0.501-2.633 h-1.395c-0.439,0-0.658,0.016-0.972,0.094l-0.11-0.533c0.392,0.079,0.627,0.11,1.066,0.11h0.517v-2.508h-0.643 c-0.36,0-0.627,0.031-0.909,0.095l-0.094-0.518c0.392,0.078,0.596,0.094,1.003,0.094h0.643v-0.485c0-0.815,0-1.003-0.047-1.583 c1.958,0.188,2.1,0.22,2.1,0.407c0,0.095-0.109,0.173-0.455,0.298v1.363h3.229v-0.689c0-0.611,0-0.814-0.047-1.316 c1.896,0.126,2.179,0.173,2.179,0.376c0,0.126-0.11,0.188-0.518,0.36v1.27h0.345l0.878-0.956 c0.548,0.455,0.705,0.596,1.207,1.051c0.062,0.062,0.078,0.109,0.078,0.141c0,0.062-0.062,0.094-0.188,0.094h-2.319v2.508h0.251 l0.862-0.956c0.548,0.454,0.705,0.596,1.191,1.05c0.063,0.062,0.079,0.109,0.079,0.141c0,0.063-0.063,0.095-0.188,0.095h-3.385 v3.808c0,0.36,0,0.36,0.846,0.36c0.706,0,0.862-0.047,1.019-0.251c0.188-0.266,0.408-0.83,1.019-2.711l0.156,0.016l-0.109,2.21 c0,0.031,0,0.078,0,0.094c0,0.235,0.047,0.298,0.329,0.439c0.282,0.125,0.423,0.345,0.423,0.595 c0,0.313-0.157,0.596-0.438,0.753c-0.36,0.203-1.097,0.298-2.257,0.298c-1.332,0-1.849-0.048-2.115-0.188 c-0.313-0.157-0.423-0.376-0.439-0.894v-4.528H339.539z M342.767,10.342c0.564-0.579,0.564-0.579,1.082-1.144 c0.689,0.533,0.909,0.705,1.536,1.254c0.047,0.047,0.062,0.094,0.062,0.125c0,0.047-0.078,0.094-0.172,0.094h-4.184 c0,1.238,0,1.238,0.016,1.881c-0.016,0.313-0.251,0.392-1.066,0.392c-0.533,0-0.627-0.047-0.627-0.282 c0.032-0.846,0.032-0.846,0.047-1.99h-2.429c-0.423,0-0.58,0.016-0.956,0.079l-0.094-0.518c0.345,0.078,0.658,0.109,1.05,0.109 h2.429c0-0.219,0-0.219,0-0.783c0-0.376-0.016-0.658-0.063-1.207c1.818,0.157,1.943,0.173,2.147,0.235 c0.125,0.047,0.204,0.109,0.204,0.188c0,0.125-0.157,0.219-0.658,0.392c0,0.438,0,0.58,0,0.861v0.313H342.767z M341.811,13.978 h-3.229v2.508h3.229V13.978z"/><path fill="#040000" d="M354.943,15.153c-0.658,2.978-0.815,3.854-0.815,4.388c0,0.125,0,0.125,0.094,0.768 c0.016,0.11,0.016,0.22,0.016,0.329c0,0.564-0.298,0.94-0.768,0.94c-0.313,0-0.596-0.156-0.831-0.502 c-0.611-0.814-0.987-2.476-0.987-4.34c0-1.003,0.11-2.054,0.345-3.464c0.235-1.41,0.282-1.833,0.282-2.272 c0-0.563-0.172-1.019-0.611-1.613c1.097,0.109,2.414,1.441,2.414,2.429c0,0.282-0.063,0.47-0.298,0.987 c-0.596,1.348-0.925,2.789-0.925,4.137c0,0.847,0.094,1.363,0.345,1.881c0.141-0.329,0.141-0.329,0.376-0.894 c0.329-0.799,0.329-0.799,0.893-2.131c0.094-0.22,0.188-0.455,0.298-0.689L354.943,15.153z M355.71,12.646 c0.596,0.455,1.082,0.627,1.771,0.627c0.736,0,1.489-0.109,2.272-0.329c-0.016-1.285-0.094-2.225-0.204-2.554 c-0.188-0.518-0.517-0.737-1.504-0.987c0.298-0.251,0.549-0.313,1.16-0.313c0.721,0,1.52,0.172,1.928,0.407 c0.282,0.172,0.423,0.376,0.423,0.643c0,0.172,0,0.203-0.157,0.674c-0.094,0.282-0.141,0.736-0.172,1.677 c0.706-0.251,0.956-0.376,1.348-0.721c0.094-0.079,0.204-0.11,0.329-0.11c0.251,0,0.58,0.095,0.815,0.235 c0.267,0.141,0.392,0.313,0.392,0.533c0,0.016,0,0.016,0,0.031c-0.016,0.267-0.235,0.47-0.831,0.721 c-0.439,0.188-0.737,0.267-2.021,0.611v0.721l0.016,1.896c0,1.942-0.36,3.243-1.191,4.262c-0.737,0.894-1.63,1.489-3.213,2.101 l-0.109-0.157c1.128-0.83,1.677-1.473,2.163-2.476c0.611-1.27,0.877-2.884,0.877-5.406c0-0.157,0-0.361-0.016-0.69 c-0.674,0.11-1.034,0.157-1.442,0.157c-1.207,0-1.99-0.392-2.773-1.41L355.71,12.646z"/><path fill="#040000" d="M373.48,15.42c-0.705,2.898-0.862,3.714-0.862,4.388c0,0.156,0,0.156,0.062,0.579 c0.016,0.048,0.016,0.126,0.016,0.22c0,0.313-0.047,0.549-0.125,0.689c-0.141,0.235-0.392,0.376-0.674,0.376 c-0.408,0-0.752-0.282-0.987-0.83c-0.392-0.878-0.596-2.084-0.596-3.448c0-1.332,0.125-2.287,0.627-4.653 c0.251-1.145,0.313-1.536,0.313-1.912c0-0.549-0.141-0.972-0.517-1.505c0.455,0.047,0.877,0.313,1.395,0.894 c0.611,0.689,0.909,1.27,0.909,1.755c0,0.267-0.063,0.439-0.361,0.987c-0.814,1.505-1.191,2.821-1.191,4.169 c0,0.643,0.063,1.081,0.235,1.63c0.407-0.815,0.501-1.019,0.658-1.38c0.768-1.677,0.768-1.677,0.924-2.021L373.48,15.42z M375.251,16.203c-0.031,0.36-0.047,0.517-0.047,0.689c0,0.814,0.219,1.395,0.689,1.802c0.517,0.439,1.222,0.627,2.382,0.627 c0.47,0,0.956-0.047,1.426-0.109c0.361-0.062,0.361-0.062,0.894-0.267c0.109-0.047,0.219-0.062,0.313-0.062 c0.282,0,0.705,0.204,1.003,0.501c0.266,0.251,0.376,0.471,0.376,0.722c0,0.674-0.721,0.908-2.821,0.908 c-3.134,0-4.686-1.065-4.686-3.212c0-0.58,0.078-1.05,0.282-1.646L375.251,16.203z M375.032,11.235 c0.533,0.345,0.877,0.438,1.457,0.438c0.987,0,2.445-0.345,3.197-0.752c0.313-0.172,0.329-0.172,0.501-0.172 c0.596,0,1.379,0.658,1.379,1.175c0,0.36-0.188,0.502-0.846,0.596c-0.721,0.109-1.207,0.235-1.881,0.47 c-1.222,0.424-1.692,0.627-2.444,1.082l-0.11-0.142c0.533-0.501,1.238-1.128,1.442-1.301c-0.157,0-0.282,0-0.361,0 c-1.05,0-1.802-0.376-2.46-1.27L375.032,11.235z"/><path fill="#040000" d="M393.978,9.418h-3.542c-0.438,0-0.58,0.016-1.019,0.078l-0.062-0.549 c0.36,0.094,0.752,0.142,1.065,0.142h7.601c0.454-0.486,0.595-0.627,1.034-1.082c0.721,0.486,0.956,0.643,1.692,1.176 c0.062,0.062,0.078,0.094,0.078,0.141s-0.062,0.095-0.157,0.095h-5.062v1.034h4.027c0.329-0.345,0.423-0.439,0.784-0.769 c0.721,0.486,0.94,0.643,1.583,1.129c0.141,0.109,0.204,0.188,0.204,0.267c0,0.172-0.204,0.25-0.878,0.281 c-0.658,0.518-0.956,0.722-1.771,1.223l-0.11-0.062l0.094-0.282h-2.68c-0.251,0-0.423,0.016-0.799,0.047l-0.063-0.47 c0.329,0.062,0.58,0.094,0.862,0.094h0.846c0.329-0.36,0.423-0.485,0.736-0.83c0.501,0.407,0.643,0.532,1.128,0.939l0.031,0.048 c0.141-0.486,0.188-0.722,0.267-1.285h-4.263v1.112c0,0.847,0.016,1.441,0.031,1.975c0,0.188-0.062,0.251-0.219,0.313 c-0.141,0.047-0.643,0.109-0.956,0.109c-0.407,0-0.517-0.062-0.517-0.298c0-0.407,0-0.407,0.016-0.893 c0.016-0.596,0.016-0.784,0.016-1.16v-1.159h-4.293c0.031,0.234,0.031,0.266,0.031,0.454c0,1.238-0.501,2.115-1.222,2.115 c-0.439,0-0.752-0.47-0.752-1.128c0-0.235,0.11-0.376,0.407-0.518c0.768-0.36,1.113-0.893,1.175-1.849h0.188 c0.062,0.282,0.078,0.376,0.125,0.596h4.341V9.418z M390.452,17.175v1.441h2.131c0.313-0.392,0.423-0.501,0.752-0.877 c0.518,0.407,0.69,0.548,1.207,1.003c0.031,0.047,0.062,0.094,0.062,0.125c0,0.047-0.062,0.078-0.125,0.078h-4.027v1.567h2.084 c0.298-0.313,0.58-0.627,0.877-0.925c0.58,0.438,0.768,0.58,1.332,1.05c0.047,0.062,0.062,0.094,0.062,0.126 c0,0.047-0.047,0.078-0.109,0.078h-4.247v1.599c-0.047,0.281-0.313,0.36-1.144,0.36c-0.407,0-0.501-0.079-0.517-0.345 c0.079-1.27,0.094-2.602,0.094-5.548c0-1.301-0.016-1.912-0.062-2.993c0.814,0.345,1.05,0.47,1.833,0.925h2.116 c0.298-0.313,0.392-0.407,0.705-0.705c0.533,0.345,0.689,0.454,1.175,0.783c0.11,0.078,0.157,0.141,0.157,0.204 c0,0.094-0.094,0.188-0.376,0.36c0,0.188,0,0.282,0,0.407c0,0.204,0,0.235,0.031,1.395c0,0.282-0.235,0.36-1.112,0.36 c-0.361,0-0.455-0.062-0.47-0.234v-0.235H390.452z M389.559,13.257c0.345,0.078,0.533,0.109,0.784,0.109h1.348 c0.313-0.36,0.407-0.454,0.736-0.799c0.501,0.376,0.658,0.485,1.144,0.925c0.047,0.047,0.062,0.078,0.062,0.109 c0,0.062-0.078,0.094-0.204,0.094h-3.071c-0.329,0-0.47,0.016-0.721,0.048L389.559,13.257z M390.06,11.815 c0.298,0.062,0.501,0.078,0.799,0.078h0.831c0.313-0.329,0.423-0.438,0.721-0.768c0.501,0.376,0.643,0.501,1.128,0.893 c0.062,0.063,0.078,0.095,0.078,0.11c0,0.062-0.062,0.094-0.172,0.094h-2.57c-0.267,0-0.439,0.016-0.752,0.062L390.06,11.815z M392.881,15.169h-2.429v1.677h2.429V15.169z M398.914,14.777c0.36-0.329,0.486-0.439,0.846-0.784 c0.548,0.36,0.705,0.486,1.207,0.847c0.125,0.109,0.172,0.172,0.172,0.235c0,0.109-0.125,0.219-0.47,0.392 c-0.016,0.282-0.016,0.501-0.016,0.643c0,0.188,0,0.219,0.031,1.128c0,0.282-0.094,0.329-0.877,0.376 c0.548,0.392,0.689,0.502,1.223,0.925c0.141,0.125,0.204,0.204,0.204,0.282c0,0.156-0.172,0.219-0.705,0.267 c-0.706,0.736-1.05,1.034-1.677,1.504c0.846,0.22,1.865,0.329,3.071,0.329c0.141,0,0.282,0,0.517-0.016v0.172 c-0.596,0.267-1.003,0.784-1.113,1.38c-0.031,0.188-0.078,0.234-0.188,0.234c-0.141,0-0.407-0.047-0.689-0.125 c-1.081-0.282-1.959-0.689-2.742-1.27c-1.426,0.783-2.805,1.176-5.109,1.505l-0.047-0.204c1.865-0.596,3.056-1.159,4.31-2.037 c-0.596-0.643-0.94-1.176-1.301-1.99c-0.298,0.016-0.392,0.016-0.674,0.062l-0.079-0.485c0.392,0.078,0.596,0.094,0.972,0.094 h3.134c0.298-0.251,0.298-0.251,0.721-0.627c-0.47,0-0.533-0.031-0.548-0.267v-0.345h-2.758c-0.423,0-0.595,0.016-0.971,0.062 l-0.079-0.485c0.392,0.078,0.596,0.094,1.05,0.094h2.758v-1.566h-2.743c-0.407,0-0.58,0.016-0.924,0.047l-0.079-0.486 c0.423,0.095,0.596,0.11,0.987,0.11H398.914z M395.843,18.569c0.36,0.627,0.814,1.034,1.661,1.488 c0.564-0.501,0.846-0.783,1.411-1.488H395.843z M396.015,13.272c0.329,0.078,0.517,0.094,0.846,0.094h1.41 c0.329-0.36,0.439-0.47,0.768-0.83c0.548,0.392,0.705,0.517,1.207,0.94c0.047,0.062,0.062,0.094,0.062,0.125 c0,0.047-0.062,0.094-0.141,0.094h-3.291c-0.267,0-0.439,0.016-0.799,0.048L396.015,13.272z"/><path fill="#040000" d="M420.68,16.094c-0.235,1.551-0.706,2.805-1.458,3.854c-0.877,1.238-2.147,1.975-3.417,1.975 c-0.783,0-1.426-0.282-1.771-0.752c-0.267-0.392-0.408-0.847-0.47-1.661c-0.031-0.204-0.031-0.204-0.062-1.05 c-0.079-1.411-0.392-1.928-1.191-1.928c-0.721,0-1.442,0.501-2.1,1.441c-0.611,0.894-0.893,1.521-1.41,3.135 c-0.173,0.501-0.376,0.721-0.721,0.721c-0.282,0-0.517-0.204-0.674-0.58c-0.141-0.329-0.25-0.83-0.25-1.112 c0-0.376,0.062-0.518,0.47-1.05c0.658-0.847,1.959-3.213,3.134-5.673c0.752-1.599,1.113-2.617,1.113-3.135 c0-0.532-0.36-0.925-1.175-1.254c0.25-0.125,0.376-0.156,0.611-0.156c0.548,0,1.332,0.298,2.068,0.768 c0.533,0.36,0.784,0.674,0.784,1.034c0,0.235-0.063,0.36-0.376,0.689c-0.313,0.345-0.454,0.564-1.175,1.692 c-1.097,1.756-1.097,1.756-1.755,2.837c-0.486,0.814-0.486,0.814-0.752,1.254h0.016c0.972-0.862,1.771-1.254,2.555-1.254 c0.846,0,1.536,0.423,1.896,1.175c0.188,0.393,0.235,0.58,0.392,1.63c0.125,0.753,0.235,1.098,0.455,1.285 c0.172,0.142,0.392,0.204,0.658,0.204c0.752,0,1.677-0.455,2.507-1.223c0.877-0.83,1.442-1.677,1.928-2.915L420.68,16.094z"/><path fill="#040000" d="M427.261,12.191c0.501,0,1.066-0.125,4.216-0.925c0.783-0.203,1.332-0.329,3.479-0.799 c0.626-0.142,0.814-0.204,1.269-0.407c0.219-0.095,0.423-0.142,0.596-0.142c0.282,0,0.783,0.188,1.16,0.438 c0.407,0.267,0.611,0.564,0.611,0.862c0,0.376-0.298,0.611-0.768,0.611c-0.094,0-0.235-0.016-0.408-0.031 c-0.204-0.016-0.266-0.016-0.454-0.016c-1.442,0-2.79,0.627-3.761,1.771c-0.815,0.909-1.238,1.99-1.238,3.071 c0,1.332,0.689,2.366,1.896,2.821c0.392,0.156,0.877,0.25,1.253,0.25c0.032,0,0.079,0,0.172-0.016c0.063,0,0.11,0,0.157,0 c0.298,0,0.58,0.11,0.815,0.329c0.392,0.345,0.611,0.769,0.611,1.129c0,0.501-0.345,0.736-1.097,0.736 c-1.144,0-2.444-0.454-3.338-1.176c-1.065-0.861-1.629-2.068-1.629-3.494c0-1.332,0.642-2.758,1.755-3.934 c0.611-0.643,1.16-1.05,2.507-1.802c-1.348,0.298-2.883,0.752-4.231,1.254c-1.348,0.501-1.677,0.657-2.304,1.065 c-0.282,0.188-0.533,0.266-0.784,0.266c-0.846,0-2.037-1.488-2.037-2.522c0-0.141,0.031-0.251,0.125-0.454 C426.196,11.847,426.65,12.191,427.261,12.191z M435.739,13.163c0.564,0.188,1.16,0.423,1.661,0.705 c0.564,0.313,0.815,0.643,0.815,1.097c0,0.455-0.282,0.847-0.596,0.847c-0.141,0-0.25-0.11-0.376-0.36 c-0.517-1.082-0.862-1.536-1.598-2.147L435.739,13.163z M437.275,12.427c0.58,0.094,1.097,0.234,1.599,0.47 c0.643,0.282,0.94,0.627,0.94,1.112c0,0.455-0.251,0.831-0.549,0.831c-0.141,0-0.235-0.094-0.345-0.345 c-0.407-0.862-0.877-1.395-1.708-1.959L437.275,12.427z"/><path fill="#040000" d="M446.411,10.859c0.329,0.549,0.58,0.814,1.112,1.128c0.548,0.329,1.05,0.486,1.912,0.627 c0.423-2.241,0.423-2.241,0.423-2.711c0-0.611-0.266-1.019-0.924-1.41c0.141-0.062,0.188-0.078,0.345-0.078 c1.034,0,2.554,1.19,2.554,2.006c0,0.25-0.031,0.313-0.376,0.783c-0.079,0.109-0.282,0.47-0.376,0.674 c-0.031,0.078-0.125,0.313-0.266,0.658c-0.016,0.047-0.047,0.125-0.094,0.235c0.564,0.156,0.894,0.532,0.894,1.034 c0,0.376-0.235,0.579-0.658,0.579c-0.188,0-0.329-0.016-0.737-0.078c-0.235,0.689-0.36,1.16-0.626,2.477 c0.25,0.047,0.485,0.062,0.705,0.062c0.062,0,0.109,0,0.172-0.016c0.094-0.016,0.157-0.016,0.172-0.016 c0.423,0,1.065,0.674,1.065,1.128c0,0.36-0.282,0.564-0.783,0.564c-0.408,0-0.894-0.078-1.599-0.282 c-0.047,0.36-0.062,0.549-0.062,0.736c0,1.426,0.831,2.194,2.351,2.194c1.771,0,2.961-1.113,2.961-2.806 c0-1.332-0.736-2.68-2.1-3.808l0.125-0.157c2.507,1.27,3.714,2.728,3.714,4.482c0,2.1-1.787,3.604-4.247,3.604 c-0.909,0-1.786-0.267-2.366-0.721c-0.815-0.627-1.207-1.614-1.207-3.009c0-0.22,0.016-0.424,0.031-0.815 c-0.548-0.251-0.831-0.438-1.144-0.752c-0.486-0.471-0.752-1.065-0.752-1.63c0-0.894,0.643-1.583,1.833-2.006 c-0.689-0.298-1.113-0.627-1.536-1.191c-0.298-0.392-0.47-0.752-0.658-1.426L446.411,10.859z M447.445,14.604 c-0.188,0.188-0.298,0.438-0.298,0.689c0,0.564,0.548,1.034,1.536,1.332c0.094-0.721,0.267-1.771,0.423-2.46 C448.229,14.166,447.774,14.291,447.445,14.604z"/></g><g><path fill="#040000" d="M223.938,52.888c0.846-0.439,1.379-0.815,1.928-1.349c0.752-0.752,1.112-1.41,1.348-2.476 c-0.298,0.204-0.596,0.282-0.972,0.282c-1.191,0-2.1-1.097-2.1-2.539c0-1.473,0.94-2.522,2.226-2.522 c0.329,0,0.517,0.047,0.956,0.251c0-0.439,0-0.549,0-0.753c0-0.36,0-0.501-0.016-1.05c-2.1,0.267-3.729,0.689-4.889,1.285 c-0.11,0.047-0.298,0.094-0.455,0.094c-0.454,0-0.924-0.329-1.363-0.972c-0.298-0.438-0.486-0.908-0.486-1.222 c0-0.062,0.016-0.157,0.063-0.282c0.454,0.643,0.971,0.925,1.692,0.925c0.438,0,0.438,0,3.244-0.408 c0.643-0.078,1.097-0.141,2.163-0.266c-0.016-1.145-0.11-1.677-0.329-1.99c-0.25-0.345-0.643-0.533-1.348-0.658 c0.267-0.251,0.47-0.313,0.972-0.313c0.611,0,1.207,0.094,1.771,0.267c0.611,0.203,0.893,0.454,0.893,0.814 c0,0.156-0.031,0.267-0.157,0.501c-0.219,0.393-0.267,0.549-0.345,1.207c2.304-0.204,2.304-0.204,2.836-0.438 c0.282-0.126,0.438-0.157,0.674-0.157c0.423,0,1.113,0.298,1.52,0.643c0.204,0.188,0.282,0.345,0.282,0.596 c0,0.282-0.235,0.47-0.564,0.47c-0.141,0-0.345-0.031-0.94-0.109c-0.846-0.125-1.552-0.172-2.555-0.172 c-0.533,0-0.799,0.016-1.332,0.062c-0.062,0.799-0.109,1.864-0.109,2.444c0,0.062,0,0.188,0,0.329 c0.407,0.768,0.548,1.316,0.548,2.163c0,1.802-0.752,3.29-2.178,4.277c-0.736,0.533-1.426,0.831-2.899,1.254L223.938,52.888z M226.289,44.738c-0.626,0-1.112,0.643-1.112,1.489c0,0.987,0.47,1.677,1.16,1.677c0.611,0,0.971-0.502,0.971-1.363 C227.307,45.396,226.931,44.738,226.289,44.738z M230.253,38.345c1.739,0.564,2.429,1.034,2.429,1.677 c0,0.438-0.251,0.799-0.549,0.799c-0.141,0-0.25-0.094-0.36-0.329c-0.455-0.893-0.893-1.457-1.599-2.021L230.253,38.345z M232.149,38.047c0.768,0.157,1.473,0.407,1.912,0.674c0.438,0.282,0.595,0.518,0.595,0.909c0,0.423-0.235,0.783-0.517,0.783 c-0.141,0-0.25-0.094-0.36-0.298c-0.548-0.972-0.956-1.441-1.708-1.959L232.149,38.047z"/><path fill="#040000" d="M244.247,51.603c3.322-0.8,5.344-2.539,5.344-4.592c0-1.363-0.831-2.226-2.131-2.226 c-1.379,0-3.275,0.972-4.686,2.397c-0.219,0.22-0.438,0.329-0.689,0.329c-0.768,0-1.833-1.222-1.833-2.115 c0-0.078,0.016-0.156,0.094-0.313c0.298,0.564,0.595,0.8,0.987,0.8c0.266,0,0.533-0.079,1.441-0.471 c2.507-1.05,3.354-1.285,4.733-1.285c2.131,0,3.698,1.348,3.698,3.197c0,1.661-1.082,2.978-3.087,3.745 c-1.097,0.423-1.88,0.58-3.824,0.736L244.247,51.603z"/><path fill="#040000" d="M262.362,38.814c0.501,0,1.065,0.11,1.599,0.313c0.611,0.22,0.893,0.502,0.893,0.862 c0,0.172,0,0.172-0.172,0.533c-0.282,0.563-0.47,1.911-0.47,3.274c0,0.502,0.172,0.737,0.517,0.737 c0.235,0,0.548-0.11,1.426-0.518c0.674-0.329,1.05-0.438,1.363-0.438c0.564,0,1.034,0.454,1.034,0.987 c0,0.313-0.125,0.517-0.423,0.658c-0.172,0.094-0.172,0.094-1.567,0.423c-1.708,0.423-3.04,0.972-3.949,1.661 c-0.768,0.564-1.113,1.128-1.113,1.786c0,0.972,0.815,1.505,2.304,1.505c1.128,0,2.319-0.173,3.714-0.549 c0.235-0.078,0.376-0.094,0.533-0.094c0.408,0,0.784,0.172,1.097,0.517c0.219,0.235,0.297,0.424,0.297,0.705 c0,0.36-0.266,0.58-0.831,0.722c-0.533,0.125-1.958,0.234-3.118,0.234c-1.426,0-2.382-0.141-3.15-0.454 c-1.082-0.438-1.739-1.395-1.739-2.508c0-1.504,1.253-2.914,3.683-4.184c-0.047,0.016-0.079,0.016-0.11,0.016 c-0.298,0-0.658-0.141-0.846-0.329c-0.376-0.36-0.455-0.814-0.517-2.805c-0.063-1.505-0.094-1.818-0.204-2.085 c-0.141-0.36-0.486-0.548-1.207-0.674C261.704,38.862,261.845,38.814,262.362,38.814z"/><path fill="#040000" d="M276.434,48.75c1.16,0.267,2.1,0.58,3.071,1.05c0.925,0.455,1.348,1.019,1.348,1.85 c0,0.752-0.438,1.457-0.893,1.457c-0.11,0-0.219-0.078-0.36-0.251c-0.047-0.062-0.047-0.062-0.799-1.3 c-0.611-1.02-1.442-1.928-2.429-2.648L276.434,48.75z"/><path fill="#040000" d="M300.864,40.146c0.69,0.251,1.16,0.424,1.426,0.518c1.865-0.502,3.463-1.207,4.858-2.146 c1.583,0.971,1.975,1.253,1.975,1.41c0,0.094-0.11,0.172-0.267,0.172c-0.172,0-0.376-0.031-0.611-0.078 c-0.799,0.204-0.972,0.251-1.301,0.313c0.172,2.288,0.329,3.416,0.721,4.952c0.392,1.504,0.893,2.836,1.442,3.745 c0.313,0.518,0.533,0.799,1.05,1.332v0.188c-0.439,0.219-0.658,0.485-0.925,1.175c-0.047,0.125-0.188,0.533-0.219,0.674 c-0.031,0.078-0.047,0.125-0.094,0.125c-0.157,0-0.47-0.626-0.909-1.88c-0.94-2.617-1.332-5.501-1.426-10.233 c-0.674,0.142-0.925,0.204-1.411,0.282v9.371c0.501-0.062,0.517-0.062,1.019-0.141c-0.141-0.878-0.282-1.396-0.595-2.272 l0.157-0.094c1.395,1.724,1.943,2.68,1.943,3.354c0,0.579-0.58,1.363-1.019,1.363c-0.172,0-0.235-0.157-0.266-0.721 c-0.016-0.204-0.047-0.455-0.141-1.176c-0.627,0.298-1.191,0.533-1.896,0.799c-1.661,0.58-1.661,0.58-2.115,0.769 c-0.094,0.47-0.172,0.643-0.313,0.643c-0.094,0-0.157-0.079-0.219-0.22c-0.016-0.062-0.188-0.736-0.501-1.99 c0.156,0.016,0.219,0.016,0.345,0.016c0.438,0,1.144-0.047,2.068-0.156v-9.324c-0.329,0.031-0.596,0.062-1.348,0.125 c0,3.197-0.11,4.905-0.392,6.52c-0.345,1.974-1.395,3.745-3.197,5.359l-0.156-0.126c1.645-2.602,2.146-4.904,2.146-9.825 c0-1.145-0.016-1.896-0.062-2.586c-0.752,0.705-1.41,1.285-2.021,1.724c0.486,0.078,0.627,0.142,0.627,0.267 s-0.125,0.22-0.58,0.376v1.803c0,0,0.611-0.157,1.833-0.486l0.047,0.188c-0.642,0.454-0.877,0.595-1.88,1.144v1.63 c0,0,0,1.363,0.016,4.105c-0.031,0.878-0.313,1.254-1.175,1.489c-0.25,0.078-0.564,0.125-0.736,0.125 c-0.157,0-0.204-0.047-0.219-0.251c-0.079-0.814-0.376-1.081-1.583-1.457l0.016-0.173c0.768,0.063,1.034,0.063,1.833,0.079 c0.204-0.016,0.235-0.047,0.235-0.251v-4.466c-0.298,0.156-0.486,0.234-1.05,0.485c-0.031,0.518-0.109,0.721-0.282,0.721 c-0.157,0-0.188-0.078-0.752-2.178c0.784-0.079,1.191-0.142,2.084-0.345v-1.003c0-0.722-0.032-1.176-0.11-2.006 c0.595,0.062,0.862,0.094,1.222,0.141c0.313-0.596,0.658-1.379,0.972-2.257h-2.742c-0.455,0-0.737,0.016-1.097,0.095 l-0.11-0.564c0.439,0.109,0.784,0.141,1.207,0.141h2.711c0.36-0.36,0.486-0.485,0.862-0.846c0.596,0.438,0.768,0.58,1.301,1.003 c0.157,0.094,0.219,0.172,0.219,0.251c0,0.141-0.172,0.219-0.58,0.25L300.864,40.146z"/><path fill="#040000" d="M314.059,50.818c0.768,0.079,1.692,0.142,2.1,0.142c0.298,0,0.408-0.157,0.549-0.831 c0.172-0.721,0.25-1.535,0.25-2.382c0-0.392-0.031-1.144-0.062-1.661c-1.175,1.176-1.818,1.692-3.056,2.413l-0.11-0.125 c0.862-1.003,1.504-1.912,2.256-3.213c0.251-0.454,0.361-0.658,0.674-1.395c-0.109-0.58-0.204-0.94-0.376-1.457 c-0.752,0.627-1.332,1.003-2.429,1.599l-0.094-0.126c0.846-0.846,1.332-1.426,2.084-2.491c-0.408-0.8-0.706-1.27-1.332-2.037 l0.157-0.142c0.642,0.502,0.987,0.847,1.567,1.567c0.658-1.034,0.924-1.567,1.16-2.288c2.256,0.862,2.256,0.862,2.256,1.019 c0,0.173-0.219,0.235-0.799,0.251c-0.784,0.956-1.144,1.363-1.881,2.053c0.486,0.752,0.784,1.41,1.019,2.272 c0.298,1.081,0.501,2.711,0.501,4.168c0,1.066-0.157,2.272-0.376,2.993c-0.25,0.784-0.595,1.176-1.269,1.427 c-0.282,0.094-0.721,0.172-1.003,0.172c-0.188,0-0.251-0.047-0.251-0.251c-0.031-0.423-0.11-0.658-0.313-0.877 c-0.188-0.22-0.188-0.22-1.253-0.627L314.059,50.818z M324.213,46.901v3.243c0.893-0.094,1.081-0.125,1.99-0.282 c-0.313-0.705-0.501-1.05-0.971-1.755l0.125-0.109c2.053,1.128,3.087,2.131,3.087,3.009c0,0.752-0.548,1.552-1.065,1.552 c-0.22,0-0.313-0.11-0.423-0.564c-0.188-0.658-0.25-0.878-0.517-1.583c-2.147,0.674-2.272,0.705-6.629,1.755 c-0.125,0.518-0.188,0.643-0.329,0.643c-0.204,0-0.266-0.188-0.768-2.351c0.282,0.016,0.423,0.031,0.564,0.031 c0.329,0,2.257-0.125,3.291-0.203v-3.385h-1.724v0.595c0,0.329-0.204,0.408-1.019,0.408c-0.564,0-0.643-0.048-0.643-0.329 c0.032-2.054,0.047-2.633,0.047-3.197c0-1.614-0.031-2.602-0.11-3.432c0.831,0.36,1.082,0.501,1.849,0.956h1.599V40.57 c0-0.705-0.047-1.348-0.125-2.006c0.455,0.031,0.831,0.062,1.05,0.078c1.113,0.094,1.363,0.156,1.363,0.345 c0,0.125-0.172,0.22-0.642,0.376v2.539h1.677c0.36-0.408,0.47-0.533,0.846-0.956c0.595,0.438,0.768,0.58,1.285,1.019 c0.157,0.125,0.204,0.203,0.204,0.282c0,0.094-0.125,0.203-0.549,0.454c0,2.899,0,2.899,0.079,4.561 c0,0.203-0.047,0.298-0.204,0.345c-0.141,0.062-0.627,0.109-0.987,0.109c-0.439,0-0.517-0.047-0.533-0.267v-0.548H324.213z M322.568,46.572v-4.341h-1.724v4.341H322.568z M326.031,42.231h-1.817v4.341h1.817V42.231z"/><path fill="#040000" d="M333.819,41.526c0.705,0.721,1.175,0.939,2.037,0.939c0.392,0,0.877-0.047,1.473-0.172 c0.36-1.05,0.501-1.708,0.501-2.257c0-0.58-0.282-0.894-1.082-1.19c0.219-0.142,0.313-0.173,0.564-0.173 c0.501,0,1.113,0.156,1.693,0.423c0.58,0.267,0.799,0.502,0.799,0.815c0,0.203-0.031,0.282-0.266,0.595 c-0.188,0.251-0.204,0.267-0.815,1.474c0.909-0.329,1.081-0.407,1.442-0.689c0.297-0.235,0.392-0.282,0.626-0.282 c0.674,0,1.207,0.313,1.207,0.689c0,0.345-0.282,0.58-0.987,0.831c-0.721,0.25-1.552,0.47-2.774,0.736 c-1.316,2.993-2.116,4.779-2.382,5.344c-0.533,1.128-0.737,1.363-1.128,1.363c-0.235,0-0.392-0.11-0.548-0.36 c-0.157-0.267-0.251-0.674-0.251-1.05c0-0.439,0.063-0.58,0.392-0.94c0.831-0.862,1.833-2.508,2.585-4.231 c-0.298,0.031-0.455,0.047-0.596,0.047c-1.285,0-2.053-0.517-2.648-1.817L333.819,41.526z M342.563,42.513 c0.157,0,0.282,0,0.36,0c0.972,0,2.068,0.298,2.805,0.737c0.548,0.345,0.877,0.83,0.877,1.316c0,0.517-0.282,0.861-0.689,0.861 c-0.141,0-0.251-0.047-0.486-0.203c-0.486-0.36-0.94-0.486-1.677-0.486c-1.003,0-1.332,0.267-1.332,1.065 c0,0.533,0.11,1.27,0.423,2.743c0.956,0.266,1.771,0.61,2.272,0.986c0.486,0.361,0.752,0.847,0.752,1.396 c0,0.548-0.251,0.939-0.58,0.939c-0.188,0-0.298-0.078-0.627-0.423c-0.564-0.627-0.94-0.925-1.677-1.348 c0,0.109,0,0.204,0,0.298c0,1.301-1.019,2.068-2.758,2.068c-1.567,0-2.633-0.768-2.633-1.896c0-1.301,1.363-2.241,3.26-2.241 c0.219,0,0.407,0.016,0.643,0.047c-0.016-0.768-0.016-0.814-0.016-0.987c0-1.112,0.125-1.739,0.408-2.178 c0.423-0.658,0.972-0.925,2.633-1.316c-0.439-0.549-0.909-0.831-1.99-1.191L342.563,42.513z M340.197,49.408 c-1.301,0-2.116,0.423-2.116,1.112c0,0.533,0.517,0.847,1.458,0.847c0.815,0,1.41-0.204,1.692-0.58 c0.172-0.219,0.25-0.532,0.25-0.956c0-0.188,0-0.219-0.016-0.219C341.059,49.471,340.62,49.408,340.197,49.408z"/><path fill="#040000" d="M363.217,40.664c0.439-0.454,0.58-0.58,1.003-1.034c0.784,0.58,1.019,0.768,1.739,1.363 c0.22,0.172,0.267,0.251,0.267,0.329c0,0.125-0.204,0.235-0.455,0.235c-0.016,0-0.047,0-0.062,0 c-0.125-0.016-0.298-0.016-0.533-0.031c-1.395,0.861-1.395,0.861-1.896,1.128c0.313,0.235,0.455,0.345,0.878,0.674 c0.047,0.047,0.062,0.094,0.062,0.125c0,0.047-0.047,0.095-0.125,0.095h-4.388v2.898h3.197l1.207-1.363 c0.815,0.643,1.066,0.831,1.881,1.489c0.031,0.047,0.062,0.094,0.062,0.109c0,0.047-0.062,0.094-0.141,0.094h-6.206v0.188 c0,0.893,0.016,2.335,0.031,4.325c-0.047,0.674-0.235,0.987-0.689,1.206c-0.455,0.235-0.893,0.345-1.52,0.408 c-0.157,0.016-0.204,0.016-0.251,0.016c-0.125,0-0.141-0.031-0.157-0.267c-0.016-0.313-0.109-0.564-0.266-0.8 c-0.172-0.219-0.689-0.438-1.677-0.705l-0.611-0.141c-0.094-0.031-0.204-0.062-0.313-0.094l0.016-0.142l1.975,0.094 c0.439,0.017,0.815,0.032,1.442,0.032c0.172,0,0.219-0.048,0.219-0.188v-3.934h-4.498c-0.517,0-0.831,0.016-1.41,0.095 l-0.141-0.58c0.58,0.109,1.019,0.156,1.52,0.156h4.529v-2.898h-2.507c-0.486,0-0.768,0.016-1.301,0.094l-0.125-0.549 c0.658,0.11,0.846,0.126,1.41,0.126h5.814c0.47-0.549,0.627-0.722,1.112-1.254c0.345,0.235,0.47,0.329,0.69,0.485 c0.125-0.392,0.188-0.563,0.219-0.674c0-0.031,0.062-0.298,0.188-0.783h-9.402c0,0.078,0,0.141,0,0.172 c0,0.8-0.188,1.489-0.548,1.975c-0.298,0.408-0.596,0.596-0.94,0.596c-0.486,0-0.846-0.485-0.846-1.159 c0-0.204,0.047-0.376,0.141-0.471c0.078-0.078,0.078-0.078,0.517-0.329c0.815-0.454,1.175-1.034,1.301-2.178h0.157 c0.141,0.454,0.172,0.627,0.204,1.065h3.917v-1.112c0-0.377-0.016-0.58-0.094-1.034c0.517,0.047,0.909,0.078,1.16,0.109 c1.159,0.094,1.41,0.156,1.41,0.345c0,0.141-0.172,0.251-0.674,0.438v1.254H363.217z"/><path fill="#040000" d="M382.1,40.853c0.392-0.439,0.518-0.564,0.925-0.956c0.815,0.563,1.065,0.768,1.896,1.441 c0.11,0.109,0.157,0.188,0.157,0.251c0,0.094-0.078,0.172-0.188,0.203c-0.188,0.047-0.298,0.063-0.972,0.063 c-1.112,0.721-1.457,0.939-2.256,1.379l-0.125-0.11c0.345-0.814,0.439-1.128,0.643-1.943h-9.371 c0.016,0.157,0.016,0.173,0.016,0.313c0,0.815-0.172,1.396-0.548,1.881c0.783,0.454,0.956,0.58,1.739,1.112h2.68v-0.172 c0-1.207-0.016-1.959-0.078-2.539c2.146,0.157,2.507,0.22,2.507,0.439c0,0.156-0.172,0.266-0.674,0.423v1.849h2.805 c0.392-0.407,0.501-0.532,0.878-0.939c0.548,0.407,0.721,0.517,1.285,0.939c0.157,0.095,0.22,0.173,0.22,0.282 c0,0.142-0.079,0.204-0.564,0.407c0.016,1.567,0.016,2.241,0.016,2.915c0.016,2.413,0.016,3.213,0.063,4.294 c-0.016,0.392-0.172,0.438-1.301,0.438c-0.392,0-0.455-0.047-0.47-0.298v-0.689h-7.459v0.58 c-0.016,0.204-0.078,0.267-0.345,0.329c-0.172,0.031-0.486,0.062-0.783,0.062c-0.564,0-0.643-0.047-0.658-0.345 c0.062-1.332,0.078-2.46,0.078-5.015c0-2.24,0-2.664-0.062-3.917c-0.313,0.297-0.548,0.407-0.862,0.407 c-0.501,0-0.878-0.471-0.878-1.081c0-0.424,0.141-0.611,0.596-0.862c0.972-0.533,1.222-0.94,1.41-2.272h0.173 c0.125,0.502,0.156,0.658,0.204,1.129h3.855v-1.066c0-0.532-0.016-0.768-0.063-1.301c0.501,0.048,0.878,0.095,1.128,0.11 c1.191,0.094,1.504,0.172,1.504,0.376c0,0.188-0.235,0.313-0.768,0.407v1.474H382.1z M376.693,47.731v-2.915h-2.774v2.915 H376.693z M373.919,51.508h2.774v-3.447h-2.774V51.508z M381.379,44.816h-2.93v2.915h2.93V44.816z M378.449,48.061v3.447h2.93 v-3.447H378.449z"/><path fill="#040000" d="M391.219,42.325c0.501,0,1.066-0.125,4.216-0.925c0.783-0.203,1.332-0.329,3.479-0.799 c0.626-0.142,0.814-0.204,1.269-0.407c0.219-0.095,0.423-0.142,0.596-0.142c0.282,0,0.783,0.188,1.16,0.438 c0.407,0.267,0.611,0.564,0.611,0.862c0,0.376-0.298,0.611-0.768,0.611c-0.094,0-0.235-0.016-0.408-0.031 c-0.204-0.016-0.266-0.016-0.454-0.016c-1.442,0-2.79,0.627-3.761,1.771c-0.815,0.909-1.238,1.99-1.238,3.071 c0,1.332,0.689,2.366,1.896,2.821c0.392,0.156,0.877,0.25,1.253,0.25c0.032,0,0.079,0,0.172-0.016c0.063,0,0.11,0,0.157,0 c0.298,0,0.58,0.11,0.815,0.329c0.392,0.345,0.611,0.769,0.611,1.129c0,0.501-0.345,0.736-1.097,0.736 c-1.144,0-2.444-0.454-3.338-1.176c-1.065-0.861-1.629-2.068-1.629-3.494c0-1.332,0.642-2.758,1.755-3.934 c0.611-0.643,1.16-1.05,2.507-1.802c-1.348,0.298-2.883,0.752-4.231,1.254c-1.348,0.501-1.677,0.657-2.304,1.065 c-0.282,0.188-0.533,0.266-0.784,0.266c-0.846,0-2.037-1.488-2.037-2.522c0-0.141,0.031-0.251,0.125-0.454 C390.154,41.98,390.608,42.325,391.219,42.325z M399.697,43.297c0.564,0.188,1.16,0.423,1.661,0.705 c0.564,0.313,0.815,0.643,0.815,1.097c0,0.455-0.282,0.847-0.596,0.847c-0.141,0-0.25-0.11-0.376-0.36 c-0.517-1.082-0.862-1.536-1.598-2.147L399.697,43.297z M401.233,42.561c0.58,0.094,1.097,0.234,1.599,0.47 c0.643,0.282,0.94,0.627,0.94,1.112c0,0.455-0.251,0.831-0.549,0.831c-0.141,0-0.235-0.094-0.345-0.345 c-0.407-0.862-0.877-1.395-1.708-1.959L401.233,42.561z"/><path fill="#040000" d="M407.814,52.746c1.128-0.392,1.442-0.517,1.896-0.752c1.222-0.643,2.021-1.521,2.539-2.758 c0.25-0.611,0.329-1.003,0.392-1.677c0.455,0.094,0.815,0.156,1.034,0.188c0.987,0.157,1.316,0.251,1.316,0.423 c0,0.157-0.172,0.251-0.611,0.329c-0.361,0.987-0.596,1.458-0.956,1.943c-0.721,0.987-1.755,1.661-3.244,2.1 c-0.721,0.204-1.207,0.298-2.319,0.408L407.814,52.746z M417.405,50.584c0,0.266,0.016,0.329,0.078,0.36 c0.094,0.062,0.47,0.094,1.316,0.094c0.016,0,0.094,0,0.172,0c0.313-0.016,0.548-0.016,0.721-0.016c0.047,0,0.094,0,0.125,0 c0.501,0.016,0.689-0.094,0.846-0.423c0.204-0.439,0.548-1.521,0.972-2.962l0.172,0.016l-0.125,2.695c0,0.062,0,0.109,0,0.156 c0,0.204,0.047,0.251,0.251,0.313c0.376,0.11,0.548,0.329,0.548,0.705c0,0.408-0.267,0.737-0.705,0.862 c-0.36,0.109-1.082,0.141-2.915,0.141c-2.241,0-2.46-0.016-2.773-0.219c-0.313-0.204-0.408-0.455-0.423-1.034 c0.016-1.27,0.016-1.27,0.016-1.411v-2.569h-3.479v0.36c0,0.313-0.204,0.376-1.175,0.376c-0.58,0-0.626-0.031-0.642-0.329 c0.062-2.602,0.078-3.542,0.078-5.517c0-1.911-0.016-2.616-0.078-3.729c0.877,0.36,1.144,0.502,1.99,0.987h5.532 c0.392-0.423,0.517-0.548,0.94-0.94c0.564,0.393,0.737,0.518,1.254,0.925c0.157,0.126,0.219,0.22,0.219,0.298 c0,0.126-0.11,0.22-0.501,0.454v1.803c0,2.021,0.031,4.027,0.079,5.453c0,0.392-0.204,0.471-1.144,0.471 c-0.58,0-0.658-0.031-0.658-0.267v-0.345h-0.689V50.584z M418.095,39.771h-5.893v2.132h5.893V39.771z M412.202,42.231v2.115 h5.893v-2.115H412.202z M412.202,44.676v2.288h5.893v-2.288H412.202z"/><path fill="#040000" d="M432.229,51.022c2.053-0.564,3.729-1.395,4.874-2.429c1.019-0.909,1.599-2.147,1.599-3.448 c0-1.582-1.097-2.68-2.68-2.68c-1.348,0-2.883,0.627-4.513,1.865c-0.706,0.517-0.925,0.705-1.364,1.159 c-0.204,0.235-0.486,0.345-0.783,0.345c-0.987,0-2.288-1.363-2.288-2.397c0-0.125,0.031-0.219,0.11-0.392 c0.345,0.611,0.689,0.878,1.144,0.878c0.408,0,1.003-0.188,1.928-0.596c2.695-1.223,4.168-1.63,5.83-1.63 c2.695,0,4.56,1.599,4.56,3.887c0,2.021-1.301,3.698-3.636,4.654c-1.363,0.563-2.664,0.83-4.732,0.971L432.229,51.022z"/><path fill="#040000" d="M447.868,40.57c1.285,0.643,1.802,1.301,2.147,2.805c1.081-0.564,1.818-0.799,3.15-0.972 c0.172-0.861,0.235-1.363,0.235-1.817c0-0.455-0.204-0.627-0.752-0.627c-0.141,0-0.235,0-0.454,0.031l-0.031-0.141 c0.595-0.329,0.893-0.439,1.285-0.439c0.423,0,0.956,0.188,1.27,0.455c0.266,0.219,0.376,0.47,0.376,0.768 c0,0.313-0.141,1.019-0.376,1.755c2.68,0.235,4.529,2.068,4.529,4.482c0,1.974-1.144,3.557-3.26,4.466 c-1.003,0.438-2.068,0.674-3.745,0.814l-0.031-0.156c2.084-0.674,3.087-1.254,3.996-2.335c0.768-0.94,1.175-2.037,1.175-3.26 c0-1.144-0.376-2.1-1.097-2.727c-0.486-0.423-0.972-0.627-1.739-0.721c-0.752,2.068-1.583,3.667-2.68,5.155 c0.172,0.282,0.25,0.376,0.517,0.674c0.439,0.486,0.533,0.658,0.533,0.925c0,0.298-0.235,0.501-0.564,0.501 c-0.423,0-0.925-0.328-1.473-0.986c-0.313,0.376-0.737,0.752-1.254,1.112c-0.548,0.392-0.94,0.549-1.332,0.549 c-0.47,0-0.721-0.282-0.814-0.894c-0.079-0.518-0.125-0.627-0.501-1.003c-0.313-0.329-0.486-0.721-0.486-1.129 c0-0.642,0.282-1.441,0.721-2.115c0.455-0.674,0.972-1.19,1.833-1.817c-0.36-1.959-0.564-2.461-1.316-3.244L447.868,40.57z M447.806,48.045c0,0.643,0.376,1.316,0.752,1.316c0.392,0,1.034-0.438,1.661-1.112c-0.455-1.082-0.736-2.085-0.956-3.401 C448.26,45.883,447.806,46.87,447.806,48.045z M450.626,45.554c0.157,0.517,0.313,0.939,0.611,1.551 c0.768-1.206,1.379-2.617,1.802-4.137c-1.254,0.188-1.943,0.454-2.852,1.097C450.281,44.347,450.281,44.347,450.626,45.554z"/><path fill="#040000" d="M466.594,42.263c0.502,0,1.065-0.126,4.216-0.925c0.783-0.204,1.332-0.329,3.479-0.799 c0.627-0.142,0.815-0.204,1.27-0.408c0.22-0.094,0.423-0.141,0.58-0.141c0.282,0,0.799,0.188,1.175,0.438 c0.407,0.267,0.611,0.564,0.611,0.862c0,0.376-0.298,0.611-0.768,0.611c-0.094,0-0.235-0.016-0.407-0.031 c-0.204-0.016-0.267-0.016-0.455-0.016c-1.426,0-2.773,0.626-3.761,1.755c-0.799,0.925-1.223,1.99-1.223,3.087 c0,1.332,0.689,2.366,1.881,2.82c0.392,0.157,0.894,0.251,1.254,0.251c0.031,0,0.094,0,0.172-0.016c0.062,0,0.11,0,0.157,0 c0.298,0,0.579,0.109,0.814,0.329c0.376,0.329,0.611,0.768,0.611,1.112c0,0.502-0.36,0.753-1.112,0.753 c-1.129,0-2.43-0.471-3.322-1.191c-1.066-0.846-1.63-2.068-1.63-3.479c0-1.332,0.643-2.774,1.755-3.934 c0.611-0.643,1.176-1.05,2.508-1.802c-1.364,0.297-2.884,0.752-4.231,1.253c-1.332,0.502-1.677,0.658-2.304,1.066 c-0.282,0.188-0.533,0.266-0.783,0.266c-0.847,0-2.037-1.488-2.037-2.522c0-0.157,0.031-0.251,0.125-0.455 C465.513,41.902,465.982,42.263,466.594,42.263z"/><path fill="#040000" d="M487.984,46.478c1.599-1.019,2.836-1.441,4.2-1.441c2.162,0,3.635,1.301,3.635,3.197 c0,2.351-2.225,4.074-5.249,4.074c-1.787,0-2.962-0.736-2.962-1.865c0-0.94,0.814-1.599,1.99-1.599 c1.222,0,2.162,0.611,2.805,1.818c1.081-0.564,1.63-1.474,1.63-2.711c0-1.41-0.83-2.194-2.335-2.194 c-1.065,0-2.162,0.407-3.149,1.16c-0.596,0.454-1.348,1.237-1.803,1.864c-0.267,0.36-0.298,0.407-0.438,0.502 c-0.094,0.078-0.251,0.141-0.329,0.141c-0.423,0-0.815-0.689-0.815-1.41c0-0.438,0.079-0.549,0.737-1.081 c0.814-0.674,3.024-3.071,4.168-4.545c1.505-1.928,1.505-1.928,1.505-1.975c0,0-0.016-0.016-0.031-0.016c0,0,0,0-0.016,0 c-0.048,0.031-0.142,0.062-0.313,0.126c-0.126,0.062-0.408,0.172-0.8,0.36c-0.109,0.047-0.392,0.172-0.783,0.345 c-0.518,0.234-0.518,0.234-1.176,0.548c-0.313,0.157-0.501,0.22-0.689,0.22c-0.345,0-0.674-0.235-1.003-0.736 c-0.298-0.471-0.454-0.909-0.454-1.301c0-0.173,0.031-0.313,0.141-0.564c0.313,0.768,0.784,1.176,1.363,1.176 c0.424,0,1.301-0.188,2.335-0.486c0.878-0.267,1.129-0.376,1.411-0.596c0.203-0.156,0.329-0.219,0.501-0.219 c0.016,0,0.031,0,0.031,0c0.345,0.016,0.847,0.376,1.348,0.94c0.204,0.25,0.313,0.47,0.313,0.674 c0,0.203-0.094,0.313-0.501,0.532c-0.471,0.251-0.58,0.329-1.881,1.567c-0.83,0.783-1.159,1.112-2.288,2.304 c-0.799,0.846-0.799,0.846-1.112,1.175L487.984,46.478z M489.144,49.597c-0.563,0-0.955,0.313-0.955,0.752 c0,0.58,0.736,0.987,1.786,0.987c0.345,0,0.517-0.016,1.003-0.126C490.68,50.191,489.99,49.597,489.144,49.597z"/></g><line x1="2.493" x2="133.665" y1="17.435" y2="17.435" fill="none" stroke="#040000" stroke-miterlimit="10" stroke-width=".5"/><line x1="506.336" x2="637.508" y1="47.568" y2="47.568" fill="none" stroke="#040000" stroke-miterlimit="10" stroke-width=".5"/></g></g></switch></svg>