<svg xmlns="http://www.w3.org/2000/svg" viewBox="0 0 602.03 152.57"><defs><style>.cls-1{fill:#fff}</style></defs><title>アセット 1</title><g id="レイヤー_2" data-name="レイヤー 2"><g id="レイヤー_1-2" data-name="レイヤー 1"><ellipse cx="301.03" cy="35.62" rx="35" ry="35.5"/><path d="M281.45,35.41H292V81.11h31.23V82H286.56V76.39h-.13a17.82,17.82,0,0,1-.78,1.88,8,8,0,0,1-1.52,2.13,8.92,8.92,0,0,1-2.52,1.78,8.41,8.41,0,0,1-3.72.74,12.31,12.31,0,0,1-5.4-1.23A15,15,0,0,1,268,78.4a15.91,15.91,0,0,1-3.07-4.75,14.66,14.66,0,0,1,0-11.22,14.86,14.86,0,0,1,7.31-7.79,11.8,11.8,0,0,1,5.24-1.2,9,9,0,0,1,5.75,1.75,9.46,9.46,0,0,1,3.1,4.27h.13V36.31h-5ZM270.27,67.21q0,3.36.19,6.11a15.65,15.65,0,0,0,1,4.69,6.24,6.24,0,0,0,2.33,3,8.9,8.9,0,0,0,8.57-.13,7.86,7.86,0,0,0,2.55-3,13.63,13.63,0,0,0,1.23-4.1,31.23,31.23,0,0,0,.32-4.4q0-2.52-.1-4.36a26.08,26.08,0,0,0-.36-3.26,11.2,11.2,0,0,0-.71-2.46,10.78,10.78,0,0,0-1.1-1.94,7.65,7.65,0,0,0-2.52-2.13,8.23,8.23,0,0,0-3.94-.84,6.93,6.93,0,0,0-3.72.91,6,6,0,0,0-2.26,2.59,13.54,13.54,0,0,0-1.13,4A39.47,39.47,0,0,0,270.27,67.21Z" class="cls-1"/><path d="M303.4,82c0,.43,0,.87,0,1.33s0,1,0,1.71a40.77,40.77,0,0,0,.26,4.46,13.47,13.47,0,0,0,1.13,4.2,7.86,7.86,0,0,0,2.59,3.1A7.66,7.66,0,0,0,311.86,98a11.32,11.32,0,0,0,4.69-.84,8.62,8.62,0,0,0,2.91-2A8.82,8.82,0,0,0,321,92.74q.52-1.23.78-2h1A19.09,19.09,0,0,1,322,93a9.35,9.35,0,0,1-1.74,2.65,10.62,10.62,0,0,1-3.23,2.33,12,12,0,0,1-5.27,1,16.83,16.83,0,0,1-6-1,13.63,13.63,0,0,1-4.75-3,13.41,13.41,0,0,1-3.1-4.62,15.66,15.66,0,0,1-1.1-6A14.07,14.07,0,0,1,298,78.81a15.52,15.52,0,0,1,7.72-8.08,12.83,12.83,0,0,1,9.57-.61,11.28,11.28,0,0,1,6.82,5.95,13.24,13.24,0,0,1,1.2,5.95Zm13.32-.91a12.06,12.06,0,0,0,.13-1.68V77.81a13,13,0,0,0-.42-3.62,5.94,5.94,0,0,0-1.16-2.26,4.12,4.12,0,0,0-1.81-1.2,7.22,7.22,0,0,0-2.29-.36,6.82,6.82,0,0,0-3.62.87,6.42,6.42,0,0,0-2.26,2.36A12.15,12.15,0,0,0,304,77a26.78,26.78,0,0,0-.55,4.07Z" class="cls-1"/><path d="M55.83,70.18h.3a10.16,10.16,0,0,0,.49,1.33,4.69,4.69,0,0,0,.81,1.23,4,4,0,0,0,1.24.92,4.06,4.06,0,0,0,1.78.36A2.47,2.47,0,0,0,62,73.47a2.07,2.07,0,0,0,.68-1.74,1.77,1.77,0,0,0-.53-1.46,4.18,4.18,0,0,0-1.24-.67l-2.13-.74q-.41-.14-.89-.34a3.22,3.22,0,0,1-.89-.57,2.8,2.8,0,0,1-.67-.94,3.6,3.6,0,0,1-.26-1.48,3.36,3.36,0,0,1,.3-1.42,3.62,3.62,0,0,1,2.06-1.91A4.42,4.42,0,0,1,60,61.92a4,4,0,0,1,1,.1l.64.19.49.19a1.28,1.28,0,0,0,.52.1.48.48,0,0,0,.44-.22h.3v3.12h-.3a11.94,11.94,0,0,0-.44-1.16,4.67,4.67,0,0,0-.59-1,2.39,2.39,0,0,0-.85-.68A2.69,2.69,0,0,0,60,62.31a3.15,3.15,0,0,0-2,.59,1.92,1.92,0,0,0-.72,1.57,1.54,1.54,0,0,0,.61,1.33,6.45,6.45,0,0,0,1.82.83l2,.66a5.76,5.76,0,0,1,2.1,1.2,2.64,2.64,0,0,1,.82,2A3.83,3.83,0,0,1,64.31,72a3.51,3.51,0,0,1-.85,1.24,4.33,4.33,0,0,1-1.37.86,4.87,4.87,0,0,1-1.84.33,4.68,4.68,0,0,1-1.11-.12q-.51-.12-.93-.26l-.78-.26a2,2,0,0,0-.66-.12.64.64,0,0,0-.44.12,1.13,1.13,0,0,0-.22.26h-.3Z" class="cls-1"/><path d="M84.29,68.15a5.38,5.38,0,0,1,.59-2.49,6.91,6.91,0,0,1,3.55-3.28,5.57,5.57,0,0,1,4.46,0,6.91,6.91,0,0,1,3.55,3.28A5.38,5.38,0,0,1,97,68.15a5.5,5.5,0,0,1-.55,2.42A6.78,6.78,0,0,1,93,73.89a5.86,5.86,0,0,1-4.7,0,6.78,6.78,0,0,1-3.47-3.32A5.49,5.49,0,0,1,84.29,68.15Zm2.73,0a12.65,12.65,0,0,0,.3,3.09A4.75,4.75,0,0,0,88.12,73a2.28,2.28,0,0,0,1.15.81,5.18,5.18,0,0,0,2.79,0A2.28,2.28,0,0,0,93.2,73,4.75,4.75,0,0,0,94,71.24a12.65,12.65,0,0,0,.3-3.09,14.5,14.5,0,0,0-.22-2.75,5.15,5.15,0,0,0-.67-1.8,2.59,2.59,0,0,0-1.13-1,4.48,4.48,0,0,0-3.23,0,2.58,2.58,0,0,0-1.13,1,5.14,5.14,0,0,0-.67,1.8A14.48,14.48,0,0,0,87,68.15Z" class="cls-1"/><path d="M118.82,74V54.68h-2.1V54.3h4.45V73.62h2.1V74" class="cls-1"/><path d="M145.72,67.23c0,.18,0,.37,0,.56s0,.43,0,.72a17,17,0,0,0,.11,1.89,5.64,5.64,0,0,0,.48,1.78,3.31,3.31,0,0,0,1.09,1.31,3.24,3.24,0,0,0,1.93.52,4.79,4.79,0,0,0,2-.36,3.64,3.64,0,0,0,1.23-.86,3.74,3.74,0,0,0,.67-1q.22-.52.33-.85l.41.08a7.82,7.82,0,0,1-.31.86,4,4,0,0,1-.74,1.12,4.48,4.48,0,0,1-1.37,1,5.06,5.06,0,0,1-2.23.42,7.13,7.13,0,0,1-2.53-.44,5.77,5.77,0,0,1-2-1.26,5.68,5.68,0,0,1-1.31-2,6.61,6.61,0,0,1-.46-2.53,6,6,0,0,1,.48-2.34,6.56,6.56,0,0,1,3.27-3.42,5.42,5.42,0,0,1,4-.26,4.84,4.84,0,0,1,1.63.89,4.89,4.89,0,0,1,1.26,1.63,5.6,5.6,0,0,1,.51,2.51Zm5.63-.38a5.09,5.09,0,0,0,.05-.71v-.68a5.51,5.51,0,0,0-.18-1.53,2.5,2.5,0,0,0-.49-1,1.74,1.74,0,0,0-.77-.51,3.05,3.05,0,0,0-1-.15,2.88,2.88,0,0,0-1.53.37,2.72,2.72,0,0,0-1,1,5.14,5.14,0,0,0-.53,1.45,11.36,11.36,0,0,0-.23,1.72Z" class="cls-1"/><path d="M173.82,73.62h2.1v-11h-2.1v-.38h4.45V73.62h2.1V74h-6.56Zm1.78-17.71a1.45,1.45,0,1,1,.42,1A1.4,1.4,0,0,1,175.6,55.91Z" class="cls-1"/><path d="M202.18,74V54.68h-2.1V54.3h4.45V73.62h2.1V74" class="cls-1"/><path d="M376.55,73.46h2.11v-11h-2.11v-.38h4.4V65H381a4.76,4.76,0,0,1,1.65-2.41,4.4,4.4,0,0,1,2.61-.77,4.79,4.79,0,0,1,2.42.6,2.94,2.94,0,0,1,1.38,2h.05a4.47,4.47,0,0,1,.52-1,3.75,3.75,0,0,1,.82-.83,4,4,0,0,1,1.16-.59,4.89,4.89,0,0,1,1.52-.22q4,0,4,4.07v7.57h2.1v.38h-6.56v-.38h2.1V64.16a2,2,0,0,0-.51-1.45,1.84,1.84,0,0,0-1.38-.52,3.83,3.83,0,0,0-1.37.26,3.67,3.67,0,0,0-1.23.78,3.86,3.86,0,0,0-.89,1.34,4.94,4.94,0,0,0-.34,1.91v7h2.1v.38h-6.56v-.38h2.11V64.55a2.69,2.69,0,0,0-.49-1.78,1.64,1.64,0,0,0-1.31-.57,3.27,3.27,0,0,0-1.26.29,3.8,3.8,0,0,0-1.27.9,5,5,0,0,0-1,1.6,6.45,6.45,0,0,0-.4,2.41v6.07h2.1v.38h-6.56Z" class="cls-1"/><path d="M447.07,73.46h2.1v-11h-2.1v-.38h4.4V65h.05q.16-.36.48-.9a4.77,4.77,0,0,1,.86-1.07,4.68,4.68,0,0,1,3.36-1.26,4.68,4.68,0,0,1,2.94.87,3.3,3.3,0,0,1,1.13,2.79v8h2.1v.38h-6.56v-.38h2.1V64.63a2.86,2.86,0,0,0-.51-1.75,1.83,1.83,0,0,0-1.57-.68,3.79,3.79,0,0,0-1.67.38,4.38,4.38,0,0,0-1.39,1.07,5,5,0,0,0-.94,1.61,5.81,5.81,0,0,0-.34,2v6.18h2.1v.38h-6.56Z" class="cls-1"/><path d="M497.94,73.84h-4.4V71.08h-.05a10,10,0,0,1-.59,1.11,4.49,4.49,0,0,1-.85,1,4.3,4.3,0,0,1-1.18.74,4,4,0,0,1-1.57.29,5.34,5.34,0,0,1-1.78-.25,4.46,4.46,0,0,1-1.07-.52,5.4,5.4,0,0,1-.42-.34,2,2,0,0,1-.42-.56,3.88,3.88,0,0,1-.33-.92,5.93,5.93,0,0,1-.14-1.38V62.5H483v-.38h4.45V70.5a8.3,8.3,0,0,0,.1,1.31,2.88,2.88,0,0,0,.37,1.05,2,2,0,0,0,.71.71,2.22,2.22,0,0,0,1.15.26,2.56,2.56,0,0,0,1.24-.36,4,4,0,0,0,1.18-1,5.77,5.77,0,0,0,.89-1.57,5.66,5.66,0,0,0,.36-2.06V62.5H491.4v-.38h4.43V73.46h2.1Z" class="cls-1"/><path d="M419.87,73.46H422v-11h-2.1v-.38h4.46V73.46h2.1v.38h-6.56Zm1.78-17.71a1.45,1.45,0,1,1,.42,1A1.39,1.39,0,0,1,421.65,55.75Z" class="cls-1"/><path d="M518.58,73.46h2.1v-11h-2.1v-.38H523V73.46h2.1v.38h-6.56Zm1.78-17.71a1.45,1.45,0,1,1,.42,1A1.39,1.39,0,0,1,520.35,55.75Z" class="cls-1"/><path d="M550.23,58.37v3.74h3.88v.38h-3.88v8.94a4.23,4.23,0,0,0,.15,1.24,1.87,1.87,0,0,0,.4.74,1.19,1.19,0,0,0,.53.34,2,2,0,0,0,.56.08,1.92,1.92,0,0,0,1.54-.7,3.37,3.37,0,0,0,.75-1.6l.38.14a6.29,6.29,0,0,1-.25.79,2.76,2.76,0,0,1-.51.83,2.65,2.65,0,0,1-.89.66,3.18,3.18,0,0,1-1.37.26,4,4,0,0,1-2.86-.79,3,3,0,0,1-.81-2.24V62.5h-2.1v-.38h2.1V58.37" class="cls-1"/><polygon points="300.92 101.1 292.82 93 267.3 93 248.38 74.09 212 74.09 212 73.59 248.59 73.59 267.5 92.5 293.03 92.5 301.28 100.75 300.92 101.1" class="cls-1"/><polygon points="301.1 90.87 265.71 90.87 261.83 86.99 297.22 86.99 301.1 90.87" class="cls-1"/><polygon points="248.57 73.84 218.55 73.84 222.43 77.72 252.45 77.72 248.57 73.84" class="cls-1"/><polygon points="351.34 69.97 324.82 69.97 328.7 73.85 355.21 73.85 351.34 69.97" class="cls-1"/><polygon points="367.64 90.91 308.74 90.91 308.74 90.41 367.43 90.41 373.36 84.48 548.86 84.48 548.86 84.98 373.56 84.98 367.64 90.91" class="cls-1"/><polygon points="209.43 91.48 150.43 91.48 143.93 84.98 59.33 84.98 59.33 84.48 144.13 84.48 150.63 90.98 209.22 90.98 215.15 85.06 255.57 85.06 255.57 85.56 215.35 85.56 209.43 91.48" class="cls-1"/><polygon points="373.04 73.89 328.59 73.89 310.88 56.18 311.23 55.83 328.8 73.39 373.04 73.39 373.04 73.89" class="cls-1"/><rect width="272.96" height=".5" x="329.07" y="80.86" class="cls-1"/><rect width="272.96" height=".5" y="80.86" class="cls-1"/><rect width=".5" height="71.45" x="300.76" y="81.11" class="cls-1"/><polygon points="550.72 84.94 510.46 84.94 514.29 81.11 554.55 81.11 550.72 84.94" class="cls-1"/><polygon points="96.09 81.11 55.83 81.11 59.66 84.94 99.91 84.94 96.09 81.11" class="cls-1"/><polygon points="369.06 89.28 316.3 89.28 314.71 90.86 367.48 90.86 369.06 89.28" class="cls-1"/><path d="M301,71.25a35.63,35.63,0,1,1,35.63-35.63A35.67,35.67,0,0,1,301,71.25ZM301,.5a35.13,35.13,0,1,0,35.13,35.13A35.17,35.17,0,0,0,301,.5Z" class="cls-1"/><path d="M322.12,58.69l-1.69-1.84a28.76,28.76,0,1,0-48.17-21.22,28.48,28.48,0,0,0,2.89,12.59l-2.25,1.1a31,31,0,0,1-3.15-13.69,31.26,31.26,0,1,1,52.36,23.06Z" class="cls-1"/><rect width=".5" height="51.28" x="300.76" y="13.49" class="cls-1"/><path d="M309.54,109.32c0-.11,0-.53,0-1.22,0-.3,0-.49-.21-.49a1.38,1.38,0,0,0-.35.07l-.61.2s-.07,0-.09,0l-.07-.16s0-.07.05-.11l1.81-1a.25.25,0,0,1,.12-.05c.05,0,.06.05.06.12s0,1.45,0,2.58v.37c0,.1,0,2,0,2.08,0,.46,0,.52.61.52h.32c.06,0,.09,0,.09.07v.2c0,.05,0,.07-.08.07l-1.35,0-1.36,0s-.07,0-.07-.07v-.22s.05-.05.12-.05h.4c.57,0,.59,0,.6-.49,0-.11,0-1.88,0-2Z" class="cls-1"/><path d="M313.18,112.34s0-.08-.05-.12l-.15-.83s0-.06.05-.07l.11,0s.06,0,.08.05l.22.43c.18.32.3.54.76.54a.64.64,0,0,0,.69-.59c0-.39-.19-.62-.85-.81s-1-.42-1-1.11a1.16,1.16,0,0,1,1.23-1.07,1.64,1.64,0,0,1,.81.18c.13.06.15.11.16.16l.13.61a.08.08,0,0,1-.06.08l-.11,0s-.05,0-.08,0l-.3-.4a.67.67,0,0,0-.61-.34.62.62,0,0,0-.67.58c0,.51.41.6.84.73.64.18,1,.45,1.05,1.12a1.21,1.21,0,0,1-1.33,1.16A1.65,1.65,0,0,1,313.18,112.34Z" class="cls-1"/><path d="M317.89,111.39c0,.66.3.77.46.77a1.27,1.27,0,0,0,.58-.11.07.07,0,0,1,.11,0l0,.08s0,.07,0,.1a1.47,1.47,0,0,1-1,.35.89.89,0,0,1-.85-.74c0-.36,0-1.13,0-1.25v-.19c0-.16,0-.75,0-1.12h-.54c-.08,0-.13,0-.13-.1s.05-.1.16-.16a3.93,3.93,0,0,0,1-1.1.12.12,0,0,1,.12-.09c.07,0,.09.06.09.13l0,.86h1.22c.05,0,.08,0,.06.08l-.09.31s0,.07-.08.07h-1.13c0,.4,0,.83,0,1.24Z" class="cls-1"/><path d="M324.15,111.81a3.52,3.52,0,0,1-.94-2.45,3.33,3.33,0,0,1,.89-2.32,3,3,0,0,1,2.19-.88,3.63,3.63,0,0,1,1.77.48c.11.07.16.06.18,0l.07-.25c0-.05,0-.05.11-.05s.1,0,.1.14.17,1.45.22,1.7c0,0,0,.08,0,.09l-.13,0s-.06,0-.09-.07a3.37,3.37,0,0,0-.68-1.09,2,2,0,0,0-1.52-.68c-1.57,0-2.2,1.39-2.19,2.67a3.51,3.51,0,0,0,.84,2.25,1.94,1.94,0,0,0,1.68.74,2.68,2.68,0,0,0,2.16-1.11s0-.05.07,0l.11.09s0,0,0,.08a3.14,3.14,0,0,1-2.61,1.47A3,3,0,0,1,324.15,111.81Z" class="cls-1"/><path d="M330.79,112a2,2,0,0,1,.27-2.84,1.9,1.9,0,0,1,1.17-.42,1.85,1.85,0,0,1,1.23.51,1.94,1.94,0,0,1,.6,1.43,2,2,0,0,1-1.94,1.93A1.77,1.77,0,0,1,330.79,112Zm2.53-1.41a1.51,1.51,0,0,0-1.16-1.59.85.85,0,0,0-.68.28,1.72,1.72,0,0,0-.46,1.38,1.89,1.89,0,0,0,.33,1.23,1,1,0,0,0,.87.46C332.9,112.33,333.33,111.51,333.33,110.58Z" class="cls-1"/><path d="M336.52,109.88c0,.45,0,1.78,0,2s0,.27.23.27h.39c.08,0,.1,0,.1.08v.15c0,.05,0,.09-.05.09s-.45,0-1,0-.91,0-1,0-.06,0-.06-.09v-.15c0-.06,0-.08.11-.08h.42c.1,0,.18-.06.19-.22s0-1.78,0-2.29v-.55c0-.62,0-1.42,0-1.65a.53.53,0,0,0-.44-.53l-.18-.06s-.05,0-.05,0v-.07s0,0,.08-.06a8,8,0,0,0,1-.51.32.32,0,0,1,.18-.07c.06,0,.08,0,.07.16,0,.48,0,2.3,0,2.79Z" class="cls-1"/><path d="M339.44,109.88c0,.45,0,1.78,0,2s0,.27.23.27h.39c.08,0,.1,0,.1.08v.15c0,.05,0,.09-.05.09s-.45,0-1,0-.91,0-1,0-.06,0-.06-.09v-.15c0-.06,0-.08.11-.08h.42c.1,0,.18-.06.19-.22s0-1.78,0-2.29v-.55c0-.62,0-1.42,0-1.65a.53.53,0,0,0-.44-.53l-.18-.06s-.05,0-.05,0v-.07s0,0,.08-.06a8,8,0,0,0,1-.51.32.32,0,0,1,.18-.07c.06,0,.08,0,.07.16,0,.48,0,2.3,0,2.79Z" class="cls-1"/><path d="M344.1,112.1a.41.41,0,0,0,.31-.13s.05-.06.09,0l.09.07s0,.07,0,.16a.72.72,0,0,1-.68.43.65.65,0,0,1-.62-.59h0a1.89,1.89,0,0,1-.87.54,1.69,1.69,0,0,1-.52.05c-.21,0-.53-.17-.53-.73s.18-.75.88-1.06a5.85,5.85,0,0,0,1-.51v-.56a1,1,0,0,0-.12-.49.67.67,0,0,0-.53-.19,1,1,0,0,0-.57.18c-.12.11,0,.24,0,.4,0,.31-.11.5-.46.5-.14,0-.21-.08-.21-.28a1.1,1.1,0,0,1,.6-.82,1.94,1.94,0,0,1,1.07-.31.9.9,0,0,1,.7.24.77.77,0,0,1,.19.62v1.86C343.83,111.94,343.94,112.1,344.1,112.1Zm-.9-1.54c-.32.24-1.17.41-1.17,1.14a.43.43,0,0,0,.46.48c.25,0,.72-.31.72-.54Z" class="cls-1"/><path d="M345.94,107.77c0-.59-.1-.71-.41-.82l-.09,0c-.1,0-.11,0-.11-.07v-.07s0,0,.07-.07a9.38,9.38,0,0,0,.93-.48.36.36,0,0,1,.18-.08c.06,0,.08,0,.07.15s0,1.07,0,1.85v1a1.86,1.86,0,0,1,1.21-.44,1.69,1.69,0,0,1,1.6,1.88,2,2,0,0,1-1.82,2,2,2,0,0,1-1-.23l-.35.19a.13.13,0,0,1-.11,0l-.1,0s0,0,0-.07,0-.85,0-1.49Zm.63,2.84a3.41,3.41,0,0,0,.13,1.27,1,1,0,0,0,.83.44c.53,0,1.17-.36,1.17-1.51,0-.85-.45-1.66-1.31-1.66a1.17,1.17,0,0,0-.83.32Z" class="cls-1"/><path d="M351.19,112a2,2,0,0,1,.27-2.84,1.9,1.9,0,0,1,1.17-.42,1.86,1.86,0,0,1,1.23.51,1.94,1.94,0,0,1,.6,1.43,2,2,0,0,1-1.94,1.93A1.77,1.77,0,0,1,351.19,112Zm2.53-1.41a1.51,1.51,0,0,0-1.16-1.59.85.85,0,0,0-.67.28,1.72,1.72,0,0,0-.46,1.38,1.89,1.89,0,0,0,.33,1.23,1,1,0,0,0,.87.46C353.29,112.33,353.72,111.51,353.72,110.58Z" class="cls-1"/><path d="M356.29,110.16c0-.45-.07-.54-.32-.67l-.17-.09c-.05,0-.07,0-.07-.06v-.05s0-.05.07-.08l.87-.45a.28.28,0,0,1,.12,0c.05,0,.06.05.06.11l0,.62h0a1.49,1.49,0,0,1,1.05-.76.4.4,0,0,1,.45.38.42.42,0,0,1-.37.43.58.58,0,0,1-.25-.07.56.56,0,0,0-.29-.07.62.62,0,0,0-.52.37.92.92,0,0,0-.09.28v1.82c0,.27.06.36.25.36h.41c.05,0,.06,0,.06.08v.16c0,.05,0,.08,0,.08s-.45,0-.93,0-.91,0-1,0-.05,0-.05-.09v-.15c0-.06,0-.08.1-.08h.34c.13,0,.19-.05.19-.17,0-.29,0-.59,0-1Z" class="cls-1"/><path d="M362.32,112.1a.41.41,0,0,0,.31-.13s.05-.06.09,0l.09.07s0,.07,0,.16a.72.72,0,0,1-.68.43.65.65,0,0,1-.62-.59h0a1.89,1.89,0,0,1-.87.54,1.68,1.68,0,0,1-.52.05c-.21,0-.53-.17-.53-.73s.18-.75.88-1.06a5.85,5.85,0,0,0,1-.51v-.56a1,1,0,0,0-.12-.49.66.66,0,0,0-.52-.19,1,1,0,0,0-.57.18c-.12.11,0,.24,0,.4,0,.31-.11.5-.46.5-.14,0-.21-.08-.21-.28a1.1,1.1,0,0,1,.6-.82,1.93,1.93,0,0,1,1.07-.31.9.9,0,0,1,.7.24.77.77,0,0,1,.19.62v1.86C362.05,111.94,362.16,112.1,362.32,112.1Zm-.9-1.54c-.32.24-1.17.41-1.17,1.14a.43.43,0,0,0,.46.48c.25,0,.72-.31.72-.54Z" class="cls-1"/><path d="M365,111.39c0,.66.3.77.46.77A1.27,1.27,0,0,0,366,112a.07.07,0,0,1,.11,0l0,.08s0,.07,0,.1a1.48,1.48,0,0,1-1,.35.89.89,0,0,1-.85-.74c0-.36,0-1.13,0-1.25v-.19c0-.16,0-.75,0-1.12h-.53c-.08,0-.13,0-.13-.1s.05-.1.16-.16a3.91,3.91,0,0,0,1-1.1.12.12,0,0,1,.12-.09c.07,0,.09.06.09.13l0,.86h1.22c.05,0,.08,0,.06.08l-.09.31s0,.07-.08.07H365c0,.4,0,.83,0,1.24Z" class="cls-1"/><path d="M367.9,109.94c0-.3-.05-.46-.49-.53-.06,0-.08,0-.08-.06v-.08s0,0,.06-.06a7,7,0,0,0,.95-.43.37.37,0,0,1,.17-.05s.05,0,0,.11,0,.7,0,1.43v1c0,.34,0,.66,0,.75s0,.23.14.23h.4c.07,0,.09,0,.09.08v.15c0,.06,0,.09-.08.09s-.47,0-.84,0-.85,0-.95,0-.07,0-.07-.07v-.17c0-.05,0-.07.09-.07h.43c.1,0,.13,0,.14-.18s0-.53,0-.8Zm-.41-2.69a.52.52,0,0,1,.55-.49.46.46,0,0,1,.47.46.5.5,0,0,1-.53.52A.53.53,0,0,1,367.49,107.25Z" class="cls-1"/><path d="M370.81,112a2,2,0,0,1,.27-2.84,1.9,1.9,0,0,1,1.17-.42,1.85,1.85,0,0,1,1.23.51,1.94,1.94,0,0,1,.6,1.43,2,2,0,0,1-1.94,1.93A1.77,1.77,0,0,1,370.81,112Zm2.53-1.41a1.51,1.51,0,0,0-1.16-1.59.85.85,0,0,0-.68.28,1.72,1.72,0,0,0-.46,1.38,1.89,1.89,0,0,0,.33,1.23,1,1,0,0,0,.87.46C372.91,112.33,373.34,111.51,373.34,110.58Z" class="cls-1"/><path d="M379,112c0,.14.08.18.19.18h.28c.08,0,.1,0,.1.08v.14c0,.06,0,.1-.07.1s-.33,0-.83,0-.73,0-.79,0-.07,0-.07-.1v-.14c0-.06,0-.08.11-.08h.25c.1,0,.17,0,.18-.2s0-.51,0-.74V110.1c0-.35,0-.61-.25-.79a1,1,0,0,0-.64-.16,1,1,0,0,0-.71.34.86.86,0,0,0-.2.6v1.81c0,.24,0,.29.21.29H377c.07,0,.09,0,.09.09v.15c0,.05,0,.08-.06.08s-.3,0-.76,0-.73,0-.78,0-.06,0-.06-.08v-.16c0-.05,0-.08.09-.08h.25c.11,0,.17,0,.17-.18v-2a.54.54,0,0,0-.36-.52l-.07,0c-.06,0-.07-.05-.07-.08v0s0-.07.08-.09l.75-.42a.49.49,0,0,1,.16-.06s.06,0,.07.11l.06.53h0a1.76,1.76,0,0,1,1.2-.64,1.35,1.35,0,0,1,.74.19,1.28,1.28,0,0,1,.48.83Z" class="cls-1"/><path d="M385.23,110.05c-.09.22-.57,1.55-.61,1.73s0,.15,0,.19.11.19.3.19h.41c.06,0,.09,0,.09.06v.2c0,.06,0,.08-.07.08s-.48,0-1,0-.83,0-1,0-.06,0-.06-.07v-.21a.06.06,0,0,1,.07-.06h.31c.26,0,.39-.12.51-.4s.7-1.76,1-2.48c.06-.17.77-2.06.85-2.29a.36.36,0,0,0,0-.3.24.24,0,0,1-.06-.11s0-.06.08-.08a1.77,1.77,0,0,0,.73-.44s.07-.08.11-.08.07.05.1.15c.17.55.85,2.51,1,3.08s.77,2.31.89,2.57a.65.65,0,0,0,.6.39h.29c.05,0,.07,0,.07.06v.22s0,.06-.09.06-.34,0-1.05,0-1,0-1.23,0c0,0-.07,0-.07-.08v-.2c0-.05,0-.06.08-.06h.22c.25,0,.32-.09.26-.33s-.43-1.44-.55-1.79Zm2-.31c-.08-.26-.79-2.45-.83-2.58s0-.12-.07-.12-.07.06-.1.13-.88,2.36-.94,2.58Z" class="cls-1"/><path d="M392,109.88c0,.45,0,1.78,0,2s0,.27.23.27h.39c.08,0,.1,0,.1.08v.15c0,.05,0,.09-.05.09s-.45,0-1,0-.91,0-1,0-.06,0-.06-.09v-.15c0-.06,0-.08.11-.08h.42c.1,0,.18-.06.19-.22s0-1.78,0-2.29v-.55c0-.62,0-1.42,0-1.65a.53.53,0,0,0-.44-.53l-.18-.06s-.05,0-.05,0v-.07s0,0,.08-.06a8,8,0,0,0,1-.51.32.32,0,0,1,.18-.07c.06,0,.08,0,.07.16,0,.48,0,2.3,0,2.79Z" class="cls-1"/><path d="M394,107.77c0-.59-.1-.71-.41-.82l-.09,0c-.1,0-.11,0-.11-.07v-.07s0,0,.07-.07a9.3,9.3,0,0,0,.93-.48.36.36,0,0,1,.18-.08c.06,0,.08,0,.07.15s0,1.07,0,1.85v1a1.86,1.86,0,0,1,1.21-.44,1.69,1.69,0,0,1,1.6,1.88,2,2,0,0,1-1.82,2,2,2,0,0,1-1-.23l-.35.19a.13.13,0,0,1-.11,0l-.11,0s0,0,0-.07,0-.85,0-1.49Zm.63,2.84a3.41,3.41,0,0,0,.13,1.27,1,1,0,0,0,.83.44c.52,0,1.17-.36,1.17-1.51,0-.85-.45-1.66-1.31-1.66a1.17,1.17,0,0,0-.83.32Z" class="cls-1"/><path d="M402.16,110.71c0,.42,0,.85,0,1s.12.31.23.31a1.25,1.25,0,0,0,.29,0c.07,0,.1,0,.1,0l0,.11c0,.05,0,.07,0,.08l-.92.31a.53.53,0,0,1-.18,0s-.07,0-.08-.1l-.07-.51h0a1.6,1.6,0,0,1-1.19.61.92.92,0,0,1-.82-.4c-.36-.46-.34-.75-.34-1.72v-1c0-.25-.13-.31-.33-.33s-.19,0-.19-.06v-.16c0-.05,0-.07.1-.07h.78l.12,0h.1a.09.09,0,0,1,.1.11c0,.08,0,.49,0,1v.63a2.23,2.23,0,0,0,.19,1.31.74.74,0,0,0,.7.33,1.2,1.2,0,0,0,.75-.44.47.47,0,0,0,.09-.24v-2.09c0-.24-.16-.29-.38-.31s-.19,0-.19-.06v-.15c0-.07,0-.08.11-.08h.81l.15,0h.11a.08.08,0,0,1,.08.09,7.72,7.72,0,0,0-.05,1.16Z" class="cls-1"/><path d="M406.9,110.24c0-.65-.12-.82-.26-.95a.94.94,0,0,0-.56-.16,1,1,0,0,0-.84.51,1,1,0,0,0-.12.59V112c0,.14.05.23.18.23h.31c.08,0,.09,0,.09.08v.14c0,.06,0,.1-.07.1s-.32,0-.8,0-.74,0-.81,0-.07,0-.07-.08v-.16c0-.07,0-.08.11-.08h.3c.08,0,.12-.05.13-.22s0-.31,0-.46V110a.44.44,0,0,0-.24-.45l-.18-.1s-.06,0-.06-.07v-.07s0-.06.05-.07l.77-.39a.42.42,0,0,1,.17-.05c.05,0,.08.06.08.12l0,.51h0a1.7,1.7,0,0,1,1.29-.67,1.06,1.06,0,0,1,1,.68h0a1.74,1.74,0,0,1,1.29-.68,1,1,0,0,1,.79.26,1.26,1.26,0,0,1,.42,1.08v2c0,.13.08.18.18.18h.24c.08,0,.1,0,.1.08v.15c0,.06,0,.09-.06.09s-.31,0-.73,0-.75,0-.81,0-.07,0-.07-.09v-.15c0-.06,0-.08.11-.08h.22a.16.16,0,0,0,.18-.17c0-.2,0-.52,0-.71V110a.83.83,0,0,0-.25-.7,1.05,1.05,0,0,0-.65-.18,1,1,0,0,0-.76.46,1.78,1.78,0,0,0-.12.88V112c0,.11,0,.2.18.2h.3c.08,0,.1,0,.1.08v.14c0,.07,0,.1-.06.1s-.29,0-.78,0-.77,0-.82,0-.06,0-.06-.09v-.14c0-.07,0-.09.09-.09h.25c.14,0,.19,0,.19-.15Z" class="cls-1"/><path d="M192.74,107.44c0-.52-.26-.81-.58-.82h-.36s-.05,0-.05-.06v-.23s0-.05.05-.05H192l.62,0,.59,0a.31.31,0,0,1,.25.11l1.84,2.38c.1.12,1.58,1.93,1.79,2.22h0v-1c0-.78,0-1.21,0-1.65A10.35,10.35,0,0,0,197,107a.47.47,0,0,0-.48-.34h-.28s-.05,0-.05-.06v-.23a0,0,0,0,1,.05-.05c.12,0,.4,0,1,0s.74,0,.85,0,.07,0,.07.06v.22s0,.06-.05.06h-.24c-.24,0-.32.15-.34.48,0,.59,0,1.45,0,2v3.28c0,.12,0,.21,0,.21s-.18-.11-.21-.14l-1.07-1.35c-.61-.76-1.25-1.57-1.31-1.62s-1.71-2.11-1.76-2.18h-.05v1.95c0,.81.07,2.24.09,2.42,0,.34.09.51.32.51h.26c.06,0,.07,0,.07.08v.19c0,.05,0,.07-.07.07l-.85,0-.88,0s0,0,0-.06v-.23s0-.05.05-.05h.3c.25,0,.35-.11.39-.54,0-.17,0-1.17,0-2.72Z" class="cls-1"/><path d="M202.16,112.11a.4.4,0,0,0,.31-.13s.05-.06.09,0l.09.07s0,.07,0,.16a.72.72,0,0,1-.68.43.65.65,0,0,1-.62-.59h0a1.89,1.89,0,0,1-.87.54,1.63,1.63,0,0,1-.52.05c-.21,0-.53-.18-.53-.73s.18-.75.88-1.06a5.85,5.85,0,0,0,1-.51v-.56a1,1,0,0,0-.12-.49.66.66,0,0,0-.52-.19,1,1,0,0,0-.57.18c-.12.11,0,.24,0,.4,0,.31-.11.5-.46.5-.14,0-.21-.08-.21-.28a1.1,1.1,0,0,1,.6-.82,1.93,1.93,0,0,1,1.07-.31.9.9,0,0,1,.7.24.77.77,0,0,1,.19.62v1.86C201.89,112,202,112.11,202.16,112.11Zm-.9-1.54c-.32.24-1.17.41-1.17,1.14a.43.43,0,0,0,.46.48c.25,0,.72-.31.72-.54Z" class="cls-1"/><path d="M204,107.47c0-.36,0-.51-.46-.62-.1,0-.12,0-.12-.06v-.08s0-.05.11-.09l.89-.38a.56.56,0,0,1,.19-.07c.05,0,.06,0,.05.15,0,.42,0,1.71,0,2.76v1.38a.87.87,0,0,0,.42-.1,9.73,9.73,0,0,0,.93-1c.05-.1.05-.17,0-.2a.39.39,0,0,0-.23-.05c-.06,0-.07,0-.07-.08v-.17s0-.07.06-.07.37,0,.81,0,.65,0,.71,0,.05,0,.05.09v.16c0,.05,0,.07-.07.07h-.06a1.26,1.26,0,0,0-.6.2c-.12.07-.86.75-1.16,1,.18.17,1.65,1.65,1.8,1.72a1.23,1.23,0,0,0,.46.12c.05,0,.07,0,.07.08v.16c0,.05,0,.08-.08.08s-.31,0-.73,0-.89,0-1,0-.06,0-.06-.09v-.14s0-.07.09-.07H206a.1.1,0,0,0,.1-.14c0-.07-1-1.13-1.17-1.26a.64.64,0,0,0-.38-.1v.38c0,.31,0,.61,0,.91,0,.12.05.18.18.18H205c.06,0,.08,0,.08.07v.15c0,.07,0,.1-.07.1s-.34,0-.78,0-.78,0-.84,0,0,0,0-.09v-.15c0-.06,0-.08.09-.08h.32c.11,0,.16-.1.16-.21,0-.39,0-.86,0-1.63Z" class="cls-1"/><path d="M211.56,110.72c0,.42,0,.85,0,1s.12.31.23.31a1.23,1.23,0,0,0,.29,0c.07,0,.1,0,.11,0l0,.11c0,.05,0,.07,0,.08l-.92.31a.53.53,0,0,1-.18,0s-.07,0-.08-.11l-.07-.51h0a1.6,1.6,0,0,1-1.19.61.92.92,0,0,1-.82-.4c-.36-.46-.34-.75-.34-1.72v-1c0-.25-.13-.31-.33-.33s-.19,0-.19-.06v-.16c0-.05,0-.07.1-.07h.78l.12,0h.1a.09.09,0,0,1,.1.11c0,.08,0,.49,0,1v.63a2.23,2.23,0,0,0,.19,1.31.73.73,0,0,0,.7.33,1.21,1.21,0,0,0,.75-.44.48.48,0,0,0,.09-.24v-2.09c0-.24-.16-.29-.38-.31s-.19,0-.19-.06v-.15c0-.07,0-.08.11-.08h.81l.15,0h.1a.08.08,0,0,1,.08.09,7.58,7.58,0,0,0-.05,1.16Z" class="cls-1"/><path d="M213.62,110.17c0-.45-.07-.54-.32-.67l-.17-.09c-.05,0-.07,0-.07-.06v-.05s0-.05.07-.08l.87-.45a.26.26,0,0,1,.12,0c.05,0,.06.05.06.11l0,.62h0a1.49,1.49,0,0,1,1.05-.76.4.4,0,0,1,.45.38.42.42,0,0,1-.37.43.56.56,0,0,1-.25-.07.57.57,0,0,0-.29-.07.62.62,0,0,0-.52.37.92.92,0,0,0-.09.28v1.82c0,.27.06.36.25.36h.41c.05,0,.06,0,.06.08v.16c0,.05,0,.08,0,.08s-.46,0-.93,0-.91,0-1,0-.05,0-.05-.09v-.15c0-.06,0-.08.1-.08h.34c.13,0,.19-.05.19-.17,0-.29,0-.6,0-1.05Z" class="cls-1"/><path d="M219.84,110.72c0,.42,0,.85,0,1s.12.31.23.31a1.25,1.25,0,0,0,.29,0c.07,0,.1,0,.1,0l0,.11c0,.05,0,.07,0,.08l-.92.31a.53.53,0,0,1-.18,0s-.07,0-.08-.11l-.07-.51h0a1.6,1.6,0,0,1-1.19.61.92.92,0,0,1-.82-.4c-.36-.46-.34-.75-.34-1.72v-1c0-.25-.13-.31-.33-.33s-.19,0-.19-.06v-.16c0-.05,0-.07.1-.07h.78l.12,0h.1a.09.09,0,0,1,.1.11c0,.08,0,.49,0,1v.63a2.23,2.23,0,0,0,.19,1.31.73.73,0,0,0,.7.33,1.21,1.21,0,0,0,.75-.44.48.48,0,0,0,.09-.24v-2.09c0-.24-.16-.29-.38-.31s-.19,0-.19-.06v-.15c0-.07,0-.08.11-.08h.81l.15,0h.11a.08.08,0,0,1,.08.09,7.72,7.72,0,0,0-.05,1.16Z" class="cls-1"/><path d="M225.64,110.06c-.09.22-.57,1.55-.61,1.73s0,.15,0,.19.11.19.3.19h.41c.06,0,.09,0,.09.06v.2c0,.06,0,.08-.07.08s-.48,0-1,0-.83,0-1,0-.06,0-.06-.07v-.21s0-.06.07-.06h.31c.26,0,.39-.12.51-.4s.7-1.76,1-2.48c.06-.17.77-2.06.85-2.29a.36.36,0,0,0,0-.3.24.24,0,0,1-.06-.11s0-.06.08-.08a1.77,1.77,0,0,0,.73-.44s.07-.08.11-.08.07.05.1.15c.17.55.85,2.51,1,3.08s.77,2.31.89,2.57a.66.66,0,0,0,.6.39h.29c.05,0,.07,0,.07.06v.22s0,.06-.09.06-.34,0-1.05,0-1,0-1.23,0c0,0-.07,0-.07-.08v-.2c0-.05,0-.06.08-.06h.22c.25,0,.32-.09.26-.33s-.43-1.44-.55-1.79Zm2-.31c-.08-.26-.79-2.45-.83-2.58s0-.12-.07-.12-.07.06-.1.13-.88,2.36-.94,2.58Z" class="cls-1"/><path d="M231.55,110c0-.3-.05-.46-.49-.53-.06,0-.08,0-.08-.06v-.08s0,0,.06-.06a7,7,0,0,0,.95-.43.37.37,0,0,1,.17-.05s.05,0,0,.11,0,.7,0,1.43v1c0,.34,0,.66,0,.75s0,.23.14.23h.4c.07,0,.09,0,.09.08v.15c0,.06,0,.09-.08.09s-.47,0-.84,0-.85,0-.95,0-.07,0-.07-.07v-.17c0-.05,0-.07.09-.07h.43c.1,0,.13,0,.14-.18s0-.53,0-.8Zm-.41-2.69a.52.52,0,0,1,.55-.49.46.46,0,0,1,.47.46.5.5,0,0,1-.53.52A.53.53,0,0,1,231.14,107.26Z" class="cls-1"/><path d="M234.91,111.4c0,.66.3.77.46.77a1.27,1.27,0,0,0,.58-.11.07.07,0,0,1,.11,0l0,.08a.07.07,0,0,1,0,.1,1.47,1.47,0,0,1-1,.35.9.9,0,0,1-.85-.75c0-.36,0-1.13,0-1.25v-.19c0-.16,0-.75,0-1.12h-.53c-.08,0-.13,0-.13-.1s.05-.1.16-.16a3.88,3.88,0,0,0,1-1.09.12.12,0,0,1,.12-.09c.07,0,.09.06.09.13l0,.86h1.22c.05,0,.08,0,.06.08l-.09.31s0,.07-.08.07h-1.13c0,.4,0,.83,0,1.24Z" class="cls-1"/><path d="M237.23,112.35s0-.08-.05-.12l-.15-.83s0-.06.05-.07l.11,0s.06,0,.08.05l.22.43c.18.32.3.54.76.54a.64.64,0,0,0,.69-.6c0-.39-.19-.62-.85-.81s-1-.42-1-1.11a1.16,1.16,0,0,1,1.23-1.07,1.64,1.64,0,0,1,.81.18c.13.06.15.1.16.16l.13.61a.08.08,0,0,1-.06.08l-.11,0s-.05,0-.08,0l-.3-.4a.67.67,0,0,0-.61-.34.62.62,0,0,0-.67.58c0,.51.41.6.84.73.64.18,1,.45,1.05,1.12a1.21,1.21,0,0,1-1.33,1.16A1.65,1.65,0,0,1,237.23,112.35Z" class="cls-1"/><path d="M243.87,110.72c0,.42,0,.85,0,1s.12.31.23.31a1.23,1.23,0,0,0,.29,0c.07,0,.1,0,.11,0l0,.11c0,.05,0,.07,0,.08l-.92.31a.53.53,0,0,1-.18,0s-.07,0-.08-.11l-.07-.51h0a1.6,1.6,0,0,1-1.19.61.92.92,0,0,1-.82-.4c-.36-.46-.34-.75-.34-1.72v-1c0-.25-.13-.31-.33-.33s-.19,0-.19-.06v-.16c0-.05,0-.07.1-.07h.78l.12,0h.1a.09.09,0,0,1,.1.11c0,.08,0,.49,0,1v.63a2.23,2.23,0,0,0,.19,1.31.73.73,0,0,0,.7.33,1.21,1.21,0,0,0,.75-.44.48.48,0,0,0,.09-.24v-2.09c0-.24-.16-.29-.38-.31s-.19,0-.19-.06v-.15c0-.07,0-.08.11-.08h.81l.15,0h.1a.08.08,0,0,1,.08.09,7.58,7.58,0,0,0-.05,1.16Z" class="cls-1"/><path d="M245.91,107.47c0-.36,0-.51-.46-.62-.1,0-.12,0-.12-.06v-.08s0-.05.11-.09l.89-.38a.56.56,0,0,1,.19-.07c.05,0,.06,0,.05.15,0,.42,0,1.71,0,2.76v1.38a.87.87,0,0,0,.42-.1,9.73,9.73,0,0,0,.93-1c.05-.1.05-.17,0-.2a.39.39,0,0,0-.23-.05c-.06,0-.07,0-.07-.08v-.17s0-.07.06-.07.37,0,.81,0,.65,0,.71,0,.05,0,.05.09v.16c0,.05,0,.07-.07.07h-.06a1.26,1.26,0,0,0-.6.2c-.12.07-.86.75-1.16,1,.18.17,1.65,1.65,1.8,1.72a1.23,1.23,0,0,0,.46.12c.05,0,.07,0,.07.08v.16c0,.05,0,.08-.08.08s-.31,0-.73,0-.89,0-1,0-.06,0-.06-.09v-.14s0-.07.09-.07H248a.1.1,0,0,0,.1-.14c0-.07-1-1.13-1.17-1.26a.64.64,0,0,0-.38-.1v.38c0,.31,0,.61,0,.91,0,.12.05.18.18.18H247c.06,0,.08,0,.08.07v.15c0,.07,0,.1-.07.1s-.34,0-.78,0-.78,0-.84,0,0,0,0-.09v-.15c0-.06,0-.08.09-.08h.32c.11,0,.16-.1.16-.21,0-.39,0-.86,0-1.63Z" class="cls-1"/><path d="M250.75,110c0-.3-.05-.46-.49-.53-.06,0-.08,0-.08-.06v-.08s0,0,.06-.06a7,7,0,0,0,.95-.43.37.37,0,0,1,.17-.05s.05,0,0,.11,0,.7,0,1.43v1c0,.34,0,.66,0,.75s0,.23.14.23h.4c.07,0,.09,0,.09.08v.15c0,.06,0,.09-.08.09s-.47,0-.84,0-.85,0-.95,0-.07,0-.07-.07v-.17c0-.05,0-.07.09-.07h.43c.1,0,.13,0,.14-.18s0-.53,0-.8Zm-.41-2.69a.52.52,0,0,1,.55-.49.46.46,0,0,1,.47.46.5.5,0,0,1-.53.52A.53.53,0,0,1,250.34,107.26Z" class="cls-1"/><path d="M265.21,112.08c-.11-.08-.16-.1-.2-.1s-.09.06-.14.15-.1.11-.16.11-.1,0-.08-.14.12-1.33.15-1.59c0-.05,0-.05.06-.05H265s.05,0,.05.07a1.73,1.73,0,0,0,.32,1,1.46,1.46,0,0,0,1.23.65,1.12,1.12,0,0,0,1.19-1.11c0-.9-.65-1.23-1.35-1.48a3.38,3.38,0,0,1-1.28-.71,1.71,1.71,0,0,1-.44-1.28,1.65,1.65,0,0,1,.54-1.12,1.74,1.74,0,0,1,1.23-.42,2.53,2.53,0,0,1,1,.22c.08,0,.12,0,.17,0l.11-.11a.17.17,0,0,1,.11-.05s.07.07.07.15c0,.31.11,1.2.12,1.39s0,.06,0,.07l-.11,0a0,0,0,0,1-.05,0,2.12,2.12,0,0,0-.54-1,1.22,1.22,0,0,0-1-.38,1,1,0,0,0-1.06,1,1.07,1.07,0,0,0,.27.76,2.76,2.76,0,0,0,1,.52,2.8,2.8,0,0,1,1.41.73,1.71,1.71,0,0,1,.39,1.19,1.77,1.77,0,0,1-1.79,1.92A2.16,2.16,0,0,1,265.21,112.08Z" class="cls-1"/><path d="M270.28,110.07a2.2,2.2,0,0,0,0,.42A1.37,1.37,0,0,0,271.5,112a1.19,1.19,0,0,0,1.06-.59.07.07,0,0,1,.08,0l.11.06s0,0,0,.13a1.58,1.58,0,0,1-1.39,1,1.61,1.61,0,0,1-1.38-.62,2.09,2.09,0,0,1-.39-1.38,2,2,0,0,1,.55-1.39,1.63,1.63,0,0,1,1.25-.46,1.31,1.31,0,0,1,1.29,1.29c0,.12-.11.14-.25.14Zm1.39-.26c.17,0,.24,0,.24-.12s-.11-.78-.67-.78c-.39,0-.75.25-.92.9Z" class="cls-1"/><path d="M277.37,111.93c0,.14.08.18.19.18h.28c.08,0,.1,0,.1.08v.14c0,.06,0,.1-.07.1s-.33,0-.83,0-.73,0-.79,0-.07,0-.07-.1v-.14c0-.06,0-.08.11-.08h.25c.1,0,.17,0,.18-.2s0-.51,0-.74V110c0-.35,0-.61-.25-.79a1,1,0,0,0-.64-.16,1,1,0,0,0-.71.34.86.86,0,0,0-.2.6v1.81c0,.24,0,.29.21.29h.22c.07,0,.09,0,.09.09v.15c0,.05,0,.08-.06.08s-.3,0-.76,0-.73,0-.78,0-.06,0-.06-.08v-.16c0-.05,0-.08.09-.08h.25c.11,0,.17,0,.17-.18v-2a.54.54,0,0,0-.36-.52l-.07,0c-.06,0-.07-.05-.07-.08v0s0-.07.08-.09l.75-.42a.49.49,0,0,1,.16-.06s.06,0,.07.11l.06.54h0a1.75,1.75,0,0,1,1.2-.64,1.35,1.35,0,0,1,.74.19,1.28,1.28,0,0,1,.48.83Z" class="cls-1"/><path d="M282.46,111.93c0,.14.08.18.19.18h.28c.08,0,.1,0,.1.08v.14c0,.06,0,.1-.07.1s-.33,0-.83,0-.73,0-.79,0-.07,0-.07-.1v-.14c0-.06,0-.08.11-.08h.25c.1,0,.17,0,.18-.2s0-.51,0-.74V110c0-.35,0-.61-.25-.79a1,1,0,0,0-.64-.16,1,1,0,0,0-.71.34.86.86,0,0,0-.2.6v1.81c0,.24,0,.29.21.29h.22c.07,0,.09,0,.09.09v.15c0,.05,0,.08-.06.08s-.3,0-.76,0-.73,0-.78,0-.06,0-.06-.08v-.16c0-.05,0-.08.09-.08h.25c.11,0,.17,0,.17-.18v-2a.54.54,0,0,0-.36-.52l-.07,0c-.06,0-.07-.05-.07-.08v0s0-.07.08-.09l.75-.42a.49.49,0,0,1,.16-.06s.06,0,.07.11l.06.54h0a1.75,1.75,0,0,1,1.2-.64,1.35,1.35,0,0,1,.74.19,1.28,1.28,0,0,1,.48.83Z" class="cls-1"/><path d="M284.08,112.4c-.1,0-.13,0-.05-.15l2.25-3.25h-.93c-.55,0-.67.06-1.38,1,0,0-.06.06-.1,0l-.11-.05s0,0,0-.09l.58-1.23a2.3,2.3,0,0,0,.42.08,11,11,0,0,0,1.15,0h1.21c.09,0,.12.06.08.12l-2.32,3.27h1.24c.22,0,.64-.17,1.2-.94a.07.07,0,0,1,.11,0l.09.06s0,0,0,.09l-.67,1.19a2.71,2.71,0,0,0-.79-.09l-.77,0Z" class="cls-1"/><path d="M291.07,112a.4.4,0,0,0,.31-.13s.05-.06.09,0l.09.07s0,.07,0,.16a.72.72,0,0,1-.68.43.65.65,0,0,1-.62-.59h0a1.89,1.89,0,0,1-.87.54,1.63,1.63,0,0,1-.52.05c-.21,0-.53-.18-.53-.73s.18-.75.88-1.06a5.85,5.85,0,0,0,1-.51v-.56a1,1,0,0,0-.12-.49.66.66,0,0,0-.52-.19,1,1,0,0,0-.57.18c-.12.11,0,.24,0,.4,0,.31-.11.5-.46.5-.14,0-.21-.08-.21-.28a1.1,1.1,0,0,1,.6-.82,1.93,1.93,0,0,1,1.07-.31.9.9,0,0,1,.7.24.77.77,0,0,1,.19.62v1.86C290.81,111.86,290.91,112,291.07,112Zm-.9-1.54c-.32.24-1.17.41-1.17,1.14a.43.43,0,0,0,.46.48c.25,0,.72-.31.72-.54Z" class="cls-1"/><path d="M292.93,109.85c0-.3-.05-.46-.49-.53-.06,0-.08,0-.08-.06v-.08s0,0,.06-.06a7,7,0,0,0,.95-.43.37.37,0,0,1,.17-.05s.05,0,0,.11,0,.7,0,1.43v1c0,.34,0,.66,0,.75s0,.23.14.23h.4c.07,0,.09,0,.09.08v.15c0,.06,0,.09-.08.09s-.47,0-.84,0-.85,0-.95,0-.07,0-.07-.07v-.17c0-.05,0-.07.09-.07h.43c.1,0,.13,0,.14-.18s0-.53,0-.8Zm-.41-2.69a.52.52,0,0,1,.55-.49.46.46,0,0,1,.47.46.5.5,0,0,1-.53.52A.53.53,0,0,1,292.52,107.16Z" class="cls-1"/><polygon points="261.48 112.64 254.99 106.14 255.17 105.97 261.66 112.46 261.48 112.64" class="cls-1"/><polygon points="255.17 112.64 254.99 112.46 261.48 105.97 261.66 106.14 255.17 112.64" class="cls-1"/></g></g></svg>