<svg xmlns="http://www.w3.org/2000/svg" viewBox="0 0 219.54 16.33"><defs><style>.cls-1{fill:#fff}</style></defs><title>アセット 2</title><g id="レイヤー_2" data-name="レイヤー 2"><g id="レイヤー_1-2" data-name="レイヤー 1"><path d="M27.48.63V0H25.4V.63h.7v2h.68v-2ZM25.23,1.92V1.71h-.66v.05a.29.29,0,0,1-.29.33H24c-.26,0-.4-.16-.4-.53V1A.39.39,0,0,1,24,.6h.27a.3.3,0,0,1,.31.28V1h.61V.75c0-.51-.27-.71-.82-.71h-.54a.85.85,0,0,0-.93.92v.77a.81.81,0,0,0,.82.88h.76A.7.7,0,0,0,25.23,1.92Zm-2.4.7L22,0h-1.1l-.78,2.58h.72L21,2.25h1l.12.37ZM20.27,1c0-.44-.16-1-.67-1H18V2.62h.68V2h1C20.11,2,20.27,1.53,20.27,1Zm7.19,6.2V5a1.54,1.54,0,0,0-1.51-1.65H21.82a1.62,1.62,0,0,0-1.53,1.41v6.68a1.53,1.53,0,0,0,1.43,1.45H26a1.54,1.54,0,0,0,1.36-1.37V8.95A.34.34,0,0,0,27,8.64H24.77a.32.32,0,0,0-.3.29v1.5a.58.58,0,0,1-1.16,0V5.87a.55.55,0,0,1,.59-.47.54.54,0,0,1,.55.47V7.21a.34.34,0,0,0,.32.3h2.35A.33.33,0,0,0,27.46,7.21Zm-10-4.59V0H16.27l-.54,1.73L15.21,0H14.05V2.62h.66V.6l.74,2H16l.72-2v2Zm10.1,13V14.54a.75.75,0,0,0-.85-.79h-.76c-.57,0-.88.26-.88.79v1.05c0,.44.33.74.88.74h.76A.76.76,0,0,0,27.54,15.59ZM13.63,1.76V.86c0-.68-.35-.86-.87-.86H12a.76.76,0,0,0-.84.78v1a.79.79,0,0,0,.84.82h.7C13.42,2.62,13.63,2.32,13.63,1.76Zm11,14.58V13.75h-.68v2.59ZM10.81,1.89V1.71h-.65v.12c0,.15-.12.26-.33.26H9.5c-.18,0-.33-.23-.33-.39V1A.34.34,0,0,1,9.55.6h.28c.25,0,.31.11.31.26V1h.63V.75C10.78.34,10.6,0,10,0H9.34a.84.84,0,0,0-.88.82v1a.82.82,0,0,0,.88.8h.6C10.41,2.62,10.81,2.46,10.81,1.89Zm8.75,9.62V8.06A1.58,1.58,0,0,0,18.06,6.7H15.44a.37.37,0,0,1,0-.74h3.47a.38.38,0,0,0,.35-.32v-2a.37.37,0,0,0-.35-.31H14.07A1.58,1.58,0,0,0,12.52,4.9V8A1.61,1.61,0,0,0,14,9.5h2.56a.37.37,0,0,1,.34.39.37.37,0,0,1-.34.41H12.85a.45.45,0,0,0-.39.38v1.87a.38.38,0,0,0,.32.36h5.3A1.6,1.6,0,0,0,19.56,11.51Zm3.85,3.86v-.69a.84.84,0,0,0-1-.94H21.07v2.59h1.31C23,16.33,23.4,16.07,23.4,15.37Zm-2.92.15V13.75h-.7v1.69c0,.16-.06.34-.28.34h-.33c-.17,0-.25-.16-.25-.34V13.75h-.7v1.78a.71.71,0,0,0,.75.81h.71A.73.73,0,0,0,20.48,15.52Zm-8.72-2.94V3.66a.32.32,0,0,0-.32-.33H8.83a.33.33,0,0,0-.32.33v8.93a.33.33,0,0,0,.32.33h2.61A.33.33,0,0,0,11.76,12.59Zm6.33,3.75-.82-2.59H16.19l-.78,2.59h.72l.13-.38h1l.11.38Zm-3.61,0v-.57h-1.2v-2h-.66v2.59ZM7.62,12.57V.42A.35.35,0,0,0,7.27.09H4.69a.41.41,0,0,0-.38.44V3.35H1.64A1.66,1.66,0,0,0,0,4.85v6.48a1.58,1.58,0,0,0,1.6,1.59H7.25A.37.37,0,0,0,7.62,12.57Zm4.73,3.76-.8-2.59h-1.1l-.78,2.59h.73l.11-.38h1l.12.38Zm-2.42-2v-.59H7.86v.59h.69v2h.66v-2Zm-2.37,2V13.75H6.88v2.59ZM6.32,15.7v-.75H5.21v.46h.47v.11c0,.18-.11.29-.36.29H5c-.23,0-.32-.19-.32-.47v-.59c0-.29.11-.44.32-.44h.39c.18,0,.23.13.23.29H6.3v-.16a.67.67,0,0,0-.67-.69H4.82a.81.81,0,0,0-.85.9v.73c0,.62.34,1,.82,1H5.7A.69.69,0,0,0,6.32,15.7Zm-2.76.63V13.75H2.89v2.59Zm-1.11-.74v-1a.83.83,0,0,0-.87-.87H.12v2.59h1.5A.84.84,0,0,0,2.45,15.59ZM21.84,1.71h-.69L21.49.63ZM19.54,1c0,.17-.07.36-.2.36h-.69V.66h.69C19.47.66,19.54.87,19.54,1Zm7.35,5.9a0,0,0,0,1,0,0H25a0,0,0,0,1,0,0V5.83a1,1,0,0,0-1.1-.95,1.07,1.07,0,0,0-1.12.95v4.66a1.13,1.13,0,0,0,1.14,1,1.1,1.1,0,0,0,1.09-1V9.22a0,0,0,0,1,0,0h1.74a0,0,0,0,1,0,0v2.22a1,1,0,0,1-.88.89H21.71a1,1,0,0,1-.83-.95V4.77a1.08,1.08,0,0,1,.82-.85H26a1,1,0,0,1,.91.94Zm-.08,8.44c0,.24-.08.39-.31.39h-.42c-.23,0-.32-.13-.32-.39v-.73a.35.35,0,0,1,.32-.35h.42a.34.34,0,0,1,.31.35ZM12.93,1.73A.31.31,0,0,1,12.6,2h-.37c-.27,0-.34-.1-.34-.32V.92c0-.23.08-.34.34-.34h.37c.25,0,.32.11.32.34ZM19,11.41a1,1,0,0,1-1.06.94H13.06a0,0,0,0,1,0,0V10.91a0,0,0,0,1,0,0h3.36a1,1,0,0,0,0-2H14A1,1,0,0,1,13.11,8V4.75c0-.48.54-.83,1-.83h4.52s0,0,0,0V5.35a0,0,0,0,1,0,0H15.49a.94.94,0,0,0-.87.93,1,1,0,0,0,.87.94H18a1,1,0,0,1,1,1.09ZM22.7,15.3c0,.3-.11.42-.39.42h-.55V14.34h.52c.34,0,.42.13.42.43Zm-11.5-3a0,0,0,0,1,0,0h-2a0,0,0,0,1,0,0V3.95a0,0,0,0,1,0,0h2a0,0,0,0,1,0,0Zm5.89,3.1H16.4l.34-1.1ZM7,12.33a0,0,0,0,1,0,0H1.52a1,1,0,0,1-.91-1V5a.93.93,0,0,1,.91-1h3a.4.4,0,0,0,.41-.43V.68a0,0,0,0,1,0,0H7a0,0,0,0,1,0,0Zm4.32,3.11h-.66l.32-1.1ZM1.77,15.3c0,.31-.16.44-.39.44H.81V14.36h.57c.24,0,.39.15.39.45ZM5,10.43V5.81A1.14,1.14,0,0,0,3.79,4.72,1.15,1.15,0,0,0,2.6,5.81v4.62a1.18,1.18,0,0,0,2.37,0Zm-.59,0a.56.56,0,0,1-.59.54.58.58,0,0,1-.6-.54V5.81a.58.58,0,0,1,.6-.51.57.57,0,0,1,.59.51Z" class="cls-1"/><path d="M119.09,14.11a1.34,1.34,0,0,0,.08.65c.08.11.19.15.41.16v.13h-1.22v-.13c.43,0,.51-.17.51-.89V11.89c0-.52,0-.59-.46-.61v-.13h1l2.21,3.16V12.16a1.51,1.51,0,0,0-.09-.73c-.08-.11-.19-.15-.42-.16v-.13h1.24v.13c-.42,0-.51.18-.51.82v3h-.33l-2.42-3.47Z" class="cls-1"/><path d="M122.88,13.93h.19a1.15,1.15,0,0,0,.24.72,1,1,0,0,0,.77.31.7.7,0,0,0,.7-.37.81.81,0,0,0,.07-.36c0-.37-.22-.59-1-.95a2.54,2.54,0,0,1-.79-.48.9.9,0,0,1-.26-.66,1,1,0,0,1,.34-.79,1.16,1.16,0,0,1,.81-.27,2.38,2.38,0,0,1,.65.09l.19,0a1,1,0,0,0,.32-.08l0,1.1h-.19a1.34,1.34,0,0,0-.16-.59.84.84,0,0,0-.76-.4.68.68,0,0,0-.56.22.75.75,0,0,0-.16.47.58.58,0,0,0,.18.44,2,2,0,0,0,.65.4,3.35,3.35,0,0,1,.9.53,1,1,0,0,1,.3.76,1,1,0,0,1-.33.77,1.35,1.35,0,0,1-.91.29,3.24,3.24,0,0,1-.71-.09l-.18,0a1.83,1.83,0,0,0-.36.05Z" class="cls-1"/><path d="M129,12.39a1.46,1.46,0,0,0-.27-.73,1.13,1.13,0,0,0-.9-.45,1.06,1.06,0,0,0-.9.5,2.56,2.56,0,0,0-.31,1.33c0,1.13.52,1.87,1.32,1.87a1.35,1.35,0,0,0,1.28-1l.16.07a1.89,1.89,0,0,1-.44.71,1.66,1.66,0,0,1-1.15.41,1.7,1.7,0,0,1-1.26-.52,2.06,2.06,0,0,1-.52-1.47,2.13,2.13,0,0,1,.74-1.73,1.78,1.78,0,0,1,1.06-.34,2.21,2.21,0,0,1,.67.11,1.41,1.41,0,0,0,.42.09.65.65,0,0,0,.28-.08v1.2Z" class="cls-1"/><path d="M129.72,14.92a.51.51,0,0,0,.35-.08c.06-.06.08-.17.08-.47V11.82c0-.31,0-.42-.09-.48a.54.54,0,0,0-.34-.07v-.13h1.53a2.58,2.58,0,0,1,1.26.24,1.79,1.79,0,0,1,.81,1.68,1.86,1.86,0,0,1-.77,1.69,2.66,2.66,0,0,1-1.42.3h-1.42Zm1.47,0a1.51,1.51,0,0,0,1.14-.41,2,2,0,0,0,.39-1.33,2.48,2.48,0,0,0-.3-1.32,1.38,1.38,0,0,0-1.27-.54h-.45v3.59Z" class="cls-1"/><path d="M134,13.35h1.2v.34H134Z" class="cls-1"/><path d="M136.09,11.71a1.16,1.16,0,0,1,1-.57,1.18,1.18,0,0,1,1,.57,3,3,0,0,1,.33,1.42,2.93,2.93,0,0,1-.33,1.42,1.17,1.17,0,0,1-1,.58,1.16,1.16,0,0,1-1-.58,2.89,2.89,0,0,1-.33-1.42A2.86,2.86,0,0,1,136.09,11.71Zm1,3.28c.55,0,.79-.57.79-1.86s-.24-1.86-.79-1.86-.79.57-.79,1.86S136.58,15,137.13,15Z" class="cls-1"/><path d="M139.58,14.9c.48,0,.52-.06.52-.6V12c0-.44,0-.44-.06-.48s-.11,0-.26,0h-.19V11.3a8,8,0,0,0,1.09-.14c0,.43,0,.87,0,1.46v1.68c0,.35,0,.47.1.53s.11.06.4.08v.15h-1.56Z" class="cls-1"/><path d="M62.26,15.07a1.32,1.32,0,0,1-.72.23c-.28,0-.45-.11-.7-.43a1.79,1.79,0,0,1-.59.09,1.74,1.74,0,0,1-1.38-.61A2.08,2.08,0,0,1,58.42,13a1.83,1.83,0,0,1,1.83-2.07,1.79,1.79,0,0,1,1.82,2,2.53,2.53,0,0,1-.34,1.33,1.46,1.46,0,0,1-.44.47c.2.26.38.37.57.37a1,1,0,0,0,.37-.1Zm-2.2-1.38c.38,0,.67.2,1,.73a1.53,1.53,0,0,0,.21-.42,3.43,3.43,0,0,0,.15-1.06c0-1.19-.47-1.91-1.24-1.91a1,1,0,0,0-.91.55,2.8,2.8,0,0,0-.3,1.36,2.47,2.47,0,0,0,.32,1.33A.72.72,0,0,1,60.06,13.69ZM59.9,14a.39.39,0,0,0-.36.2.73.73,0,0,0-.08.24.86.86,0,0,0,.8.4,1.21,1.21,0,0,0,.47-.1C60.4,14.16,60.19,14,59.9,14Z" class="cls-1"/><path d="M64.68,14.92a4.3,4.3,0,0,1,0-.56,1.11,1.11,0,0,1-1,.58.71.71,0,0,1-.74-.56,3.42,3.42,0,0,1,0-.67v-.94c0-.28,0-.39-.08-.44s-.07,0-.29-.05v-.12l.9-.06c0,.49,0,.63,0,1v.49a3.57,3.57,0,0,0,0,.69c.06.31.2.44.45.44a.75.75,0,0,0,.66-.5,1.4,1.4,0,0,0,.1-.63v-.83c0-.28,0-.39-.08-.44s-.06,0-.29-.06v-.12l.91-.06c0,.08,0,.08,0,.34s0,.42,0,.68v1a1,1,0,0,0,.09.54c.05.06.1.07.27.07v.12Z" class="cls-1"/><path d="M65.9,14.77c.36,0,.39-.05.39-.55V11.59c0-.45,0-.49-.39-.49V11l.93,0c0,.36,0,.76,0,1.08v2.21c0,.5,0,.53.4.55v.12H65.9Z" class="cls-1"/><path d="M70.22,14.87l-.61.05c-.17,0-.21-.09-.23-.43a1.23,1.23,0,0,1-.95.45.71.71,0,0,1-.79-.75c0-.43.27-.71.81-.83a6,6,0,0,1,.93-.12v-.34c0-.53-.12-.7-.48-.7a.47.47,0,0,0-.52.51c0,.11,0,.15-.06.18a.32.32,0,0,1-.21.05c-.2,0-.29-.06-.29-.18a.62.62,0,0,1,.35-.51,1.58,1.58,0,0,1,.81-.18,1,1,0,0,1,.74.23.87.87,0,0,1,.17.63v1.28a1.32,1.32,0,0,0,.05.47s.11.06.3.06Zm-.84-1.5a2.27,2.27,0,0,0-.84.18.63.63,0,0,0-.35.61c0,.35.18.59.44.59a.75.75,0,0,0,.64-.38,1.49,1.49,0,0,0,.12-.7Z" class="cls-1"/><path d="M70.61,14.77c.36,0,.39-.05.39-.55V11.59c0-.45,0-.49-.39-.49V11l.93,0c0,.36,0,.76,0,1.08v2.21c0,.5,0,.53.4.55v.12h-1.3Z" class="cls-1"/><path d="M73.24,12.1c0,.31,0,.75,0,1v1.12c0,.49,0,.53.4.54v.12H72.3v-.12c.37,0,.4-.05.4-.54V12.78c0-.47,0-.5-.4-.5v-.12Zm-.29-1.17a.33.33,0,1,1-.33.33A.32.32,0,0,1,72.94,10.93Z" class="cls-1"/><path d="M74.87,12.65a1,1,0,0,1,.9-.57.69.69,0,0,1,.74.6,1,1,0,0,1,.92-.6.76.76,0,0,1,.63.26,1.06,1.06,0,0,1,.17.71v1.16c0,.5,0,.53.4.55v.12H77.32v-.12c.36,0,.39-.05.39-.55V13.12c0-.63-.12-.83-.49-.83a.6.6,0,0,0-.49.3,1,1,0,0,0-.19.62v1c0,.5,0,.53.39.55v.12H75.65v-.12c.36,0,.39-.05.39-.55V13.07c0-.52-.15-.77-.47-.77a.63.63,0,0,0-.51.3.9.9,0,0,0-.18.58v1c0,.5,0,.53.38.55v.12H74v-.12c.37,0,.4-.05.4-.55V12.77c0-.41-.06-.49-.38-.49v-.12l.88-.06Z" class="cls-1"/><path d="M79.08,14h.18a1,1,0,0,0,.15.52.69.69,0,0,0,.59.3c.35,0,.57-.18.57-.49a.38.38,0,0,0-.13-.31,2,2,0,0,0-.61-.33c-.58-.26-.76-.45-.76-.82a.8.8,0,0,1,.87-.81,2,2,0,0,1,.36,0l.25,0a1.05,1.05,0,0,0,.25,0l0,.87h-.18c0-.5-.26-.77-.64-.77a.47.47,0,0,0-.53.46.35.35,0,0,0,.15.3,2.84,2.84,0,0,0,.58.29,1.64,1.64,0,0,1,.6.36.75.75,0,0,1,.17.51A.79.79,0,0,1,80,15a2.69,2.69,0,0,1-.53-.06l-.19,0-.25,0Z" class="cls-1"/><path d="M82.31,14.1a1,1,0,0,0,.08.53.28.28,0,0,0,.24.12.7.7,0,0,0,.36-.11l.05.13a1.11,1.11,0,0,1-.59.17.61.61,0,0,1-.57-.27A1.37,1.37,0,0,1,81.8,14V12.31h-.33v-.14c.34,0,.51-.24.6-.76l.25-.06c0,.21,0,.43,0,.81H83v.16h-.64Z" class="cls-1"/><path d="M84,13.38a2,2,0,0,0,.13.82.79.79,0,0,0,.77.57,1,1,0,0,0,.88-.61l.13.08a1.19,1.19,0,0,1-1.15.73,1.3,1.3,0,0,1-1.31-1.41,1.32,1.32,0,0,1,1.29-1.47,1,1,0,0,1,1,.68,2,2,0,0,1,.09.61Zm1.35-.15a1.64,1.64,0,0,0-.1-.61.55.55,0,0,0-.52-.4.64.64,0,0,0-.58.43,1.66,1.66,0,0,0-.14.58Z" class="cls-1"/><path d="M86.29,14.77c.36,0,.39-.05.39-.55V11.59c0-.45,0-.49-.39-.49V11l.93,0c0,.36,0,.76,0,1.08v2.21c0,.5,0,.53.4.55v.12h-1.3Z" class="cls-1"/><path d="M88,14.77c.36,0,.39-.05.39-.55V11.59c0-.45,0-.49-.39-.49V11l.93,0c0,.36,0,.76,0,1.08v2.21c0,.5,0,.53.4.55v.12H88Z" class="cls-1"/><path d="M92.3,14.87l-.61.05c-.17,0-.21-.09-.24-.43a1.22,1.22,0,0,1-.95.45.71.71,0,0,1-.79-.75c0-.43.27-.71.81-.83a6,6,0,0,1,.93-.12v-.34c0-.53-.12-.7-.48-.7a.47.47,0,0,0-.52.51c0,.11,0,.15-.06.18a.32.32,0,0,1-.21.05c-.2,0-.29-.06-.29-.18a.62.62,0,0,1,.35-.51,1.58,1.58,0,0,1,.81-.18,1,1,0,0,1,.74.23.87.87,0,0,1,.17.63v1.28a1.32,1.32,0,0,0,.05.47s.11.06.3.06Zm-.84-1.5a2.27,2.27,0,0,0-.84.18.63.63,0,0,0-.35.61c0,.35.18.59.44.59a.75.75,0,0,0,.64-.38,1.49,1.49,0,0,0,.12-.7Z" class="cls-1"/><path d="M43.15,15a2.22,2.22,0,0,1,.38-1,5.2,5.2,0,0,1,1.1-1.07,1.59,1.59,0,0,0,.42-.44.94.94,0,0,0,.12-.46.69.69,0,0,0-.7-.76.57.57,0,0,0-.59.4,1.25,1.25,0,0,0-.06.42c0,.19-.08.25-.28.25s-.31-.07-.31-.24a.89.89,0,0,1,.39-.71,1.42,1.42,0,0,1,.89-.26,1.51,1.51,0,0,1,.87.24.83.83,0,0,1,.36.73c0,.46-.2.74-.8,1.1a5,5,0,0,0-1.07.74,1.53,1.53,0,0,0-.44.66H45c.4,0,.54-.13.64-.58l.17,0-.16,1Z" class="cls-1"/><path d="M46.68,11.67a1.16,1.16,0,0,1,1-.57,1.18,1.18,0,0,1,1,.57,3,3,0,0,1,.33,1.42,2.93,2.93,0,0,1-.33,1.42,1.17,1.17,0,0,1-1,.58,1.16,1.16,0,0,1-1-.58,2.88,2.88,0,0,1-.33-1.42A2.86,2.86,0,0,1,46.68,11.67Zm1,3.28c.55,0,.79-.57.79-1.86s-.24-1.86-.79-1.86-.79.57-.79,1.86S47.16,14.95,47.72,14.95Z" class="cls-1"/><path d="M50.17,14.85c.48,0,.52-.06.52-.6V11.93c0-.44,0-.44-.06-.48s-.11,0-.26,0h-.19v-.15a7.89,7.89,0,0,0,1.09-.14c0,.43,0,.87,0,1.46v1.68c0,.35,0,.47.1.53s.11.06.4.08V15H50.17Z" class="cls-1"/><path d="M53.63,11.63a.4.4,0,0,0-.43.22,1.64,1.64,0,0,0-.15.46l-.17,0L53,11.17H55.5v.33a7.59,7.59,0,0,0-.82,1.56,6.29,6.29,0,0,0-.3,1,3.77,3.77,0,0,0-.09.76c0,.22-.1.29-.36.29s-.29-.06-.29-.2a9.44,9.44,0,0,1,1.55-3.27Z" class="cls-1"/><path d="M151.53,14c0,.45,0,.63.09.72s.18.16.41.17v.13h-1.21v-.13c.41,0,.5-.17.5-.89V11.82c0-.47,0-.54-.42-.55v-.13H152l1.23,3.12,1.23-3.12h1.06v.13c-.4,0-.43.06-.43.55v2.54c0,.49,0,.54.43.55v.13h-1.41v-.13c.4,0,.43-.06.43-.55V11.44L153.16,15h-.24l-1.39-3.53Z" class="cls-1"/><path d="M158.56,15l-.61.05c-.17,0-.21-.09-.24-.43a1.23,1.23,0,0,1-.95.45.71.71,0,0,1-.79-.75c0-.43.27-.71.81-.83a6,6,0,0,1,.93-.12v-.34c0-.53-.12-.7-.48-.7a.47.47,0,0,0-.52.51c0,.11,0,.15-.06.18a.32.32,0,0,1-.21.05c-.2,0-.29-.06-.29-.18a.62.62,0,0,1,.35-.51,1.58,1.58,0,0,1,.81-.18,1,1,0,0,1,.74.23.87.87,0,0,1,.17.63v1.28a1.32,1.32,0,0,0,.05.47s.11.06.3.06Zm-.84-1.5a2.27,2.27,0,0,0-.84.18.63.63,0,0,0-.35.61c0,.35.18.59.44.59a.75.75,0,0,0,.64-.38,1.49,1.49,0,0,0,.12-.7Z" class="cls-1"/><path d="M161.57,11.09c0,.35,0,.65,0,1.07v2.09c0,.51,0,.51,0,.58s.1.09.25.09h.05v.12l-.81,0,0-.44a1.06,1.06,0,0,1-1.68.12,1.54,1.54,0,0,1-.32-1c0-.9.49-1.5,1.21-1.5a1,1,0,0,1,.76.34v-.8c0-.51,0-.53-.4-.53v-.12Zm-1.24,1.3c-.46,0-.71.46-.71,1.3a2.17,2.17,0,0,0,.18,1,.52.52,0,0,0,.5.33c.48,0,.76-.49.76-1.29S160.8,12.39,160.33,12.39Z" class="cls-1"/><path d="M162.9,13.55a2,2,0,0,0,.13.82.79.79,0,0,0,.78.57,1,1,0,0,0,.88-.61l.13.08a1.19,1.19,0,0,1-1.15.73,1.3,1.3,0,0,1-1.31-1.41,1.32,1.32,0,0,1,1.29-1.47,1,1,0,0,1,1,.68,2,2,0,0,1,.09.61Zm1.35-.15a1.65,1.65,0,0,0-.1-.61.55.55,0,0,0-.52-.4.64.64,0,0,0-.58.43,1.66,1.66,0,0,0-.14.58Z" class="cls-1"/><path d="M168,12.27c0,.31,0,.75,0,1v1.12c0,.49,0,.53.4.54v.12h-1.3v-.12c.37,0,.4-.05.4-.54V12.95c0-.47,0-.5-.4-.5v-.12Zm-.29-1.17a.33.33,0,1,1-.33.33A.32.32,0,0,1,167.7,11.1Z" class="cls-1"/><path d="M169.62,12.81a1,1,0,0,1,1-.56.75.75,0,0,1,.71.34,1.16,1.16,0,0,1,.14.67v1.13c0,.5,0,.53.39.55v.12h-1.28v-.12c.19,0,.27,0,.32-.09a.27.27,0,0,0,.05-.18c0-.09,0-.22,0-.29v-1.1c0-.6-.16-.85-.53-.85a.67.67,0,0,0-.58.36,1.32,1.32,0,0,0-.17.63v1c0,.5,0,.53.4.55v.12h-1.29v-.12c.36,0,.4-.05.4-.55V12.94c0-.41-.06-.49-.38-.49v-.12l.88-.06Z" class="cls-1"/><path d="M175.89,14.37c0,.5,0,.55.51.55v.13h-1.59v-.13c.46,0,.51-.05.51-.55V11.28c-.92,0-1.1.17-1.25,1.07l-.18,0,.1-1.19h3.21l.1,1.19-.18,0c-.14-.89-.33-1.06-1.24-1.07Z" class="cls-1"/><path d="M180.25,15l-.61.05c-.17,0-.21-.09-.24-.43a1.23,1.23,0,0,1-.95.45.71.71,0,0,1-.79-.75c0-.43.27-.71.81-.83a6,6,0,0,1,.93-.12v-.34c0-.53-.12-.7-.48-.7a.47.47,0,0,0-.52.51c0,.11,0,.15-.06.18a.32.32,0,0,1-.21.05c-.2,0-.29-.06-.29-.18a.62.62,0,0,1,.35-.51,1.58,1.58,0,0,1,.81-.18,1,1,0,0,1,.74.23.87.87,0,0,1,.17.63v1.28a1.32,1.32,0,0,0,.05.47s.11.06.3.06Zm-.84-1.5a2.27,2.27,0,0,0-.84.18.63.63,0,0,0-.35.61c0,.35.18.59.44.59a.75.75,0,0,0,.64-.38,1.49,1.49,0,0,0,.12-.7Z" class="cls-1"/><path d="M181.57,12.27c0,.31,0,.75,0,1v1.12c0,.49,0,.53.4.54v.12h-1.3v-.12c.37,0,.4-.05.4-.54V12.95c0-.47,0-.5-.4-.5v-.12Zm-.29-1.17a.33.33,0,1,1-.33.33A.32.32,0,0,1,181.28,11.1Z" class="cls-1"/><path d="M183.59,15.08h-.31l-.66-2.22c-.1-.32-.18-.39-.42-.41v-.12h1.26v.12c-.26,0-.36.08-.36.22a1,1,0,0,0,0,.24l.47,1.63.7-2.14h.25l.67,2.14.45-1.51a1.34,1.34,0,0,0,.06-.33.23.23,0,0,0-.16-.22l-.25,0v-.12h1.09v.12c-.29,0-.41.13-.54.56l-.64,2.07h-.31l-.66-2Z" class="cls-1"/><path d="M189.31,15l-.61.05c-.17,0-.21-.09-.23-.43a1.23,1.23,0,0,1-.95.45.71.71,0,0,1-.79-.75c0-.43.27-.71.81-.83a6,6,0,0,1,.93-.12v-.34c0-.53-.12-.7-.48-.7a.47.47,0,0,0-.52.51c0,.11,0,.15-.06.18a.32.32,0,0,1-.21.05c-.2,0-.29-.06-.29-.18a.62.62,0,0,1,.35-.51,1.58,1.58,0,0,1,.81-.18,1,1,0,0,1,.74.23.87.87,0,0,1,.17.63v1.28a1.32,1.32,0,0,0,.05.47s.11.06.3.06Zm-.84-1.5a2.27,2.27,0,0,0-.84.18.63.63,0,0,0-.35.61c0,.35.18.59.44.59a.75.75,0,0,0,.64-.38,1.49,1.49,0,0,0,.12-.7Z" class="cls-1"/><path d="M190.57,12.81a1,1,0,0,1,1-.56.75.75,0,0,1,.71.34,1.16,1.16,0,0,1,.14.67v1.13c0,.5,0,.53.39.55v.12h-1.28v-.12c.19,0,.27,0,.32-.09a.27.27,0,0,0,.05-.18c0-.09,0-.22,0-.29v-1.1c0-.6-.15-.85-.53-.85a.67.67,0,0,0-.58.36,1.32,1.32,0,0,0-.17.63v1c0,.5,0,.53.4.55v.12h-1.29v-.12c.36,0,.4-.05.4-.55V12.94c0-.41-.06-.49-.38-.49v-.12l.88-.06Z" class="cls-1"/><path d="M194.18,14.73a.39.39,0,0,1-.4.4.4.4,0,0,1-.4-.4.4.4,0,0,1,.8,0Z" class="cls-1"/><path d="M196.85,13.93H197a1.15,1.15,0,0,0,.24.72,1,1,0,0,0,.77.31.7.7,0,0,0,.7-.37.8.8,0,0,0,.07-.36c0-.37-.22-.59-1-.95a2.54,2.54,0,0,1-.79-.48.9.9,0,0,1-.26-.66,1,1,0,0,1,.34-.79,1.16,1.16,0,0,1,.81-.27,2.34,2.34,0,0,1,.65.09l.19,0a1,1,0,0,0,.32-.08l0,1.1h-.19a1.34,1.34,0,0,0-.16-.59.84.84,0,0,0-.76-.4.69.69,0,0,0-.56.22.75.75,0,0,0-.16.47.57.57,0,0,0,.18.44,2,2,0,0,0,.65.4,3.36,3.36,0,0,1,.9.54,1,1,0,0,1,.3.76.94.94,0,0,1-.33.77,1.35,1.35,0,0,1-.91.29,3.3,3.3,0,0,1-.71-.09l-.18,0a1.89,1.89,0,0,0-.36.05Z" class="cls-1"/><path d="M201.69,14.37c0,.5,0,.55.51.55v.13h-1.59v-.13c.46,0,.51-.05.51-.55V11.28c-.92,0-1.1.17-1.25,1.07l-.18,0,.1-1.19H203l.1,1.19-.18,0c-.14-.89-.33-1.06-1.24-1.07Z" class="cls-1"/><path d="M203.44,14.92a.52.52,0,0,0,.35-.08c.06-.06.08-.17.08-.47V11.83c0-.32,0-.42-.09-.48a.55.55,0,0,0-.34-.07v-.13h2.77l.09,1h-.17c-.13-.67-.35-.86-1.05-.86h-.67v1.64h.5c.59,0,.7-.09.75-.56h.16v1.29h-.16a.73.73,0,0,0-.15-.44.93.93,0,0,0-.6-.13h-.5v1.8h.77c.68,0,.91-.2,1.06-1l.15,0-.11,1.12h-2.85Z" class="cls-1"/><path d="M207.89,14.38c0,.49,0,.54.44.55v.13h-1.41v-.13c.4,0,.43-.06.43-.55V11.83c0-.49,0-.54-.43-.55v-.13h1.53c1,0,1.46.3,1.46,1a1,1,0,0,1-.19.62,1.36,1.36,0,0,1-.94.41v0a1,1,0,0,1,.6.33,1.8,1.8,0,0,1,.27.45l.22.49c.18.38.28.48.53.5v.12h-.9a11.34,11.34,0,0,0-.57-1.4.73.73,0,0,0-.74-.45h-.29Zm.4-1.33a1.25,1.25,0,0,0,.7-.17.83.83,0,0,0,.33-.73c0-.57-.32-.84-1-.84h-.44V13Z" class="cls-1"/><path d="M210.68,14.92a.52.52,0,0,0,.35-.08c.06-.06.07-.17.07-.47V11.83c0-.32,0-.42-.09-.48a.55.55,0,0,0-.34-.07v-.13h2.77l.09,1h-.17c-.13-.67-.35-.86-1.05-.86h-.67v1.64h.5c.59,0,.7-.09.75-.56h.16v1.29h-.16a.72.72,0,0,0-.15-.44.94.94,0,0,0-.6-.13h-.5v1.8h.77c.68,0,.91-.2,1.06-1l.15,0-.11,1.12h-2.85Z" class="cls-1"/><path d="M216.11,11.07a1.82,1.82,0,0,1,1.83,2,1.84,1.84,0,1,1-3.66,0A1.82,1.82,0,0,1,216.11,11.07Zm-.94,3.36a1,1,0,0,0,.94.56c.77,0,1.22-.7,1.22-1.89a2.7,2.7,0,0,0-.28-1.33,1,1,0,0,0-.94-.56,1,1,0,0,0-.94.56,2.72,2.72,0,0,0-.29,1.33A2.67,2.67,0,0,0,215.17,14.42Z" class="cls-1"/><path d="M219.54,14.73a.39.39,0,0,1-.4.4.4.4,0,0,1-.4-.4.4.4,0,0,1,.8,0Z" class="cls-1"/><path d="M146.45,13.88c0,.29,0,.32.32.33v.08h-1.06v-.08c.3,0,.33,0,.33-.33v-.61l-.59-1c-.14-.24-.21-.3-.36-.32v-.08h1V12c-.17,0-.24,0-.24.13s0,.1.1.23l.43.72.43-.69a.52.52,0,0,0,.09-.24.14.14,0,0,0-.11-.13l-.18,0v-.08h.84V12c-.21,0-.33.12-.52.42l-.48.76Z" class="cls-1"/><path d="M146.26,15.55a2.45,2.45,0,1,1,2.45-2.45A2.45,2.45,0,0,1,146.26,15.55Zm0-4.65a2.2,2.2,0,1,0,2.2,2.2A2.2,2.2,0,0,0,146.26,10.9Z" class="cls-1"/><path d="M37.61,13.88c0,.29,0,.32.31.33v.08h-1v-.08c.26,0,.29,0,.29-.33V12.32c0-.29,0-.32-.27-.33v-.08h1c.65,0,.93.2.93.66a.6.6,0,0,1-.41.63,2,2,0,0,1-.64.08h-.16Zm.17-.68a.63.63,0,0,0,.44-.13.65.65,0,0,0,.16-.47c0-.39-.19-.59-.56-.59h-.2v1.2Z" class="cls-1"/><path d="M37.86,15.55a2.45,2.45,0,1,1,2.45-2.45A2.45,2.45,0,0,1,37.86,15.55Zm0-4.65a2.2,2.2,0,1,0,2.2,2.2A2.2,2.2,0,0,0,37.86,10.9Z" class="cls-1"/><path d="M96.5,14.56c.2,0,.26,0,.32-.05s.13-.16.13-.44v-2a1.14,1.14,0,0,0,0-.26c0-.09-.07-.12-.29-.12h-.12V11.6c.41,0,.72-.08,1-.13,0,.31,0,.67,0,1.08v1.52c0,.26,0,.37.1.43s.11.06.33.06v.12H96.5Z" class="cls-1"/><path d="M99,12a.33.33,0,0,0-.34.17,1.19,1.19,0,0,0-.13.38l-.14,0,.13-1h2.06v.3a5.68,5.68,0,0,0-.68,1.3,4.83,4.83,0,0,0-.21.76,3.47,3.47,0,0,0-.05.58.28.28,0,0,1-.09.23.48.48,0,0,1-.28.07q-.28,0-.28-.21a3.91,3.91,0,0,1,.59-1.49,12.69,12.69,0,0,1,.7-1.08Z" class="cls-1"/><path d="M102.36,13.13a.46.46,0,1,1-.46-.45A.45.45,0,0,1,102.36,13.13Z" class="cls-1"/><path d="M103.21,14.56c.2,0,.26,0,.32-.05s.13-.16.13-.44v-2a1.06,1.06,0,0,0,0-.26c0-.09-.07-.12-.29-.12h-.12V11.6c.41,0,.72-.08,1-.13,0,.31,0,.67,0,1.08v1.52c0,.26,0,.37.1.43s.11.06.33.06v.12h-1.43Z" class="cls-1"/><path d="M105.35,11.89a1,1,0,0,1,1.66,0,2.17,2.17,0,0,1,.31,1.22,2.15,2.15,0,0,1-.31,1.22,1,1,0,0,1-1.66,0,2.21,2.21,0,0,1-.31-1.22A2.18,2.18,0,0,1,105.35,11.89Zm.4,2.38c.09.25.24.37.44.37s.37-.15.47-.45a3.74,3.74,0,0,0,.11-1.09,3.34,3.34,0,0,0-.14-1.16c-.09-.25-.24-.38-.44-.38-.4,0-.58.47-.58,1.54A3.45,3.45,0,0,0,105.74,14.27Z" class="cls-1"/><path d="M109.1,13.13a.46.46,0,1,1-.46-.45A.45.45,0,0,1,109.1,13.13Z" class="cls-1"/><path d="M109.61,14.68a1.88,1.88,0,0,1,.29-.84,3.89,3.89,0,0,1,.85-.86,1.31,1.31,0,0,0,.36-.39.89.89,0,0,0,.09-.4c0-.38-.2-.62-.51-.62a.39.39,0,0,0-.4.29,1.2,1.2,0,0,0,0,.39c0,.17-.09.24-.28.24s-.3-.07-.3-.23a.74.74,0,0,1,.36-.6,1.24,1.24,0,0,1,.71-.19c.65,0,1,.3,1,.79a.8.8,0,0,1-.19.54,1.82,1.82,0,0,1-.47.35,4,4,0,0,0-.89.58,1.13,1.13,0,0,0-.34.49h1.25c.35,0,.48-.11.55-.5l.15,0-.15.93Z" class="cls-1"/><path d="M113.13,13.52a.93.93,0,0,1-1-1,1,1,0,0,1,1.11-1.1,1,1,0,0,1,.86.42A1.89,1.89,0,0,1,114.4,13c0,1.15-.42,1.75-1.21,1.75-.53,0-.92-.23-.92-.55s.12-.27.31-.27a.3.3,0,0,1,.24.08s0,0,0,.23.14.39.34.39.44-.2.53-.57a3.72,3.72,0,0,0,.09-.82A.92.92,0,0,1,113.13,13.52Zm.62-.44a.85.85,0,0,0,.09-.44,2.13,2.13,0,0,0-.14-.78.48.48,0,0,0-.43-.33c-.33,0-.52.37-.52,1a1.12,1.12,0,0,0,.17.67.45.45,0,0,0,.37.2A.57.57,0,0,0,113.75,13.08Z" class="cls-1"/><path d="M115.81,15.55H95.1v-4.9h20.71ZM95.35,15.3h20.21V10.9H95.35Z" class="cls-1"/><path d="M90.2,5.46a1.32,1.32,0,0,1-.72.23c-.28,0-.45-.11-.7-.43a1.79,1.79,0,0,1-.59.09,1.74,1.74,0,0,1-1.38-.61,2.08,2.08,0,0,1-.45-1.38,1.83,1.83,0,0,1,1.83-2.07,1.79,1.79,0,0,1,1.82,2,2.53,2.53,0,0,1-.34,1.33,1.46,1.46,0,0,1-.44.47c.2.26.38.37.57.37a1,1,0,0,0,.37-.1ZM88,4.08c.38,0,.67.2,1,.73a1.53,1.53,0,0,0,.21-.42,3.43,3.43,0,0,0,.15-1.06c0-1.19-.47-1.91-1.24-1.91a1,1,0,0,0-.91.55A2.8,2.8,0,0,0,87,3.34a2.47,2.47,0,0,0,.32,1.33A.72.72,0,0,1,88,4.08Zm-.17.29a.39.39,0,0,0-.36.2.73.73,0,0,0-.08.24.86.86,0,0,0,.8.4,1.21,1.21,0,0,0,.47-.1C88.34,4.55,88.13,4.37,87.84,4.37Z" class="cls-1"/><path d="M92.62,5.31a4.3,4.3,0,0,1,0-.56,1.11,1.11,0,0,1-1,.58.71.71,0,0,1-.74-.56,3.42,3.42,0,0,1,0-.67V3.16c0-.28,0-.39-.08-.44s-.07,0-.29-.05V2.54l.9-.06c0,.49,0,.63,0,1V4a3.57,3.57,0,0,0,0,.69c.06.31.2.44.45.44a.75.75,0,0,0,.66-.5,1.4,1.4,0,0,0,.1-.63V3.16c0-.28,0-.39-.08-.44s-.06,0-.29-.06V2.54l.91-.06c0,.08,0,.08,0,.34s0,.42,0,.68v1a1,1,0,0,0,.09.54c.05.06.1.07.27.07v.12Z" class="cls-1"/><path d="M93.84,5.15c.36,0,.39-.05.39-.55V2c0-.45,0-.49-.39-.49V1.36l.93,0c0,.36,0,.76,0,1.08V4.6c0,.5,0,.53.4.55v.12h-1.3Z" class="cls-1"/><path d="M98.15,5.26l-.61.05c-.17,0-.21-.09-.23-.43a1.23,1.23,0,0,1-.95.45.71.71,0,0,1-.79-.75c0-.43.27-.71.81-.83a6,6,0,0,1,.93-.12V3.3c0-.53-.12-.7-.48-.7a.47.47,0,0,0-.52.51c0,.11,0,.15-.06.18a.32.32,0,0,1-.21.05c-.2,0-.29-.06-.29-.18a.62.62,0,0,1,.35-.51,1.58,1.58,0,0,1,.81-.18,1,1,0,0,1,.74.23.87.87,0,0,1,.17.63V4.61a1.32,1.32,0,0,0,.05.47s.11.06.3.06Zm-.84-1.5a2.27,2.27,0,0,0-.84.18.63.63,0,0,0-.35.61c0,.35.18.59.44.59a.75.75,0,0,0,.64-.38,1.49,1.49,0,0,0,.12-.7Z" class="cls-1"/><path d="M98.55,5.15c.36,0,.39-.05.39-.55V2c0-.45,0-.49-.39-.49V1.36l.93,0c0,.36,0,.76,0,1.08V4.6c0,.5,0,.53.4.55v.12h-1.3Z" class="cls-1"/><path d="M101.18,2.49c0,.31,0,.75,0,1V4.61c0,.49,0,.53.4.54v.12h-1.3V5.15c.37,0,.4-.05.4-.54V3.16c0-.47,0-.5-.4-.5V2.54Zm-.29-1.17a.33.33,0,1,1-.33.33A.32.32,0,0,1,100.88,1.32Z" class="cls-1"/><path d="M102.8,3a1,1,0,0,1,.9-.57.69.69,0,0,1,.74.6,1,1,0,0,1,.92-.6.76.76,0,0,1,.63.26,1.06,1.06,0,0,1,.17.71V4.6c0,.5,0,.53.4.55v.12h-1.29V5.15c.36,0,.39-.05.39-.55V3.51c0-.63-.12-.83-.49-.83a.6.6,0,0,0-.49.3,1,1,0,0,0-.19.62v1c0,.5,0,.53.39.55v.12h-1.28V5.15c.36,0,.39-.05.39-.55V3.46c0-.52-.15-.77-.47-.77A.63.63,0,0,0,103,3a.9.9,0,0,0-.18.58v1c0,.5,0,.53.38.55v.12h-1.28V5.15c.37,0,.4-.05.4-.55V3.15c0-.41-.06-.49-.38-.49V2.54l.88-.06Z" class="cls-1"/><path d="M107,4.4h.18a1,1,0,0,0,.15.52.69.69,0,0,0,.59.3c.35,0,.57-.18.57-.49a.38.38,0,0,0-.13-.31,2,2,0,0,0-.61-.33c-.58-.26-.76-.45-.76-.82a.8.8,0,0,1,.87-.81,2,2,0,0,1,.36,0l.25,0a1.05,1.05,0,0,0,.25,0l0,.87h-.18c0-.5-.26-.77-.64-.77a.47.47,0,0,0-.53.46.35.35,0,0,0,.15.3,2.84,2.84,0,0,0,.58.29,1.64,1.64,0,0,1,.6.36.75.75,0,0,1,.17.51.79.79,0,0,1-.88.83,2.69,2.69,0,0,1-.53-.06l-.19,0-.25,0Z" class="cls-1"/><path d="M110.25,4.49a1,1,0,0,0,.08.53.28.28,0,0,0,.24.12.7.7,0,0,0,.36-.11l.05.13a1.11,1.11,0,0,1-.59.17.61.61,0,0,1-.57-.27,1.37,1.37,0,0,1-.08-.65V2.7h-.33V2.56c.34,0,.51-.24.6-.76l.25-.06c0,.21,0,.43,0,.81h.64V2.7h-.64Z" class="cls-1"/><path d="M111.9,3.76a2,2,0,0,0,.13.82.79.79,0,0,0,.77.57,1,1,0,0,0,.88-.61l.13.08a1.19,1.19,0,0,1-1.15.73,1.3,1.3,0,0,1-1.31-1.41,1.32,1.32,0,0,1,1.29-1.47,1,1,0,0,1,1,.68,2,2,0,0,1,.09.61Zm1.35-.15a1.64,1.64,0,0,0-.1-.61.55.55,0,0,0-.52-.4A.64.64,0,0,0,112,3a1.66,1.66,0,0,0-.14.58Z" class="cls-1"/><path d="M114.23,5.15c.36,0,.39-.05.39-.55V2c0-.45,0-.49-.39-.49V1.36l.93,0c0,.36,0,.76,0,1.08V4.6c0,.5,0,.53.4.55v.12h-1.3Z" class="cls-1"/><path d="M115.93,5.15c.36,0,.39-.05.39-.55V2c0-.45,0-.49-.39-.49V1.36l.93,0c0,.36,0,.76,0,1.08V4.6c0,.5,0,.53.4.55v.12h-1.3Z" class="cls-1"/><path d="M120.24,5.26l-.61.05c-.17,0-.21-.09-.24-.43a1.22,1.22,0,0,1-.95.45.71.71,0,0,1-.79-.75c0-.43.27-.71.81-.83a6,6,0,0,1,.93-.12V3.3c0-.53-.12-.7-.48-.7a.47.47,0,0,0-.52.51c0,.11,0,.15-.06.18a.32.32,0,0,1-.21.05c-.2,0-.29-.06-.29-.18a.62.62,0,0,1,.35-.51,1.58,1.58,0,0,1,.81-.18,1,1,0,0,1,.74.23.87.87,0,0,1,.17.63V4.61a1.32,1.32,0,0,0,.05.47s.11.06.3.06Zm-.84-1.5a2.27,2.27,0,0,0-.84.18.63.63,0,0,0-.35.61c0,.35.18.59.44.59a.75.75,0,0,0,.64-.38,1.49,1.49,0,0,0,.12-.7Z" class="cls-1"/><path d="M38.53,2.24a1.46,1.46,0,0,0-.27-.73,1.13,1.13,0,0,0-.9-.45,1.06,1.06,0,0,0-.9.5,2.56,2.56,0,0,0-.31,1.33c0,1.13.52,1.87,1.32,1.87a1.35,1.35,0,0,0,1.28-1l.15.07a1.87,1.87,0,0,1-.44.71A1.66,1.66,0,0,1,37.31,5a1.7,1.7,0,0,1-1.26-.52A2.06,2.06,0,0,1,35.53,3a2.12,2.12,0,0,1,.74-1.73A1.78,1.78,0,0,1,37.33.91,2.21,2.21,0,0,1,38,1a1.43,1.43,0,0,0,.42.09A.66.66,0,0,0,38.7,1v1.2Z" class="cls-1"/><path d="M39.74,2.46a1.31,1.31,0,0,1,.95-.36A1.28,1.28,0,0,1,42,3.51,1.32,1.32,0,0,1,40.66,5a1.28,1.28,0,0,1-1.31-1.4A1.6,1.6,0,0,1,39.74,2.46Zm.94,2.38a.66.66,0,0,0,.59-.35,2,2,0,0,0,.18-1c0-.86-.27-1.33-.78-1.33a.63.63,0,0,0-.57.34,2.06,2.06,0,0,0-.19,1C39.9,4.37,40.17,4.85,40.67,4.85Z" class="cls-1"/><path d="M43.28,2.56a1,1,0,0,1,.88-.46c.69,0,1.1.51,1.1,1.36A1.82,1.82,0,0,1,45,4.55a1.12,1.12,0,0,1-.89.41,1.06,1.06,0,0,1-.51-.12,1.44,1.44,0,0,1-.26-.21V5.4c0,.49,0,.52.42.54v.12H42.39V5.94c.36,0,.4-.05.4-.54V2.78c0-.41-.06-.49-.38-.49V2.17l.87-.06Zm.14,1.9A.63.63,0,0,0,44,4.8c.46,0,.7-.43.7-1.28s-.22-1.27-.65-1.27-.79.49-.79,1.3A2.08,2.08,0,0,0,43.43,4.46Z" class="cls-1"/><path d="M47.79,2.87a.78.78,0,0,0,.08-.3c0-.19-.11-.26-.4-.28V2.17h1.07v.12c-.27,0-.41.18-.59.65l-1,2.5c-.18.44-.36.62-.65.62S46,6,46,5.76s.05-.21.17-.21l.18,0,.14,0c.19,0,.27-.08.38-.36L47,4.94,46.13,2.8c-.18-.43-.23-.49-.48-.51V2.17H46.9v.12c-.24,0-.32.06-.32.2a.9.9,0,0,0,.08.31l.57,1.55Z" class="cls-1"/><path d="M49.68,2.11c0,.21,0,.33,0,.44s0,.09,0,.17a.93.93,0,0,1,.79-.63.38.38,0,0,1,.42.35c0,.15-.13.25-.31.25s-.19,0-.21-.14-.07-.16-.17-.16-.26.11-.36.3a1.31,1.31,0,0,0-.14.65v.89c0,.49,0,.53.4.54V4.9H48.8V4.78c.36,0,.4-.05.4-.54V2.79c0-.42-.06-.5-.37-.5V2.17Z" class="cls-1"/><path d="M52.07,2.11c0,.31,0,.75,0,1V4.24c0,.49,0,.53.4.54V4.9h-1.3V4.78c.37,0,.4-.05.4-.54V2.79c0-.47,0-.5-.4-.5V2.17ZM51.77.95a.33.33,0,1,1-.33.33A.32.32,0,0,1,51.77.95Z" class="cls-1"/><path d="M54.84,2.36a1,1,0,0,1,.3.72A1,1,0,0,1,54.07,4,2,2,0,0,1,53.59,4c-.2.1-.27.19-.27.31s.14.26.6.26h.35a1.82,1.82,0,0,1,.85.12.55.55,0,0,1,.29.52.79.79,0,0,1-.4.68,1.91,1.91,0,0,1-1,.21,1.81,1.81,0,0,1-.85-.17.53.53,0,0,1-.3-.51c0-.22,0-.28.4-.49a.5.5,0,0,1-.35-.48c0-.15.05-.23.26-.37l.22-.15a1.33,1.33,0,0,1-.28-.22A.9.9,0,0,1,53,3.1a1,1,0,0,1,.27-.72,1.21,1.21,0,0,1,.82-.28,2.17,2.17,0,0,1,.38,0,1.83,1.83,0,0,0,.35,0l.57,0v.21Zm-1.54,3c0,.41.28.61.83.61s.9-.23.9-.6S54.91,5,54.64,5a3.59,3.59,0,0,0-.59,0h-.54C53.36,5,53.3,5.1,53.3,5.32ZM54,3.89c.38,0,.57-.28.57-.82s-.19-.85-.56-.85-.57.28-.57.81S53.69,3.89,54,3.89Z" class="cls-1"/><path d="M56.6,2.66a1,1,0,0,1,1-.56.79.79,0,0,1,.78.38,1.54,1.54,0,0,1,.1.66v1.1c0,.5,0,.53.39.55V4.9H57.54V4.78c.37,0,.4-.05.4-.55V3.14c0-.63-.14-.83-.57-.83a.68.68,0,0,0-.59.36,1.14,1.14,0,0,0-.18.66v.9c0,.5,0,.53.39.55V4.9H55.7V4.78c.37,0,.4-.05.4-.55V1.6c0-.46,0-.49-.4-.49V1l.93,0c0,.44,0,.62,0,1.08Z" class="cls-1"/><path d="M60.06,4.12a1,1,0,0,0,.08.53.28.28,0,0,0,.24.12.7.7,0,0,0,.36-.11l.05.13a1.11,1.11,0,0,1-.59.17.61.61,0,0,1-.57-.27A1.37,1.37,0,0,1,59.54,4V2.33h-.33V2.19c.34,0,.51-.24.6-.76l.25-.06c0,.21,0,.43,0,.81h.64v.15h-.64Z" class="cls-1"/><path d="M71.26,5.39a2.22,2.22,0,0,1,.38-1,5.2,5.2,0,0,1,1.1-1.07,1.59,1.59,0,0,0,.42-.44.94.94,0,0,0,.12-.46.69.69,0,0,0-.7-.76A.57.57,0,0,0,72,2a1.25,1.25,0,0,0-.06.42c0,.19-.08.25-.28.25s-.31-.07-.31-.24a.89.89,0,0,1,.39-.71,1.42,1.42,0,0,1,.89-.26,1.51,1.51,0,0,1,.87.24.83.83,0,0,1,.36.73c0,.46-.2.74-.8,1.1A5,5,0,0,0,72,4.28a1.53,1.53,0,0,0-.44.66h1.55c.4,0,.54-.13.64-.58l.17,0-.16,1Z" class="cls-1"/><path d="M74.78,2.05a1.16,1.16,0,0,1,1-.57,1.18,1.18,0,0,1,1,.57,3,3,0,0,1,.33,1.42,2.93,2.93,0,0,1-.33,1.42,1.17,1.17,0,0,1-1,.58,1.16,1.16,0,0,1-1-.58,2.88,2.88,0,0,1-.33-1.42A2.86,2.86,0,0,1,74.78,2.05Zm1,3.28c.55,0,.79-.57.79-1.86s-.24-1.85-.79-1.85S75,2.19,75,3.48,75.27,5.33,75.82,5.33Z" class="cls-1"/><path d="M78.27,5.24c.48,0,.52-.06.52-.6V2.32c0-.44,0-.44-.06-.48s-.11,0-.26,0h-.19V1.64a7.87,7.87,0,0,0,1.09-.14c0,.43,0,.87,0,1.46V4.63c0,.35,0,.47.1.53s.11.06.4.08v.15H78.27Z" class="cls-1"/><path d="M81.73,2a.4.4,0,0,0-.43.22,1.64,1.64,0,0,0-.15.46l-.17,0,.15-1.12H83.6v.33a7.59,7.59,0,0,0-.82,1.56,6.27,6.27,0,0,0-.3,1,3.76,3.76,0,0,0-.09.76c0,.22-.1.29-.36.29s-.29-.06-.29-.2A9.44,9.44,0,0,1,83.28,2Z" class="cls-1"/><path d="M123.93,4a1.44,1.44,0,0,0-.11.45c0,.2.13.28.46.3v.13H123V4.75c.32,0,.5-.2.72-.76l1.13-3,.35,0,1.14,3.24c.1.29.19.44.3.51a.61.61,0,0,0,.28.06v.13h-1.49V4.75c.29,0,.41-.07.41-.23a1.17,1.17,0,0,0-.08-.33l-.22-.65h-1.46Zm.92-2.5-.68,1.83h1.31Z" class="cls-1"/><path d="M127.21,4.77c.36,0,.39-.05.39-.55V1.59c0-.45,0-.49-.39-.49V1l.93,0c0,.36,0,.76,0,1.08V4.22c0,.5,0,.53.4.55v.12h-1.3Z" class="cls-1"/><path d="M128.9,4.77c.36,0,.39-.05.39-.55V1.59c0-.45,0-.49-.39-.49V1l.93,0c0,.36,0,.76,0,1.08V4.22c0,.5,0,.53.4.55v.12h-1.3Z" class="cls-1"/><path d="M133.41,4.21c0,.49,0,.53.44.55v.13h-1.41V4.75c.4,0,.43-.06.43-.55V1.66c0-.49,0-.53-.43-.55V1H134c1,0,1.46.3,1.46,1a1,1,0,0,1-.19.61,1.36,1.36,0,0,1-.94.41V3a1,1,0,0,1,.6.33,1.8,1.8,0,0,1,.27.45l.22.49c.18.38.28.48.53.5v.12H135a11.28,11.28,0,0,0-.57-1.4.73.73,0,0,0-.74-.45h-.29Zm.4-1.33a1.25,1.25,0,0,0,.7-.17.83.83,0,0,0,.33-.73c0-.57-.32-.84-1-.84h-.44V2.88Z" class="cls-1"/><path d="M137.12,2.1c0,.31,0,.75,0,1V4.22c0,.49,0,.53.4.54v.12h-1.3V4.77c.37,0,.4-.05.4-.54V2.78c0-.47,0-.5-.4-.5V2.16ZM136.82.94a.33.33,0,1,1-.33.33A.32.32,0,0,1,136.82.94Z" class="cls-1"/><path d="M139.89,2.35a1,1,0,0,1,.3.72,1,1,0,0,1-1.08.94,2,2,0,0,1-.47-.06c-.2.1-.27.19-.27.31s.14.26.6.26h.35a1.82,1.82,0,0,1,.85.12.55.55,0,0,1,.29.52.79.79,0,0,1-.4.68,1.91,1.91,0,0,1-1,.21,1.81,1.81,0,0,1-.85-.17.53.53,0,0,1-.3-.51c0-.22,0-.28.4-.49a.5.5,0,0,1-.35-.48c0-.15.05-.23.26-.37l.22-.15a1.33,1.33,0,0,1-.28-.22.9.9,0,0,1-.18-.57,1,1,0,0,1,.27-.72,1.21,1.21,0,0,1,.82-.28,2.16,2.16,0,0,1,.38,0,1.84,1.84,0,0,0,.35,0l.57,0v.21Zm-1.54,3c0,.41.28.61.83.61s.9-.23.9-.6-.12-.33-.39-.38a3.6,3.6,0,0,0-.59,0h-.54C138.42,5,138.35,5.08,138.35,5.3Zm.75-1.42c.38,0,.57-.28.57-.82s-.19-.85-.56-.85-.57.28-.57.81S138.74,3.88,139.1,3.88Z" class="cls-1"/><path d="M141.65,2.65a1,1,0,0,1,1-.56.79.79,0,0,1,.78.38,1.54,1.54,0,0,1,.1.66v1.1c0,.5,0,.53.39.55v.12h-1.29V4.77c.37,0,.4-.05.4-.55V3.13c0-.63-.14-.83-.57-.83a.68.68,0,0,0-.59.36,1.14,1.14,0,0,0-.18.66v.9c0,.5,0,.53.39.55v.12h-1.29V4.77c.37,0,.4-.05.4-.55V1.59c0-.46,0-.49-.4-.49V1l.93,0c0,.44,0,.62,0,1.08Z" class="cls-1"/><path d="M145.11,4.11a1,1,0,0,0,.08.53.28.28,0,0,0,.24.12.7.7,0,0,0,.36-.11l.05.13a1.11,1.11,0,0,1-.59.17.61.61,0,0,1-.57-.27,1.37,1.37,0,0,1-.08-.65V2.31h-.33V2.18c.34,0,.51-.24.6-.76l.25-.06c0,.21,0,.43,0,.81h.64v.15h-.64Z" class="cls-1"/><path d="M146.26,4h.18a1,1,0,0,0,.15.52.69.69,0,0,0,.59.3c.35,0,.57-.18.57-.49a.38.38,0,0,0-.13-.31,2,2,0,0,0-.61-.33c-.58-.26-.76-.45-.76-.82a.8.8,0,0,1,.87-.81,2,2,0,0,1,.36,0l.25,0a1.08,1.08,0,0,0,.25,0l0,.87h-.18c0-.5-.26-.77-.64-.77a.47.47,0,0,0-.53.46.36.36,0,0,0,.15.3,2.85,2.85,0,0,0,.58.29,1.64,1.64,0,0,1,.6.36.75.75,0,0,1,.17.51.79.79,0,0,1-.88.83,2.72,2.72,0,0,1-.53-.06l-.19,0-.25,0Z" class="cls-1"/><path d="M151.43,4.21c0,.49,0,.53.44.55v.13h-1.41V4.75c.4,0,.43-.06.43-.55V1.66c0-.49,0-.53-.43-.55V1H152c1,0,1.46.3,1.46,1a1,1,0,0,1-.19.61,1.36,1.36,0,0,1-.94.41V3a1,1,0,0,1,.6.33,1.8,1.8,0,0,1,.27.45l.22.49c.18.38.28.48.53.5v.12H153a11.28,11.28,0,0,0-.57-1.4.73.73,0,0,0-.74-.45h-.29Zm.4-1.33a1.25,1.25,0,0,0,.7-.17.83.83,0,0,0,.33-.73c0-.57-.32-.84-1-.84h-.44V2.88Z" class="cls-1"/><path d="M154.83,3.38a2,2,0,0,0,.13.82.79.79,0,0,0,.77.57,1,1,0,0,0,.88-.61l.13.07a1.19,1.19,0,0,1-1.15.73,1.3,1.3,0,0,1-1.31-1.41,1.32,1.32,0,0,1,1.29-1.47,1,1,0,0,1,1,.68,2,2,0,0,1,.09.61Zm1.35-.15a1.64,1.64,0,0,0-.1-.61.55.55,0,0,0-.52-.4.64.64,0,0,0-.58.43,1.67,1.67,0,0,0-.14.58Z" class="cls-1"/><path d="M157.28,4h.18a1,1,0,0,0,.15.52.69.69,0,0,0,.59.3c.35,0,.57-.18.57-.49a.38.38,0,0,0-.13-.31,2,2,0,0,0-.61-.33c-.58-.26-.76-.45-.76-.82a.8.8,0,0,1,.87-.81,2,2,0,0,1,.36,0l.25,0a1.07,1.07,0,0,0,.25,0L159,3h-.18c0-.5-.26-.77-.64-.77a.47.47,0,0,0-.53.46.36.36,0,0,0,.15.3,2.86,2.86,0,0,0,.58.29,1.63,1.63,0,0,1,.6.36.75.75,0,0,1,.17.51.79.79,0,0,1-.88.83,2.72,2.72,0,0,1-.53-.06l-.19,0-.25,0Z" class="cls-1"/><path d="M160.25,3.38a2,2,0,0,0,.13.82.79.79,0,0,0,.77.57,1,1,0,0,0,.88-.61l.13.07A1.19,1.19,0,0,1,161,5a1.3,1.3,0,0,1-1.31-1.41A1.32,1.32,0,0,1,161,2.08a1,1,0,0,1,1,.68,2,2,0,0,1,.09.61Zm1.35-.15a1.64,1.64,0,0,0-.1-.61.55.55,0,0,0-.52-.4.64.64,0,0,0-.58.43,1.67,1.67,0,0,0-.14.58Z" class="cls-1"/><path d="M163.44,2.1c0,.21,0,.33,0,.44s0,.09,0,.17a.93.93,0,0,1,.79-.63.38.38,0,0,1,.42.35c0,.15-.13.25-.31.25s-.19,0-.21-.14-.07-.16-.17-.16-.26.11-.36.3a1.31,1.31,0,0,0-.14.65v.89c0,.49,0,.53.4.54v.12h-1.3V4.77c.36,0,.4-.05.4-.54V2.77c0-.42-.06-.5-.37-.5V2.16Z" class="cls-1"/><path d="M166.95,2.82a1,1,0,0,0,.06-.3c0-.15-.12-.23-.42-.24V2.16h1.12v.12c-.29,0-.42.15-.58.57l-.76,2.06H166l-.84-2.23c-.12-.32-.2-.39-.43-.4V2.16H166v.12c-.24,0-.35.07-.35.2a1.11,1.11,0,0,0,.07.28l.62,1.68Z" class="cls-1"/><path d="M168.61,3.38a2,2,0,0,0,.13.82.79.79,0,0,0,.78.57,1,1,0,0,0,.88-.61l.13.07a1.19,1.19,0,0,1-1.15.73,1.3,1.3,0,0,1-1.31-1.41,1.32,1.32,0,0,1,1.29-1.47,1,1,0,0,1,1,.68,2,2,0,0,1,.09.61ZM170,3.23a1.65,1.65,0,0,0-.1-.61.55.55,0,0,0-.52-.4.64.64,0,0,0-.58.43,1.67,1.67,0,0,0-.14.58Z" class="cls-1"/><path d="M173.56.93c0,.35,0,.65,0,1.07V4.09c0,.51,0,.51,0,.58s.1.09.25.09h.05v.12l-.81,0,0-.44a1.06,1.06,0,0,1-1.68.12,1.54,1.54,0,0,1-.32-1c0-.9.49-1.5,1.21-1.5a1,1,0,0,1,.76.34v-.8c0-.51,0-.53-.4-.53V1Zm-1.24,1.3c-.46,0-.71.46-.71,1.3a2.17,2.17,0,0,0,.18,1,.52.52,0,0,0,.5.33c.48,0,.76-.49.76-1.29S172.78,2.22,172.32,2.22Z" class="cls-1"/><path d="M175.33,4.56a.39.39,0,0,1-.4.4.4.4,0,0,1-.4-.4.4.4,0,0,1,.8,0Z" class="cls-1"/><path d="M67,3.09a1,1,0,0,0-.17-.46.66.66,0,0,0-.54-.3.57.57,0,0,0-.49.28,1.61,1.61,0,0,0-.18.83c0,.71.29,1.15.76,1.15A.78.78,0,0,0,67,4.26,1.07,1.07,0,0,0,67.14,4l.09,0a.94.94,0,0,1-1,.67,1.11,1.11,0,0,1-.78-.3,1.26,1.26,0,0,1-.33-.92,1.12,1.12,0,0,1,1.12-1.26,1.65,1.65,0,0,1,.53.09l.13,0a.48.48,0,0,0,.17,0v.78Z" class="cls-1"/><path d="M66.2,5.93a2.45,2.45,0,1,1,2.45-2.45A2.45,2.45,0,0,1,66.2,5.93Zm0-4.65a2.2,2.2,0,1,0,2.2,2.2A2.2,2.2,0,0,0,66.2,1.29Z" class="cls-1"/><rect width="183.71" height=".25" x="35.53" y="7.96" class="cls-1"/></g></g></svg>