<svg xmlns="http://www.w3.org/2000/svg" xmlns:xlink="http://www.w3.org/1999/xlink" id="レイヤー_1" width="1280" height="100" x="0" y="0" enable-background="new 0 0 1280 100" version="1.1" viewBox="0 0 1280 100" xml:space="preserve"><switch><g><g><g><path fill="#FFF" d="M1084.01,13.995h33.42V24.55h-22.213v23.755h19.359v10.55h-19.359v33.433h-11.207V13.995z"/><path fill="#FFF" d="M1123.154,48.306h21.376v10.55h-21.376V48.306z"/><path fill="#FFF" d="M1161.847,25.871l-11.227,8.245V22.245l11.227-8.25h11.207v78.293h-11.207V25.871z"/><path fill="#FFF" d="M1205.639,80.63h-22.325V70.076l16.162-56.081h11.881l-16.827,56.081h11.109V47.753h11.223v22.323h5.389 V80.63h-5.389v11.659h-11.223V80.63z"/><path fill="#FFF" d="M1253.782,86.573h-0.215c-1.473,2.055-2.957,3.634-4.453,4.729c-1.505,1.101-3.613,1.647-6.327,1.647 c-1.321,0-2.683-0.197-4.062-0.606c-1.4-0.405-2.695-1.134-3.912-2.194c-1.206-1.068-2.201-2.566-2.965-4.516 c-0.775-1.936-1.155-4.448-1.155-7.526c0-3.147,0.248-5.921,0.771-8.302c0.512-2.382,1.438-4.361,2.798-5.938 c1.356-1.576,3.172-2.75,5.439-3.52c2.271-0.769,5.171-1.151,8.694-1.151c0.795,0,1.608,0.037,2.424,0.106 c0.798,0.076,1.787,0.15,2.962,0.216V53.69c0-1.907-0.404-3.481-1.214-4.724c-0.802-1.254-2.268-1.875-4.389-1.875 c-1.473,0-2.807,0.479-4.021,1.429c-1.209,0.957-2,2.343-2.356,4.184h-10.894c0.365-5.061,2.051-9.09,5.056-12.1 c1.47-1.467,3.226-2.619,5.28-3.462c2.05-0.845,4.369-1.264,6.935-1.264c2.338,0,4.539,0.364,6.598,1.093 c2.051,0.74,3.834,1.833,5.322,3.306c1.508,1.465,2.699,3.295,3.578,5.493c0.88,2.202,1.322,4.769,1.322,7.699v38.817h-11.218 V86.573z M1253.782,68.314c-1.245-0.217-2.272-0.327-3.075-0.327c-2.422,0-4.497,0.57-6.214,1.709 c-1.729,1.134-2.581,3.2-2.581,6.21c0,2.126,0.504,3.848,1.527,5.166c1.037,1.316,2.461,1.977,4.29,1.977 c1.908,0,3.393-0.617,4.458-1.865c1.066-1.242,1.595-3.008,1.595-5.278V68.314z"/></g><g><path fill="#FFF" d="M399.567,81.183l21.235-40.044c1.069-2,1.684-3.752,1.843-5.248c0.151-1.498,0.23-3.359,0.23-5.593 c0-0.999-0.04-2.058-0.112-3.179c-0.081-1.113-0.29-2.094-0.64-2.944c-0.343-0.843-0.907-1.559-1.673-2.134 c-0.77-0.574-1.888-0.865-3.347-0.865c-1.769,0-3.172,0.502-4.21,1.502c-1.04,0.999-1.555,2.462-1.555,4.384v6.695h-11.772 v-6.463c0-2.465,0.46-4.766,1.383-6.927c0.925-2.154,2.175-4.03,3.749-5.65c1.579-1.619,3.448-2.904,5.596-3.867 c2.153-0.967,4.46-1.44,6.931-1.44c3.076,0,5.704,0.554,7.902,1.675c2.19,1.114,3.997,2.638,5.424,4.551 c1.418,1.924,2.455,4.122,3.11,6.58c0.653,2.47,0.979,5.078,0.979,7.846c0,2-0.035,3.669-0.115,5.019 c-0.075,1.347-0.228,2.639-0.455,3.867c-0.232,1.229-0.62,2.465-1.153,3.692c-0.54,1.232-1.273,2.734-2.192,4.493 l-17.308,33.357h21.224v11.763h-35.074V81.183z"/><path fill="#FFF" d="M443.573,27.062c0-2.773,0.488-5.224,1.443-7.39c0.963-2.147,2.249-3.991,3.867-5.54 c1.614-1.529,3.48-2.708,5.596-3.516c2.12-0.804,4.328-1.206,6.635-1.206c2.308,0,4.52,0.401,6.634,1.206 c2.119,0.809,3.986,1.987,5.596,3.516c1.617,1.549,2.91,3.392,3.873,5.54c0.96,2.167,1.435,4.617,1.435,7.39v48.235 c0,2.768-0.475,5.224-1.435,7.379c-0.963,2.159-2.256,4.006-3.873,5.546c-1.609,1.539-3.477,2.707-5.596,3.514 c-2.114,0.814-4.326,1.213-6.634,1.213c-2.307,0-4.515-0.399-6.635-1.213c-2.115-0.807-3.981-1.975-5.596-3.514 c-1.618-1.54-2.904-3.387-3.867-5.546c-0.955-2.155-1.443-4.611-1.443-7.379V27.062z M455.344,75.298 c0,1.694,0.538,3.094,1.62,4.212c1.072,1.114,2.462,1.673,4.15,1.673s3.076-0.559,4.155-1.673 c1.083-1.118,1.614-2.518,1.614-4.212V27.062c0-1.698-0.531-3.095-1.614-4.212c-1.079-1.114-2.467-1.674-4.155-1.674 s-3.078,0.56-4.15,1.674c-1.082,1.117-1.62,2.514-1.62,4.212V75.298z"/><path fill="#FFF" d="M498.393,22.562l-11.771,8.658V18.76l11.771-8.659h11.767v82.153h-11.767V22.562z"/><path fill="#FFF" d="M541.434,21.176h-12.923v9.466h-10.385V10.101h35.078v11.773l-19.966,70.38h-12.457L541.434,21.176z"/></g><g><path fill="#FFF" d="M834.104,17.657v9.324h-9.734c0.892,1.699,1.656,3.314,2.167,4.667l-6.365,3.224h7.129v23.233h-18.638 v3.388h15.579l2.04-0.168l5.21,0.851c-0.065,0.932-0.128,2.201-0.312,3.219c-0.965,21.621-2.104,23.573-15.656,23.232 c-0.117-3.561-1.136-8.139-2.474-11.193c2.218,0.341,4.327,0.341,5.404,0.341c2.225,0,2.675-1.104,3.187-6.109h-12.979v20.433 h-9.036V77.095c-5.218,6.187-11.707,11.279-18.247,14.417c-1.278-2.884-3.884-7.379-5.799-9.67 c5.98-2.204,12.083-5.848,16.862-10.176h-3.697l-0.303,1.444l-9.3-1.268c1.526-6.446,3.318-15.856,4.396-23.66h16.087v-3.394 h-18.445v-9.578l-0.767,1.021c-1.714-1.951-4.892-4.754-6.985-6.194c4-4.572,7.876-12.294,9.979-19.328l9.535,4.066 c-0.183,0.681-0.818,1.105-1.704,1.018c-0.203,0.589-0.455,1.275-0.707,1.865h12.909v7.633c2.675-4.072,4.97-9.498,6.361-14.582 c3.248,1.27,6.488,2.541,9.73,3.902c-0.252,0.674-0.888,1.107-1.714,1.013c-0.186,0.68-0.441,1.356-0.702,2.034H834.104z M789.33,34.872c-0.702-2.374-1.849-5.257-3.059-7.891h-0.066c-1.457,2.892-3.12,5.602-4.772,7.891H789.33z M799.626,61.494 v-3.388h-8.388l-0.578,3.388H799.626z M792.187,34.872h15.072c-1.779-1.956-4.64-4.495-6.614-5.938 c0.578-0.588,1.082-1.269,1.652-1.954h-6.613c0.768,1.699,1.403,3.314,1.779,4.667L792.187,34.872z M812.984,26.981 c-1.582,2.972-3.249,5.688-5.024,7.891h10.305c-0.826-2.29-2.227-5.257-3.62-7.891H812.984z M818.198,48.182v-3.394h-9.536 v3.394H818.198z"/><path fill="#FFF" d="M849.556,90.614V28.171h-0.133l-8.326,5.688l-2.488-10.778l12.405-8.133h9.48v75.665H849.556z"/><path fill="#FFF" d="M922.824,68.111l5.858,5.681c-0.26,0.413-0.768,0.586-1.271,0.586c-0.261,0-0.517,0-0.772-0.081 c-1.398,1.106-3.492,2.634-5.524,3.982c2.598,1.613,5.654,2.882,9.157,3.728c-1.849,2.382-4.257,7.04-5.411,10.179 c-7.059-2.37-12.207-6.442-16.157-12.294l0.256,5.852c-7.439,1.865-15.069,3.648-20.162,4.747 c-0.128,0.849-0.632,1.353-1.144,1.443l-3.24-12.127l6.094-0.847v-10.85h-6.036v-4.073h-0.058 c-1.024,10.26-2.997,20.686-6.684,28.405c-1.846-1.952-5.978-5.171-8.33-6.365c6.356-12.88,6.807-32.22,6.807-45.78v-25.35 h49.922v24.25h-6.358c-0.256,0.337-0.756,0.589-1.522,0.763v3.391h7.95v10.17h-7.95v4.326h11.199v10.263H922.824z M885.561,39.198c0,3.979,0,10.598-0.578,18.65h8.587v-4.326h-7.187v-10.17h7.187v-4.154H885.561z M916.781,25.29h-31.221v3.564 h31.221V25.29z M898.97,77.601l7.629-1.269c-1.26-2.457-2.404-5.259-3.431-8.22h-4.198V77.601z M909.661,43.352v-4.154h-6.113 c-0.315,0.337-0.749,0.589-1.517,0.763v3.391H909.661z M909.661,57.848v-4.326h-7.63v4.326H909.661z M912.01,68.111 c0.768,1.436,1.59,2.793,2.55,4.06c1.59-1.267,3.242-2.706,4.641-4.06H912.01z"/><path fill="#FFF" d="M956.453,59.458c-0.259,0.685-0.948,1.184-1.837,1.016c-2.744,8.399-7.198,18.065-11.583,24.25 c-1.974-2.208-5.727-5.422-8.074-7.124c4.194-5.258,8.326-14.58,10.489-22.808L956.453,59.458z M995.316,50.053H971.27v28.823 c0,10.597-2.605,13.479-17.301,13.479c-0.438-3.644-1.838-8.988-3.121-12.384c2.493,0.093,5.605,0.172,7.575,0.172 c2.927,0,3.249,0,3.249-1.525V50.053h-23.663V37.754h57.308V50.053z M989.276,16.555v12.209H943.99V16.555H989.276z M986.92,84.809c-1.334-6.953-5.537-17.719-9.409-25.86l8.905-5.09c4,7.722,8.589,17.894,10.303,25.186L986.92,84.809z"/><path fill="#FFF" d="M1062.274,55.642h-25.438c-0.38,1.02-0.836,2.121-1.274,3.14h19.072l1.85-0.262l4.899,1.023 c-0.055,0.849-0.187,1.95-0.321,2.884c-1.586,29.165-2.985,29.927-14.755,29.589c-0.062-2.118-0.5-4.915-1.201-7.293 c-1.531,3.225-3.253,6.105-4.97,8.226c-1.586-2.289-4.256-5.165-6.481-6.871c4.004-3.814,7.38-10.593,9.664-17.713h-2.225 c-3.241,7.966-8.776,16.618-13.801,21.359c-1.528-2.373-4.017-5.334-6.11-7.117c4.198-3.051,8.463-8.479,11.639-14.242h-2.478 c-2.284,3.3-4.831,6.27-7.514,8.567c-1.082-1.528-2.988-3.997-4.57-5.772c-4.582,2.796-9.039,5.34-12.276,7.204 c-0.062,0.938-0.508,1.529-1.085,1.779l-3.498-13.396c2.04-0.845,4.583-1.947,7.387-3.215V40.637h-5.925v-11.61h5.925V11.555 l10.423,0.766c-0.054,0.929-0.569,1.44-1.841,1.69v15.016h5.279v11.61h-5.279v18.822l4.582-2.289l1.144,6.701 c1.842-2.458,3.496-5.258,4.834-8.228h-6.616V45.385h40.962V55.642z M1057.943,13.421v29.51h-30.849v-29.51H1057.943z M1049.432,24.275v-2.543h-14.188v2.543H1049.432z M1049.432,34.618v-2.551h-14.188v2.551H1049.432z M1050.761,68.365 c-1.147,4.745-2.74,9.747-4.706,14.242c0.954,0.087,1.776,0.087,2.288,0.087c0.833,0,1.337-0.178,1.845-1.023 c0.764-1.099,1.466-4.832,2.038-13.306H1050.761z"/></g><g><path fill="#FFF" d="M658.617,8.993h11.456l15.316,44.079h0.239l15.2-44.079h11.579v83.256h-11.929V41.615h-0.239 l-11.805,35.778h-5.966l-11.69-35.778h-0.233v50.633h-11.929V8.993z"/><path fill="#FFF" d="M734.292,44.073c3.569,0,6.043-0.424,7.418-1.287c1.361-0.858,2.047-2.843,2.047-5.965V26.059 c0-1.704-0.522-3.113-1.58-4.208c-1.06-1.084-2.478-1.64-4.265-1.64c-2.108,0-3.613,0.668-4.504,1.992 c-0.896,1.328-1.351,2.613-1.351,3.855v6.788H720.13v-6.898c0-2.417,0.474-4.718,1.408-6.902 c0.934-2.18,2.218-4.053,3.859-5.611c1.634-1.558,3.54-2.806,5.73-3.741c2.179-0.938,4.521-1.409,7.016-1.409 c3.269,0,5.99,0.642,8.126,1.93c2.144,1.29,3.765,2.594,4.85,3.917c0.778,0.938,1.466,1.888,2.051,2.875 c0.582,0.969,1.051,2.099,1.403,3.386c0.35,1.279,0.624,2.846,0.822,4.679c0.194,1.832,0.283,4.07,0.283,6.718 c0,2.89-0.062,5.224-0.176,7.017c-0.107,1.791-0.426,3.295-0.93,4.499c-0.516,1.215-1.245,2.249-2.226,3.104 c-0.973,0.862-2.313,1.796-4.035,2.811c1.873,1.161,3.3,2.259,4.272,3.265c0.973,1.024,1.693,2.208,2.162,3.579 c0.462,1.36,0.733,2.997,0.814,4.904c0.078,1.913,0.117,4.349,0.117,7.311c0,2.727-0.062,4.992-0.176,6.784 c-0.107,1.789-0.294,3.293-0.522,4.503c-0.233,1.209-0.547,2.236-0.936,3.093c-0.391,0.862-0.891,1.758-1.514,2.696 c-1.493,2.177-3.401,3.991-5.734,5.43c-2.338,1.449-5.346,2.166-9.009,2.166c-1.873,0-3.857-0.31-5.962-0.937 c-2.105-0.618-4.021-1.634-5.727-3.033c-1.716-1.403-3.144-3.239-4.267-5.501c-1.129-2.261-1.703-5.03-1.703-8.303v-6.782 h11.928v6.194c0,1.871,0.524,3.412,1.578,4.625c1.055,1.204,2.474,1.814,4.276,1.814c1.787,0,3.205-0.61,4.265-1.814 c1.058-1.213,1.58-2.826,1.58-4.853V62.434c0-1.642-0.143-2.963-0.413-3.983c-0.272-1.008-0.756-1.81-1.462-2.388 c-0.702-0.593-1.659-0.976-2.86-1.175c-1.215-0.195-2.792-0.296-4.729-0.296V44.073z"/><g><path fill="#FFF" d="M587.457,23.324c-2.47,0.454-3.948,0.731-8.395,1.372c-0.905-3.936-1.399-5.301-3.618-10.247 c13.41-1.551,22.704-4.111,27.56-7.398l6.169,9.774c-0.323,0.095-0.323,0.095-0.824,0.281 c-0.248,0.088-1.067,0.456-2.876,1.188c-2.14,0.82-4.029,1.553-7.731,2.654v10.515h2.214c3.13,0,4.69-0.099,6.586-0.461v11.426 c-1.974-0.271-3.867-0.37-6.749-0.37h-1.729c2.882,6.222,5.27,9.509,10.786,14.903c-2.476,3.657-2.966,4.669-5.188,9.968 c-2.387-2.93-4.192-5.854-6.253-10.329c0.162,2.465,0.333,6.217,0.333,9.321v14.627c0,5.753,0.079,8.317,0.488,11.518h-11.265 c0.41-3.382,0.492-6.218,0.492-11.518V67.753c0-3.571,0.163-6.678,0.411-9.875c-2.06,6.853-5.019,12.798-8.806,17.644 c-1.646-4.483-3.289-7.858-5.348-10.879c5.348-5.854,10.12-14.626,12.259-22.584h-3.7c-2.882,0-4.775,0.099-6.992,0.459V31.001 c2.302,0.362,4.11,0.461,7.235,0.461h4.94V23.324z M632.374,7.875c-0.326,2.283-0.407,7.128-0.407,15.172 c0,16.457,0.737,24.137,3.287,32.638c3.13,10.325,7.818,17.184,16.623,24.226c-2.714,2.65-4.45,5.202-7.323,11.149 c-4.198-4.022-7.078-7.41-9.385-11.056c-4.111-6.493-6.086-11.616-8.306-21.305c-2.053,9.689-4.196,15.176-8.639,21.944 c-2.801,4.205-6.499,8.133-10.612,11.151c-1.977-4.297-4.192-7.679-6.828-10.604c6.662-4.664,10.691-9.323,14.397-16.915 c4.776-10.052,6.58-21.113,6.58-40.769c0-8.323-0.161-12.704-0.579-15.632H632.374z M604.482,48.097 c3.295-7.129,4.442-13.529,4.524-25.412l8.888,2.376c-0.575,13.256-1.896,20.383-5.185,28.428L604.482,48.097z M650.312,26.7 c-2.47,10.339-4.772,17.101-8.718,25.779c-2.396-2.555-4.773-4.475-7.822-6.393c3.372-6.857,5.102-13.164,6.835-24.232 L650.312,26.7z"/></g></g><g><path fill="#FFF" d="M15,81.233l19.028-39.874c0.965-1.991,1.514-3.733,1.655-5.226c0.136-1.494,0.207-3.351,0.207-5.575 c0-0.992-0.035-2.049-0.101-3.159c-0.073-1.113-0.264-2.086-0.572-2.927c-0.31-0.845-0.812-1.554-1.5-2.128 c-0.688-0.577-1.69-0.862-2.999-0.862c-1.585,0-2.841,0.5-3.772,1.497c-0.931,0.994-1.398,2.45-1.398,4.362v6.667H15v-6.433 c0-2.454,0.413-4.755,1.24-6.896c0.83-2.144,1.948-4.018,3.363-5.631c1.409-1.61,3.084-2.892,5.017-3.847 c1.929-0.958,3.994-1.438,6.202-1.438c2.756,0,5.116,0.557,7.086,1.669c1.966,1.109,3.584,2.625,4.859,4.536 c1.275,1.913,2.202,4.104,2.791,6.549c0.585,2.457,0.882,5.06,0.882,7.815c0,1.991-0.039,3.66-0.106,4.997 c-0.067,1.343-0.205,2.625-0.411,3.852c-0.209,1.225-0.55,2.45-1.035,3.675c-0.484,1.227-1.138,2.72-1.965,4.481L27.411,80.541 H46.44v11.721H15V81.233z"/><path fill="#FFF" d="M53.469,27.341c0-2.756,0.433-5.206,1.295-7.351c0.862-2.146,2.018-3.983,3.463-5.52 c1.448-1.528,3.119-2.697,5.017-3.504c1.895-0.799,3.875-1.204,5.95-1.204c2.066,0,4.046,0.405,5.941,1.204 c1.897,0.808,3.569,1.977,5.017,3.504c1.445,1.537,2.603,3.375,3.463,5.52c0.862,2.145,1.295,4.595,1.295,7.351v48.031 c0,2.76-0.433,5.209-1.295,7.353c-0.86,2.146-2.018,3.986-3.463,5.515c-1.447,1.535-3.119,2.704-5.017,3.506 c-1.896,0.805-3.875,1.204-5.941,1.204c-2.075,0-4.056-0.399-5.95-1.204c-1.897-0.802-3.568-1.971-5.017-3.506 c-1.445-1.529-2.601-3.369-3.463-5.515c-0.862-2.144-1.295-4.593-1.295-7.353V27.341z M64.019,75.372 c0,1.686,0.482,3.083,1.45,4.192c0.963,1.112,2.206,1.668,3.725,1.668c1.513,0,2.751-0.556,3.72-1.668 c0.962-1.109,1.446-2.506,1.446-4.192V27.341c0-1.682-0.484-3.079-1.446-4.192c-0.969-1.112-2.207-1.667-3.72-1.667 c-1.519,0-2.762,0.555-3.725,1.667c-0.968,1.113-1.45,2.51-1.45,4.192V75.372z"/><path fill="#FFF" d="M104.454,22.864l-10.55,8.612V19.071l10.55-8.618h10.55v81.808h-10.55V22.864z"/><path fill="#FFF" d="M151.3,21.482h-11.581v9.422h-9.31V10.454h31.438V22.17l-17.891,70.091h-11.17L151.3,21.482z"/><path fill="#FFF" d="M179.53,9.762h8.275L174.154,92.95h-8.272L179.53,9.762z"/><path fill="#FFF" d="M204.35,22.864l-10.55,8.612V19.071l10.55-8.618h10.548v81.808H204.35V22.864z"/><path fill="#FFF" d="M230.307,27.341c0-2.756,0.427-5.206,1.29-7.351c0.864-2.146,2.02-3.983,3.469-5.52 c1.444-1.528,3.119-2.697,5.015-3.504c1.894-0.799,3.876-1.204,5.942-1.204c2.07,0,4.051,0.405,5.95,1.204 c1.892,0.808,3.566,1.977,5.013,3.504c1.447,1.537,2.603,3.375,3.465,5.52c0.864,2.145,1.293,4.595,1.293,7.351v48.031 c0,2.76-0.429,5.209-1.293,7.353c-0.862,2.146-2.018,3.986-3.465,5.515c-1.446,1.535-3.121,2.704-5.013,3.506 c-1.899,0.805-3.88,1.204-5.95,1.204c-2.066,0-4.049-0.399-5.942-1.204c-1.896-0.802-3.57-1.971-5.015-3.506 c-1.449-1.529-2.604-3.369-3.469-5.515c-0.863-2.144-1.29-4.593-1.29-7.353V27.341z M240.853,75.372 c0,1.686,0.479,3.083,1.448,4.192c0.965,1.112,2.208,1.668,3.722,1.668c1.518,0,2.76-0.556,3.726-1.668 c0.965-1.109,1.445-2.506,1.445-4.192V27.341c0-1.682-0.48-3.079-1.445-4.192c-0.966-1.112-2.208-1.667-3.726-1.667 c-1.514,0-2.757,0.555-3.722,1.667c-0.969,1.113-1.448,2.51-1.448,4.192V75.372z"/><path fill="#FFF" d="M279.428,9.762h8.272L274.048,92.95h-8.274L279.428,9.762z"/><path fill="#FFF" d="M291.73,81.233l19.029-39.874c0.962-1.991,1.514-3.733,1.655-5.226c0.136-1.494,0.208-3.351,0.208-5.575 c0-0.992-0.039-2.049-0.108-3.159c-0.066-1.113-0.256-2.086-0.566-2.927c-0.311-0.845-0.811-1.554-1.498-2.128 c-0.694-0.577-1.694-0.862-2.999-0.862c-1.587,0-2.845,0.5-3.777,1.497c-0.927,0.994-1.396,2.45-1.396,4.362v6.667H291.73 v-6.433c0-2.454,0.412-4.755,1.242-6.896c0.827-2.144,1.946-4.018,3.358-5.631c1.414-1.61,3.084-2.892,5.019-3.847 c1.927-0.958,3.997-1.438,6.204-1.438c2.754,0,5.117,0.557,7.087,1.669c1.963,1.109,3.58,2.625,4.859,4.536 c1.273,1.913,2.201,4.104,2.789,6.549c0.587,2.457,0.88,5.06,0.88,7.815c0,1.991-0.035,3.66-0.104,4.997 c-0.068,1.343-0.206,2.625-0.415,3.852c-0.204,1.225-0.555,2.45-1.029,3.675c-0.484,1.227-1.141,2.72-1.966,4.481L304.14,80.541 h19.029v11.721H291.73V81.233z"/><path fill="#FFF" d="M346.026,57.906l-0.209-0.227c-0.348,0.305-0.882,0.555-1.605,0.745 c-0.721,0.194-1.673,0.285-2.844,0.285c-1.86,0-3.587-0.497-5.173-1.491c-1.582-0.994-2.824-2.257-3.722-3.791 c-0.48-0.768-0.862-1.591-1.134-2.473c-0.276-0.881-0.506-2.013-0.674-3.39c-0.175-1.378-0.295-3.119-0.361-5.23 c-0.069-2.103-0.106-4.762-0.106-7.981c0-2.681,0.037-4.884,0.106-6.607c0.066-1.726,0.187-3.179,0.361-4.367 c0.168-1.188,0.412-2.202,0.727-3.045c0.306-0.844,0.703-1.722,1.184-2.645c1.381-2.525,3.226-4.481,5.536-5.861 c2.309-1.375,4.911-2.066,7.808-2.066c2.896,0,5.481,0.706,7.757,2.126c2.273,1.418,4.102,3.355,5.479,5.801 c0.481,0.923,0.898,1.801,1.243,2.645c0.343,0.843,0.602,1.856,0.775,3.045c0.171,1.188,0.291,2.641,0.36,4.367 c0.068,1.723,0.104,3.927,0.104,6.607c0,2.525-0.036,4.613-0.104,6.258c-0.069,1.652-0.189,3.067-0.36,4.253 c-0.174,1.19-0.382,2.26-0.624,3.22c-0.241,0.959-0.531,1.971-0.874,3.044l-13.858,41.134h-11.79L346.026,57.906z M340.748,42.509c0,1.766,0.517,3.178,1.549,4.252c1.037,1.072,2.24,1.611,3.623,1.611c1.376,0,2.586-0.539,3.62-1.611 c1.031-1.074,1.551-2.486,1.551-4.252V27.341c0-1.761-0.52-3.178-1.551-4.248c-1.034-1.074-2.244-1.611-3.62-1.611 c-1.383,0-2.586,0.537-3.623,1.611c-1.032,1.07-1.549,2.487-1.549,4.248V42.509z"/></g></g></g></switch></svg>